<svg width="512" height="410" viewBox="0 0 512 410" fill="none" xmlns="http://www.w3.org/2000/svg">
<path fill-rule="evenodd" clip-rule="evenodd" d="M137.809 106.369C137.808 106.227 137.808 106.084 137.808 105.942C137.808 71.4294 156.484 43.4548 179.522 43.459C197.681 43.4623 213.13 60.8473 218.859 85.1118H193.452C172.075 85.1118 152.574 93.1501 137.809 106.369Z" fill="#5C311E"/>
<path fill-rule="evenodd" clip-rule="evenodd" d="M373.553 106.361C373.553 106.219 373.553 106.077 373.553 105.934C373.553 71.4216 354.877 43.447 331.839 43.4512C313.68 43.4545 298.231 60.8394 292.502 85.104H317.909C339.287 85.104 358.787 93.1423 373.553 106.361Z" fill="#5C311E"/>
<rect x="110" y="84.1133" width="292" height="194.415" rx="83.4523" fill="#5C311E"/>
<path fill-rule="evenodd" clip-rule="evenodd" d="M110 179.453V198.548C110 244.637 147.363 282 193.452 282H318.548C364.637 282 402 244.637 402 198.548V179.453C402 225.543 364.637 262.905 318.548 262.905H193.452C147.363 262.905 110 225.543 110 179.453Z" fill="#441F10"/>
<ellipse cx="197.646" cy="150.073" rx="26.8117" ry="24.3019" fill="#FBF6D8"/>
<path d="M341.168 150.073C341.168 163.495 329.164 174.375 314.357 174.375C299.549 174.375 287.545 163.495 287.545 150.073C287.545 136.652 299.549 125.771 314.357 125.771C329.191 125.833 341.19 136.701 341.168 150.073Z" fill="#FABDDD"/>
<path fill-rule="evenodd" clip-rule="evenodd" d="M223.84 155.281C224.244 153.604 224.457 151.861 224.457 150.073C224.457 136.652 212.453 125.771 197.646 125.771C182.838 125.771 170.834 136.652 170.834 150.073C170.834 151.861 171.047 153.604 171.451 155.281C174.081 144.362 184.81 136.187 197.646 136.187C210.481 136.187 221.21 144.362 223.84 155.281Z" fill="#441F10"/>
<path fill-rule="evenodd" clip-rule="evenodd" d="M340.546 155.281C340.952 153.604 341.166 151.861 341.166 150.073C341.166 136.652 329.105 125.771 314.226 125.771C299.347 125.771 287.285 136.652 287.285 150.073C287.285 151.861 287.499 153.604 287.905 155.281C290.548 144.362 301.329 136.187 314.226 136.187C327.123 136.187 337.903 144.362 340.546 155.281Z" fill="#441F10"/>
<path d="M254.894 21.7445C152.967 22.4239 118.592 84.2243 110.871 115.083L91 124C93.7798 24.8 201.421 0 254.894 0C390.642 5.43562 421.49 84.9315 419.946 124L400.075 115.169C391.967 83.7445 356.821 21.065 254.894 21.7445Z" fill="#FBF6D8"/>
<rect x="84" y="115" width="40" height="124" rx="15.176" fill="#FABDDD"/>
<rect x="388" y="115" width="40" height="124" rx="15.176" fill="#FABDDD"/>
<path fill-rule="evenodd" clip-rule="evenodd" d="M76.839 128.736H69.176C60.7945 128.736 54 135.531 54 143.912V208.56C54 216.942 60.7945 223.736 69.1759 223.736H77.0002C76.894 223.012 76.839 222.271 76.839 221.517V128.736Z" fill="#FBF6D8"/>
<path fill-rule="evenodd" clip-rule="evenodd" d="M436.161 129.814H443.824C452.205 129.814 459 136.609 459 144.99V209.639C459 218.02 452.206 224.814 443.824 224.814H436C436.106 224.09 436.161 223.349 436.161 222.595V129.814Z" fill="#FBF6D8"/>
<path d="M4.37364 321.389C4.37364 320.279 4.46872 319.313 4.65888 318.489C4.84903 317.665 5.2135 316.983 5.75229 316.445C6.29107 315.874 7.03585 315.446 7.98664 315.161C8.93743 314.876 10.1735 314.733 11.6947 314.733H34.5613C36.9382 314.733 39.2994 314.908 41.6446 315.256C43.9899 315.573 46.2243 316.159 48.3477 317.015C50.4712 317.871 52.4361 319.059 54.2426 320.581C56.0808 322.07 57.6655 324.003 58.9966 326.38C60.3277 328.757 61.3736 331.61 62.1342 334.938C62.8948 338.265 63.2751 342.179 63.2751 346.68C63.2751 351.973 62.8631 356.552 62.0391 360.419C61.2468 364.254 60.1534 367.518 58.7589 370.212C57.3961 372.906 55.7639 375.093 53.8623 376.772C51.9924 378.42 49.9641 379.72 47.7772 380.671C45.6221 381.59 43.3719 382.208 41.0266 382.525C38.713 382.842 36.3994 383 34.0859 383H11.6947C10.1735 383 8.93743 382.857 7.98664 382.572C7.03585 382.287 6.29107 381.875 5.75229 381.336C5.2135 380.797 4.84903 380.116 4.65888 379.292C4.46872 378.468 4.37364 377.501 4.37364 376.392V321.389ZM56.5721 347.678C56.5721 343.748 56.2551 340.167 55.6213 336.934C54.9874 333.701 53.9891 330.944 52.6263 328.662C51.2635 326.38 49.5204 324.606 47.3969 323.338C45.3052 322.07 42.7856 321.42 39.8381 321.389V376.392C42.7856 376.36 45.321 375.6 47.4445 374.11C49.5679 372.589 51.2952 370.529 52.6263 367.93C53.9891 365.331 54.9874 362.304 55.6213 358.85C56.2551 355.364 56.5721 351.64 56.5721 347.678ZM98.1216 384.664C95.7446 384.664 93.3677 384.474 90.9907 384.093C88.6137 383.713 86.3318 383.111 84.145 382.287C81.9899 381.463 79.9774 380.385 78.1075 379.054C76.2376 377.723 74.6054 376.091 73.2109 374.158C71.8481 372.224 70.7705 369.99 69.9782 367.455C69.1859 364.887 68.7897 361.956 68.7897 358.66C68.7897 355.427 69.1859 352.543 69.9782 350.008C70.7705 347.44 71.8481 345.19 73.2109 343.257C74.6054 341.324 76.2376 339.691 78.1075 338.36C79.9774 336.998 81.9899 335.904 84.145 335.08C86.3318 334.224 88.6137 333.606 90.9907 333.226C93.3677 332.846 95.7446 332.656 98.1216 332.656C100.308 332.656 102.543 332.798 104.825 333.083C107.138 333.337 109.373 333.828 111.528 334.557C113.715 335.254 115.759 336.221 117.66 337.457C119.594 338.661 121.273 340.214 122.7 342.116C124.157 344.018 125.298 346.299 126.122 348.962C126.978 351.592 127.406 354.698 127.406 358.279C127.406 361.956 126.994 365.173 126.17 367.93C125.346 370.656 124.205 373.001 122.747 374.966C121.321 376.899 119.657 378.5 117.755 379.767C115.854 381.035 113.81 382.033 111.623 382.762C109.468 383.46 107.233 383.951 104.92 384.236C102.606 384.521 100.34 384.664 98.1216 384.664ZM112.716 373.254C113.699 373.254 114.665 373.048 115.616 372.636C116.599 372.193 117.454 371.416 118.183 370.307C118.944 369.198 119.546 367.676 119.99 365.743C120.465 363.778 120.703 361.29 120.703 358.279C120.703 355.427 120.465 353.082 119.99 351.244C119.546 349.405 118.944 347.963 118.183 346.917C117.423 345.84 116.567 345.095 115.616 344.683C114.665 344.271 113.699 344.065 112.716 344.065C111.956 344.065 111.1 344.224 110.149 344.541C109.23 344.857 108.358 345.539 107.534 346.585C106.742 347.599 106.077 349.073 105.538 351.006C104.999 352.907 104.73 355.459 104.73 358.66C104.73 361.861 104.951 364.428 105.395 366.361C105.839 368.294 106.425 369.768 107.154 370.782C107.883 371.797 108.723 372.462 109.674 372.779C110.656 373.096 111.67 373.254 112.716 373.254ZM167.054 358.945C167.054 362.146 167.387 364.808 168.052 366.932C168.75 369.055 169.621 370.751 170.667 372.018C171.713 373.254 172.838 374.126 174.042 374.633C175.247 375.14 176.372 375.394 177.418 375.394C178.21 375.394 178.939 375.299 179.604 375.108C180.27 374.887 180.856 374.649 181.363 374.395C181.87 374.11 182.298 373.872 182.647 373.682C182.996 373.46 183.265 373.349 183.455 373.349C183.74 373.349 183.93 373.397 184.026 373.492C184.152 373.587 184.295 373.761 184.453 374.015L186.117 376.582C186.276 376.836 186.355 377.058 186.355 377.248C186.355 377.47 186.292 377.644 186.165 377.771C186.038 377.897 185.911 378.008 185.785 378.103C184.739 378.832 183.455 379.609 181.934 380.433C180.413 381.225 178.638 381.954 176.609 382.62C174.613 383.285 172.378 383.84 169.906 384.284C167.434 384.727 164.74 384.949 161.825 384.949C159.448 384.949 157.071 384.759 154.694 384.379C152.317 383.998 150.035 383.38 147.848 382.525C145.693 381.669 143.68 380.575 141.81 379.244C139.941 377.882 138.308 376.249 136.914 374.348C135.551 372.415 134.474 370.18 133.681 367.645C132.889 365.078 132.493 362.178 132.493 358.945C132.493 355.712 132.889 352.828 133.681 350.293C134.474 347.726 135.551 345.491 136.914 343.59C138.308 341.656 139.941 340.024 141.81 338.693C143.68 337.33 145.693 336.221 147.848 335.365C150.035 334.51 152.317 333.892 154.694 333.511C157.071 333.131 159.448 332.941 161.825 332.941C164.423 332.941 166.927 333.147 169.336 333.559C171.745 333.939 173.963 334.462 175.991 335.128C178.051 335.762 179.89 336.475 181.506 337.267C183.154 338.028 184.485 338.788 185.499 339.549C185.626 339.644 185.753 339.755 185.88 339.882C186.006 340.008 186.07 340.183 186.07 340.405C186.07 340.626 185.991 340.848 185.832 341.07L184.168 343.637C184.01 343.891 183.867 344.065 183.74 344.16C183.645 344.255 183.455 344.303 183.17 344.303C182.98 344.303 182.726 344.208 182.409 344.018C182.092 343.827 181.696 343.621 181.221 343.4C180.745 343.146 180.191 342.924 179.557 342.734C178.923 342.512 178.21 342.401 177.418 342.401C176.372 342.401 175.247 342.671 174.042 343.209C172.838 343.716 171.713 344.604 170.667 345.872C169.621 347.139 168.75 348.835 168.052 350.958C167.387 353.082 167.054 355.744 167.054 358.945ZM234.75 375.108C235.606 375.108 236.382 374.998 237.08 374.776C237.777 374.522 238.395 374.253 238.934 373.967C239.504 373.682 239.964 373.429 240.312 373.207C240.693 372.953 240.978 372.827 241.168 372.827C241.453 372.827 241.644 372.874 241.739 372.969C241.865 373.064 242.008 373.239 242.166 373.492L243.83 376.059C243.989 376.313 244.068 376.535 244.068 376.725C244.068 376.947 244.005 377.121 243.878 377.248C243.751 377.374 243.624 377.485 243.498 377.58C242.452 378.309 241.168 379.102 239.647 379.957C238.126 380.781 236.351 381.542 234.322 382.239C232.326 382.937 230.06 383.507 227.524 383.951C224.989 384.426 222.2 384.664 219.157 384.664C216.78 384.664 214.403 384.474 212.026 384.093C209.649 383.713 207.368 383.111 205.181 382.287C203.026 381.463 201.013 380.385 199.143 379.054C197.273 377.723 195.641 376.091 194.247 374.158C192.884 372.224 191.806 369.99 191.014 367.455C190.222 364.887 189.825 361.956 189.825 358.66C189.825 355.427 190.222 352.543 191.014 350.008C191.806 347.44 192.884 345.19 194.247 343.257C195.641 341.324 197.273 339.691 199.143 338.36C201.013 336.998 203.026 335.904 205.181 335.08C207.368 334.224 209.649 333.606 212.026 333.226C214.403 332.846 216.78 332.656 219.157 332.656C223.119 332.656 226.795 333.099 230.186 333.987C233.609 334.874 236.573 336.332 239.076 338.36C241.58 340.389 243.545 343.051 244.971 346.347C246.397 349.643 247.111 353.684 247.111 358.47V361.132C247.111 361.702 246.968 362.146 246.683 362.463C246.397 362.78 245.922 362.938 245.257 362.938H225.575C225.829 365.284 226.272 367.249 226.906 368.833C227.572 370.386 228.317 371.638 229.141 372.589C229.996 373.508 230.915 374.158 231.898 374.538C232.88 374.918 233.831 375.108 234.75 375.108ZM240.36 357.091C240.36 354.556 240.154 352.464 239.742 350.816C239.362 349.136 238.839 347.805 238.173 346.822C237.508 345.808 236.715 345.095 235.796 344.683C234.909 344.271 233.974 344.065 232.991 344.065C232.262 344.065 231.47 344.208 230.614 344.493C229.759 344.778 228.95 345.38 228.19 346.299C227.461 347.219 226.827 348.534 226.288 350.245C225.781 351.957 225.48 354.239 225.385 357.091H240.36Z" fill="#FBF6D8"/>
<path d="M316.84 348.676C316.84 352.575 316.998 355.95 317.315 358.802C317.632 361.623 318.044 364.032 318.551 366.028C319.09 367.993 319.708 369.594 320.405 370.83C321.134 372.034 321.879 372.985 322.64 373.682C323.4 374.348 324.161 374.807 324.922 375.061C325.714 375.283 326.459 375.394 327.156 375.394C327.948 375.394 328.661 375.299 329.295 375.108C329.929 374.887 330.5 374.649 331.007 374.395C331.514 374.11 331.926 373.872 332.243 373.682C332.591 373.46 332.861 373.349 333.051 373.349C333.304 373.349 333.526 373.492 333.716 373.777L335.761 377.01C335.856 377.2 335.903 377.359 335.903 377.485C335.903 377.644 335.84 377.786 335.713 377.913C335.586 378.008 335.475 378.103 335.38 378.199C334.398 378.959 333.146 379.736 331.625 380.528C330.103 381.32 328.36 382.033 326.395 382.667C324.462 383.301 322.323 383.824 319.977 384.236C317.632 384.648 315.16 384.854 312.561 384.854C310.184 384.854 307.744 384.616 305.24 384.141C302.768 383.697 300.359 382.937 298.014 381.859C295.669 380.75 293.45 379.292 291.359 377.485C289.299 375.679 287.492 373.445 285.939 370.782C284.386 368.088 283.15 364.935 282.231 361.322C281.344 357.677 280.9 353.462 280.9 348.676C280.9 343.891 281.344 339.691 282.231 336.078C283.15 332.434 284.386 329.28 285.939 326.618C287.492 323.924 289.299 321.674 291.359 319.867C293.45 318.061 295.669 316.619 298.014 315.541C300.359 314.432 302.768 313.656 305.24 313.212C307.744 312.737 310.184 312.499 312.561 312.499C315.16 312.499 317.632 312.705 319.977 313.117C322.323 313.529 324.462 314.052 326.395 314.686C328.36 315.32 330.103 316.033 331.625 316.825C333.146 317.617 334.398 318.394 335.38 319.154C335.475 319.249 335.586 319.36 335.713 319.487C335.84 319.582 335.903 319.709 335.903 319.867C335.903 319.994 335.856 320.153 335.761 320.343L333.716 323.576C333.526 323.861 333.304 324.003 333.051 324.003C332.861 324.003 332.591 323.908 332.243 323.718C331.926 323.496 331.514 323.259 331.007 323.005C330.5 322.72 329.929 322.482 329.295 322.292C328.661 322.07 327.948 321.959 327.156 321.959C326.459 321.959 325.714 322.086 324.922 322.34C324.161 322.561 323.4 323.021 322.64 323.718C321.879 324.384 321.134 325.335 320.405 326.571C319.708 327.775 319.09 329.375 318.551 331.372C318.044 333.337 317.632 335.746 317.315 338.598C316.998 341.419 316.84 344.778 316.84 348.676ZM361.575 383C359.863 383 358.136 382.889 356.393 382.667C354.681 382.445 353.033 382.097 351.449 381.621C349.896 381.114 348.438 380.465 347.075 379.672C345.712 378.88 344.524 377.897 343.509 376.725C342.527 375.552 341.751 374.173 341.18 372.589C340.61 371.004 340.324 369.182 340.324 367.122C340.324 364.364 340.847 362.003 341.893 360.038C342.939 358.073 344.334 356.441 346.077 355.142C347.851 353.842 349.88 352.844 352.162 352.147C354.444 351.45 356.805 351.006 359.245 350.816V347.535C359.245 346.299 359.087 345.317 358.77 344.588C358.453 343.859 358.041 343.32 357.534 342.972C357.058 342.591 356.519 342.354 355.917 342.259C355.347 342.132 354.792 342.068 354.253 342.068C353.62 342.068 352.938 342.164 352.209 342.354C351.512 342.544 350.831 342.782 350.165 343.067C349.499 343.32 348.866 343.606 348.263 343.922C347.661 344.239 347.154 344.525 346.742 344.778C346.552 344.905 346.378 345.016 346.219 345.111C346.061 345.206 345.902 345.254 345.744 345.254C345.459 345.254 345.189 345.048 344.936 344.636L343.319 342.068C343.161 341.847 343.082 341.609 343.082 341.355C343.082 341.102 343.177 340.88 343.367 340.69C343.589 340.5 343.795 340.341 343.985 340.214C345.031 339.485 346.362 338.741 347.978 337.98C349.595 337.219 351.401 336.538 353.398 335.936C355.426 335.334 357.613 334.842 359.958 334.462C362.303 334.082 364.728 333.892 367.232 333.892C369.609 333.892 371.922 333.971 374.173 334.129C376.454 334.288 378.594 334.636 380.59 335.175C382.619 335.682 384.457 336.427 386.105 337.41C387.785 338.36 389.227 339.628 390.431 341.213C391.667 342.797 392.618 344.747 393.283 347.06C393.949 349.374 394.282 352.147 394.282 355.38V376.582C394.282 377.628 394.187 378.563 393.996 379.387C393.806 380.179 393.442 380.845 392.903 381.384C392.364 381.922 391.62 382.334 390.669 382.62C389.718 382.873 388.482 383 386.961 383H361.575ZM359.245 356.853C356.963 356.853 355.046 357.138 353.493 357.709C351.94 358.279 350.688 359.04 349.737 359.991C348.786 360.942 348.105 362.051 347.693 363.319C347.281 364.555 347.075 365.838 347.075 367.169C347.075 368.5 347.281 369.768 347.693 370.972C348.105 372.145 348.786 373.175 349.737 374.063C350.688 374.95 351.94 375.647 353.493 376.154C355.046 376.661 356.963 376.915 359.245 376.915V356.853ZM436.925 332.656C438.953 332.656 440.981 332.782 443.01 333.036C445.038 333.258 446.956 333.559 448.762 333.939C450.6 334.32 452.264 334.747 453.754 335.223C455.275 335.666 456.511 336.11 457.462 336.554C457.62 336.617 457.779 336.712 457.937 336.839C458.127 336.966 458.222 337.204 458.222 337.552C458.222 337.647 458.207 337.774 458.175 337.933C458.143 338.091 458.111 338.249 458.08 338.408L457.509 341.213C457.446 341.593 457.351 341.831 457.224 341.926C457.129 341.989 457.034 342.021 456.939 342.021C456.78 342.021 456.479 341.973 456.036 341.878C455.592 341.783 455.117 341.736 454.609 341.736C452.803 341.736 451.377 342.227 450.331 343.209C449.285 344.16 448.619 345.84 448.334 348.249L445.672 370.45C445.418 372.415 444.753 374.253 443.675 375.964C442.629 377.676 441.108 379.181 439.112 380.48C437.115 381.78 434.643 382.794 431.695 383.523C428.78 384.284 425.357 384.664 421.427 384.664C418.955 384.664 416.546 384.505 414.201 384.188C411.856 383.903 409.685 383.539 407.688 383.095C405.723 382.683 403.996 382.271 402.506 381.859C401.048 381.415 399.955 381.067 399.226 380.813C398.972 380.75 398.782 380.671 398.655 380.575C398.497 380.449 398.418 380.259 398.418 380.005C398.418 379.878 398.434 379.736 398.465 379.577C398.497 379.419 398.544 379.229 398.608 379.007L399.178 376.344C399.242 376.091 399.353 375.885 399.511 375.726C399.67 375.568 399.955 375.489 400.367 375.489C401.413 375.489 402.459 375.441 403.504 375.346C404.582 375.219 405.564 374.918 406.452 374.443C407.371 373.967 408.163 373.239 408.829 372.256C409.526 371.274 410.001 369.895 410.255 368.12L413.583 345.206C413.931 342.797 414.819 340.785 416.245 339.169C417.671 337.552 419.43 336.269 421.522 335.318C423.645 334.335 426.038 333.654 428.7 333.274C431.363 332.862 434.104 332.656 436.925 332.656ZM459.458 349.912C458.793 349.912 458.46 349.564 458.46 348.867V345.063C458.46 344.398 458.793 344.065 459.458 344.065H464.403V333.274C464.403 332.798 464.466 332.323 464.593 331.847C464.751 331.372 465.147 331.008 465.781 330.754L492.023 321.056C493.227 320.612 494.226 320.279 495.018 320.058C495.81 319.836 496.508 319.725 497.11 319.725C497.332 319.725 497.569 319.772 497.823 319.867C498.108 319.931 498.362 320.058 498.583 320.248C498.837 320.438 499.043 320.707 499.202 321.056C499.36 321.373 499.439 321.769 499.439 322.244V344.065H507.996C508.662 344.065 508.995 344.398 508.995 345.063V348.867C508.995 349.564 508.662 349.912 507.996 349.912H499.439V369.071C499.439 371.321 499.804 372.906 500.533 373.825C501.293 374.744 502.45 375.204 504.003 375.204C504.352 375.204 504.716 375.172 505.096 375.108C505.477 375.013 505.825 374.934 506.142 374.871C506.491 374.776 506.808 374.696 507.093 374.633C507.378 374.538 507.616 374.49 507.806 374.49C508.155 374.49 508.329 374.696 508.329 375.108V378.769C508.329 379.403 508.202 379.831 507.949 380.053C507.695 380.274 507.473 380.417 507.283 380.48C506.079 380.987 504.653 381.495 503.005 382.002C501.388 382.509 499.629 382.952 497.728 383.333C495.858 383.745 493.877 384.062 491.785 384.284C489.694 384.537 487.602 384.664 485.51 384.664C482.499 384.664 479.694 384.505 477.096 384.188C474.528 383.903 472.294 383.222 470.393 382.144C468.523 381.067 467.049 379.466 465.971 377.343C464.925 375.219 464.403 372.335 464.403 368.691V349.912H459.458Z" fill="#FABDDD"/>
</svg>
