<svg width="668" height="419" viewBox="0 0 668 419" fill="none" xmlns="http://www.w3.org/2000/svg">
<path fill-rule="evenodd" clip-rule="evenodd" d="M215.53 100.427C215.529 100.291 215.529 100.155 215.529 100.019C215.529 65.4799 234.205 37.4841 257.244 37.4883C275.404 37.4916 290.853 54.8896 296.582 79.1723H271.171C249.794 79.1723 230.295 87.2097 215.53 100.427Z" fill="#5C311E"/>
<path fill-rule="evenodd" clip-rule="evenodd" d="M451.275 100.42C451.276 100.283 451.276 100.147 451.276 100.011C451.276 65.472 432.6 37.4763 409.561 37.4805C391.402 37.4838 375.952 54.8817 370.223 79.1644H395.634C417.011 79.1644 436.51 87.2019 451.275 100.42Z" fill="#5C311E"/>
<rect x="187.719" y="78.1719" width="292.007" height="194.562" rx="83.4523" fill="#5C311E"/>
<path fill-rule="evenodd" clip-rule="evenodd" d="M187.719 173.646V192.755C187.719 238.845 225.081 276.208 271.171 276.208H396.273C442.363 276.208 479.725 238.845 479.725 192.755V173.646C479.725 219.736 442.363 257.099 396.273 257.099H271.171C225.081 257.099 187.719 219.736 187.719 173.646Z" fill="#441F10"/>
<ellipse cx="275.366" cy="144.184" rx="26.8124" ry="24.3203" fill="#FBF6D8"/>
<path d="M418.891 144.184C418.891 157.615 406.887 168.504 392.079 168.504C377.27 168.504 365.266 157.615 365.266 144.184C365.266 130.752 377.27 119.863 392.079 119.863C406.914 119.925 418.913 130.801 418.891 144.184Z" fill="#FABDDD"/>
<path fill-rule="evenodd" clip-rule="evenodd" d="M301.561 149.395C301.965 147.716 302.178 145.972 302.178 144.184C302.178 130.752 290.174 119.863 275.366 119.863C260.558 119.863 248.553 130.752 248.553 144.184C248.553 145.972 248.766 147.716 249.17 149.395C251.801 138.468 262.53 130.286 275.366 130.286C288.202 130.286 298.931 138.468 301.561 149.395Z" fill="#441F10"/>
<path fill-rule="evenodd" clip-rule="evenodd" d="M418.271 149.395C418.677 147.716 418.891 145.972 418.891 144.184C418.891 130.752 406.829 119.863 391.95 119.863C377.071 119.863 365.009 130.752 365.009 144.184C365.009 145.972 365.223 147.716 365.629 149.395C368.272 138.468 379.052 130.286 391.95 130.286C404.847 130.286 415.628 138.468 418.271 149.395Z" fill="#441F10"/>
<path d="M4.37364 329.494C4.37364 328.385 4.46872 327.418 4.65888 326.594C4.84903 325.77 5.2135 325.089 5.75229 324.55C6.29107 323.98 7.03585 323.552 7.98664 323.267C8.93743 322.981 10.1735 322.839 11.6947 322.839H34.5613C36.9382 322.839 39.2994 323.013 41.6446 323.362C43.9899 323.679 46.2243 324.265 48.3477 325.121C50.4712 325.976 52.4361 327.165 54.2426 328.686C56.0808 330.176 57.6655 332.109 58.9966 334.486C60.3277 336.863 61.3736 339.715 62.1342 343.043C62.8948 346.371 63.2751 350.285 63.2751 354.785C63.2751 360.078 62.8631 364.658 62.0391 368.524C61.2468 372.359 60.1534 375.623 58.7589 378.317C57.3961 381.011 55.7639 383.198 53.8623 384.878C51.9924 386.526 49.9641 387.825 47.7772 388.776C45.6221 389.695 43.3719 390.313 41.0266 390.63C38.713 390.947 36.3994 391.105 34.0859 391.105H11.6947C10.1735 391.105 8.93743 390.963 7.98664 390.678C7.03585 390.392 6.29107 389.98 5.75229 389.442C5.2135 388.903 4.84903 388.221 4.65888 387.397C4.46872 386.573 4.37364 385.607 4.37364 384.497V329.494ZM56.5721 355.784C56.5721 351.854 56.2551 348.272 55.6213 345.04C54.9874 341.807 53.9891 339.05 52.6263 336.768C51.2635 334.486 49.5204 332.711 47.3969 331.443C45.3052 330.176 42.7856 329.526 39.8381 329.494V384.497C42.7856 384.466 45.321 383.705 47.4445 382.216C49.5679 380.694 51.2952 378.634 52.6263 376.035C53.9891 373.437 54.9874 370.41 55.6213 366.955C56.2551 363.469 56.5721 359.745 56.5721 355.784ZM98.1216 392.769C95.7446 392.769 93.3677 392.579 90.9907 392.199C88.6137 391.819 86.3318 391.216 84.145 390.392C81.9899 389.568 79.9774 388.491 78.1075 387.16C76.2376 385.829 74.6054 384.196 73.2109 382.263C71.8481 380.33 70.7705 378.095 69.9782 375.56C69.1859 372.993 68.7897 370.061 68.7897 366.765C68.7897 363.533 69.1859 360.648 69.9782 358.113C70.7705 355.546 71.8481 353.296 73.2109 351.362C74.6054 349.429 76.2376 347.797 78.1075 346.466C79.9774 345.103 81.9899 344.01 84.145 343.186C86.3318 342.33 88.6137 341.712 90.9907 341.332C93.3677 340.951 95.7446 340.761 98.1216 340.761C100.308 340.761 102.543 340.904 104.825 341.189C107.138 341.442 109.373 341.934 111.528 342.663C113.715 343.36 115.759 344.327 117.66 345.563C119.594 346.767 121.273 348.32 122.7 350.221C124.157 352.123 125.298 354.405 126.122 357.067C126.978 359.698 127.406 362.804 127.406 366.385C127.406 370.061 126.994 373.278 126.17 376.035C125.346 378.761 124.205 381.106 122.747 383.071C121.321 385.005 119.657 386.605 117.755 387.873C115.854 389.141 113.81 390.139 111.623 390.868C109.468 391.565 107.233 392.056 104.92 392.341C102.606 392.627 100.34 392.769 98.1216 392.769ZM112.716 381.36C113.699 381.36 114.665 381.154 115.616 380.742C116.599 380.298 117.454 379.522 118.183 378.412C118.944 377.303 119.546 375.782 119.99 373.849C120.465 371.884 120.703 369.396 120.703 366.385C120.703 363.533 120.465 361.187 119.99 359.349C119.546 357.511 118.944 356.069 118.183 355.023C117.423 353.945 116.567 353.201 115.616 352.789C114.665 352.377 113.699 352.171 112.716 352.171C111.956 352.171 111.1 352.329 110.149 352.646C109.23 352.963 108.358 353.644 107.534 354.69C106.742 355.704 106.077 357.178 105.538 359.111C104.999 361.013 104.73 363.564 104.73 366.765C104.73 369.966 104.951 372.533 105.395 374.467C105.839 376.4 106.425 377.874 107.154 378.888C107.883 379.902 108.723 380.568 109.674 380.884C110.656 381.201 111.67 381.36 112.716 381.36ZM167.054 367.05C167.054 370.251 167.387 372.914 168.052 375.037C168.75 377.161 169.621 378.856 170.667 380.124C171.713 381.36 172.838 382.231 174.042 382.739C175.247 383.246 176.372 383.499 177.418 383.499C178.21 383.499 178.939 383.404 179.604 383.214C180.27 382.992 180.856 382.754 181.363 382.501C181.87 382.216 182.298 381.978 182.647 381.788C182.996 381.566 183.265 381.455 183.455 381.455C183.74 381.455 183.93 381.502 184.026 381.598C184.152 381.693 184.295 381.867 184.453 382.12L186.117 384.688C186.276 384.941 186.355 385.163 186.355 385.353C186.355 385.575 186.292 385.749 186.165 385.876C186.038 386.003 185.911 386.114 185.785 386.209C184.739 386.938 183.455 387.714 181.934 388.538C180.413 389.331 178.638 390.06 176.609 390.725C174.613 391.391 172.378 391.945 169.906 392.389C167.434 392.833 164.74 393.055 161.825 393.055C159.448 393.055 157.071 392.864 154.694 392.484C152.317 392.104 150.035 391.486 147.848 390.63C145.693 389.774 143.68 388.681 141.81 387.35C139.941 385.987 138.308 384.355 136.914 382.453C135.551 380.52 134.474 378.286 133.681 375.75C132.889 373.183 132.493 370.283 132.493 367.05C132.493 363.818 132.889 360.934 133.681 358.398C134.474 355.831 135.551 353.597 136.914 351.695C138.308 349.762 139.941 348.13 141.81 346.799C143.68 345.436 145.693 344.327 147.848 343.471C150.035 342.615 152.317 341.997 154.694 341.617C157.071 341.236 159.448 341.046 161.825 341.046C164.423 341.046 166.927 341.252 169.336 341.664C171.745 342.045 173.963 342.568 175.991 343.233C178.051 343.867 179.89 344.58 181.506 345.372C183.154 346.133 184.485 346.894 185.499 347.654C185.626 347.749 185.753 347.86 185.88 347.987C186.006 348.114 186.07 348.288 186.07 348.51C186.07 348.732 185.991 348.954 185.832 349.176L184.168 351.743C184.01 351.996 183.867 352.171 183.74 352.266C183.645 352.361 183.455 352.408 183.17 352.408C182.98 352.408 182.726 352.313 182.409 352.123C182.092 351.933 181.696 351.727 181.221 351.505C180.745 351.251 180.191 351.03 179.557 350.839C178.923 350.618 178.21 350.507 177.418 350.507C176.372 350.507 175.247 350.776 174.042 351.315C172.838 351.822 171.713 352.709 170.667 353.977C169.621 355.245 168.75 356.94 168.052 359.064C167.387 361.187 167.054 363.849 167.054 367.05ZM234.75 383.214C235.606 383.214 236.382 383.103 237.08 382.881C237.777 382.628 238.395 382.358 238.934 382.073C239.504 381.788 239.964 381.534 240.312 381.312C240.693 381.059 240.978 380.932 241.168 380.932C241.453 380.932 241.644 380.98 241.739 381.075C241.865 381.17 242.008 381.344 242.166 381.598L243.83 384.165C243.989 384.418 244.068 384.64 244.068 384.83C244.068 385.052 244.005 385.226 243.878 385.353C243.751 385.48 243.624 385.591 243.498 385.686C242.452 386.415 241.168 387.207 239.647 388.063C238.126 388.887 236.351 389.648 234.322 390.345C232.326 391.042 230.06 391.613 227.524 392.056C224.989 392.532 222.2 392.769 219.157 392.769C216.78 392.769 214.403 392.579 212.026 392.199C209.649 391.819 207.368 391.216 205.181 390.392C203.026 389.568 201.013 388.491 199.143 387.16C197.273 385.829 195.641 384.196 194.247 382.263C192.884 380.33 191.806 378.095 191.014 375.56C190.222 372.993 189.825 370.061 189.825 366.765C189.825 363.533 190.222 360.648 191.014 358.113C191.806 355.546 192.884 353.296 194.247 351.362C195.641 349.429 197.273 347.797 199.143 346.466C201.013 345.103 203.026 344.01 205.181 343.186C207.368 342.33 209.649 341.712 212.026 341.332C214.403 340.951 216.78 340.761 219.157 340.761C223.119 340.761 226.795 341.205 230.186 342.092C233.609 342.98 236.573 344.437 239.076 346.466C241.58 348.494 243.545 351.156 244.971 354.452C246.397 357.749 247.111 361.789 247.111 366.575V369.237C247.111 369.808 246.968 370.251 246.683 370.568C246.397 370.885 245.922 371.044 245.257 371.044H225.575C225.829 373.389 226.272 375.354 226.906 376.939C227.572 378.492 228.317 379.744 229.141 380.694C229.996 381.613 230.915 382.263 231.898 382.643C232.88 383.024 233.831 383.214 234.75 383.214ZM240.36 365.196C240.36 362.661 240.154 360.569 239.742 358.921C239.362 357.241 238.839 355.91 238.173 354.928C237.508 353.914 236.715 353.201 235.796 352.789C234.909 352.377 233.974 352.171 232.991 352.171C232.262 352.171 231.47 352.313 230.614 352.598C229.759 352.884 228.95 353.486 228.19 354.405C227.461 355.324 226.827 356.639 226.288 358.351C225.781 360.062 225.48 362.344 225.385 365.196H240.36Z" fill="#FBF6D8"/>
<path d="M282.475 329.494C282.475 328.385 282.571 327.418 282.761 326.594C282.951 325.77 283.315 325.089 283.854 324.55C284.393 323.98 285.138 323.552 286.088 323.267C287.039 322.981 288.275 322.839 289.797 322.839H310.999C312.837 322.839 314.232 323.108 315.183 323.647C316.165 324.186 316.847 324.867 317.227 325.691C317.639 326.483 317.861 327.339 317.892 328.258C317.924 329.146 317.94 329.97 317.94 330.73V384.593C320.127 384.276 322.155 383.99 324.025 383.737C324.817 383.642 325.61 383.547 326.402 383.452C327.226 383.325 327.971 383.214 328.636 383.119C329.334 383.024 329.952 382.96 330.49 382.929C331.029 382.865 331.425 382.834 331.679 382.834C332.218 382.834 332.646 382.945 332.962 383.166C333.311 383.357 333.485 383.769 333.485 384.402V388.776C333.485 389.347 333.232 389.885 332.725 390.392C332.249 390.868 331.473 391.105 330.395 391.105H289.701C288.212 391.105 286.992 390.963 286.041 390.678C285.122 390.392 284.393 389.98 283.854 389.442C283.315 388.903 282.951 388.221 282.761 387.397C282.571 386.573 282.475 385.607 282.475 384.497V329.494ZM381.928 383.214C382.784 383.214 383.56 383.103 384.258 382.881C384.955 382.628 385.573 382.358 386.112 382.073C386.682 381.788 387.142 381.534 387.49 381.312C387.871 381.059 388.156 380.932 388.346 380.932C388.631 380.932 388.821 380.98 388.916 381.075C389.043 381.17 389.186 381.344 389.344 381.598L391.008 384.165C391.167 384.418 391.246 384.64 391.246 384.83C391.246 385.052 391.183 385.226 391.056 385.353C390.929 385.48 390.802 385.591 390.675 385.686C389.63 386.415 388.346 387.207 386.825 388.063C385.303 388.887 383.529 389.648 381.5 390.345C379.504 391.042 377.238 391.613 374.702 392.056C372.167 392.532 369.378 392.769 366.335 392.769C363.958 392.769 361.581 392.579 359.204 392.199C356.827 391.819 354.545 391.216 352.359 390.392C350.203 389.568 348.191 388.491 346.321 387.16C344.451 385.829 342.819 384.196 341.424 382.263C340.062 380.33 338.984 378.095 338.192 375.56C337.399 372.993 337.003 370.061 337.003 366.765C337.003 363.533 337.399 360.648 338.192 358.113C338.984 355.546 340.062 353.296 341.424 351.362C342.819 349.429 344.451 347.797 346.321 346.466C348.191 345.103 350.203 344.01 352.359 343.186C354.545 342.33 356.827 341.712 359.204 341.332C361.581 340.951 363.958 340.761 366.335 340.761C370.297 340.761 373.973 341.205 377.364 342.092C380.787 342.98 383.751 344.437 386.254 346.466C388.758 348.494 390.723 351.156 392.149 354.452C393.575 357.749 394.288 361.789 394.288 366.575V369.237C394.288 369.808 394.146 370.251 393.861 370.568C393.575 370.885 393.1 371.044 392.434 371.044H372.753C373.007 373.389 373.45 375.354 374.084 376.939C374.75 378.492 375.494 379.744 376.319 380.694C377.174 381.613 378.093 382.263 379.076 382.643C380.058 383.024 381.009 383.214 381.928 383.214ZM387.538 365.196C387.538 362.661 387.332 360.569 386.92 358.921C386.54 357.241 386.017 355.91 385.351 354.928C384.685 353.914 383.893 353.201 382.974 352.789C382.087 352.377 381.152 352.171 380.169 352.171C379.44 352.171 378.648 352.313 377.792 352.598C376.937 352.884 376.128 353.486 375.368 354.405C374.639 355.324 374.005 356.639 373.466 358.351C372.959 360.062 372.658 362.344 372.563 365.196H387.538ZM401.229 349.033C401.229 347.955 401.324 347.005 401.514 346.181C401.705 345.325 402.069 344.628 402.608 344.089C403.147 343.55 403.891 343.138 404.842 342.853C405.793 342.568 407.029 342.425 408.55 342.425H429.373C430.831 342.425 432.003 342.568 432.891 342.853C433.81 343.106 434.523 343.503 435.03 344.041C435.537 344.58 435.87 345.261 436.028 346.086C436.187 346.91 436.266 347.892 436.266 349.033V384.593C436.266 385.67 436.187 386.621 436.028 387.445C435.87 388.237 435.537 388.919 435.03 389.489C434.523 390.028 433.81 390.44 432.891 390.725C432.003 390.979 430.831 391.105 429.373 391.105H408.55C407.029 391.105 405.793 390.963 404.842 390.678C403.891 390.392 403.147 389.98 402.608 389.442C402.069 388.903 401.705 388.221 401.514 387.397C401.324 386.573 401.229 385.607 401.229 384.497V349.033ZM402.988 322.078C402.988 319.891 403.4 317.831 404.224 315.898C405.08 313.965 406.221 312.285 407.647 310.859C409.073 309.433 410.753 308.307 412.686 307.483C414.62 306.628 416.68 306.2 418.866 306.2C421.022 306.2 423.05 306.628 424.951 307.483C426.885 308.307 428.564 309.433 429.991 310.859C431.417 312.285 432.542 313.965 433.366 315.898C434.222 317.831 434.65 319.891 434.65 322.078C434.65 324.233 434.222 326.277 433.366 328.211C432.542 330.112 431.417 331.776 429.991 333.202C428.564 334.628 426.885 335.769 424.951 336.625C423.05 337.449 421.022 337.861 418.866 337.861C416.68 337.861 414.62 337.449 412.686 336.625C410.753 335.769 409.073 334.628 407.647 333.202C406.221 331.776 405.08 330.112 404.224 328.211C403.4 326.277 402.988 324.233 402.988 322.078ZM441.685 358.018C441.02 358.018 440.687 357.669 440.687 356.972V353.169C440.687 352.503 441.02 352.171 441.685 352.171H446.63V341.379C446.63 340.904 446.693 340.428 446.82 339.953C446.978 339.478 447.374 339.113 448.008 338.86L474.25 329.161C475.454 328.718 476.453 328.385 477.245 328.163C478.037 327.941 478.735 327.83 479.337 327.83C479.559 327.83 479.796 327.878 480.05 327.973C480.335 328.036 480.589 328.163 480.81 328.353C481.064 328.543 481.27 328.813 481.428 329.161C481.587 329.478 481.666 329.875 481.666 330.35V352.171H490.223C490.889 352.171 491.222 352.503 491.222 353.169V356.972C491.222 357.669 490.889 358.018 490.223 358.018H481.666V377.176C481.666 379.427 482.031 381.011 482.76 381.93C483.52 382.849 484.677 383.309 486.23 383.309C486.579 383.309 486.943 383.277 487.323 383.214C487.704 383.119 488.052 383.04 488.369 382.976C488.718 382.881 489.035 382.802 489.32 382.739C489.605 382.643 489.843 382.596 490.033 382.596C490.382 382.596 490.556 382.802 490.556 383.214V386.874C490.556 387.508 490.429 387.936 490.176 388.158C489.922 388.38 489.7 388.522 489.51 388.586C488.306 389.093 486.88 389.6 485.232 390.107C483.615 390.614 481.856 391.058 479.955 391.438C478.085 391.85 476.104 392.167 474.012 392.389C471.921 392.643 469.829 392.769 467.737 392.769C464.726 392.769 461.921 392.611 459.323 392.294C456.755 392.009 454.521 391.327 452.619 390.25C450.75 389.172 449.276 387.572 448.198 385.448C447.152 383.325 446.63 380.441 446.63 376.796V358.018H441.685ZM533.532 379.506C533.532 381.312 533.817 382.643 534.388 383.499C534.99 384.355 536.004 384.783 537.43 384.783C538.159 384.783 538.92 384.624 539.712 384.307C540.536 383.99 541.17 383.689 541.614 383.404V344.659C541.614 344.121 541.724 343.613 541.946 343.138C542.2 342.663 542.739 342.425 543.563 342.425H546.605C546.89 342.425 547.176 342.441 547.461 342.473C547.746 342.504 547.984 342.599 548.174 342.758C548.396 342.885 548.57 343.106 548.697 343.423C548.855 343.709 548.935 344.121 548.935 344.659V388.871C548.935 389.41 548.855 389.838 548.697 390.155C548.57 390.44 548.396 390.662 548.174 390.82C547.984 390.947 547.746 391.026 547.461 391.058C547.176 391.09 546.89 391.105 546.605 391.105H543.563C542.739 391.105 542.2 390.868 541.946 390.392C541.724 389.917 541.614 389.156 541.614 388.11C540.916 388.364 539.934 388.713 538.666 389.156C537.43 389.6 535.861 390.044 533.96 390.487C532.058 390.899 529.808 391.264 527.209 391.581C524.642 391.898 521.694 392.056 518.367 392.056C514.944 392.056 511.981 391.771 509.477 391.201C507.005 390.63 504.945 389.711 503.297 388.443C501.68 387.144 500.476 385.464 499.684 383.404C498.891 381.344 498.495 378.809 498.495 375.798V349.033C498.495 347.955 498.59 347.005 498.78 346.181C498.971 345.325 499.335 344.628 499.874 344.089C500.413 343.55 501.157 343.138 502.108 342.853C503.059 342.568 504.295 342.425 505.816 342.425H526.639C528.477 342.425 529.871 342.694 530.822 343.233C531.773 343.772 532.454 344.437 532.866 345.23C533.278 346.022 533.484 346.878 533.484 347.797C533.516 348.716 533.532 349.556 533.532 350.317V379.506ZM557.729 349.033C557.729 347.955 557.824 347.005 558.015 346.181C558.205 345.325 558.569 344.628 559.108 344.089C559.647 343.55 560.392 343.138 561.342 342.853C562.293 342.568 563.529 342.425 565.051 342.425H585.873C587.331 342.425 588.503 342.568 589.391 342.853C590.278 343.138 590.975 343.566 591.482 344.136C591.99 344.707 592.322 345.42 592.481 346.276C592.671 347.131 592.766 348.13 592.766 349.271V352.789L603.32 342.52C604.017 341.854 604.667 341.522 605.269 341.522C605.618 341.522 605.919 341.601 606.172 341.759C606.457 341.886 606.695 342.045 606.885 342.235L609.025 344.469C609.5 344.945 609.738 345.468 609.738 346.038C609.738 346.387 609.627 346.751 609.405 347.131C609.215 347.48 608.898 347.829 608.454 348.177L592.766 360.347V384.402C592.766 385.512 592.687 386.494 592.528 387.35C592.37 388.174 592.021 388.871 591.482 389.442C590.944 389.98 590.167 390.392 589.153 390.678C588.139 390.963 586.76 391.105 585.017 391.105H565.051C563.529 391.105 562.293 390.963 561.342 390.678C560.392 390.392 559.647 389.98 559.108 389.442C558.569 388.903 558.205 388.221 558.015 387.397C557.824 386.573 557.729 385.607 557.729 384.497V349.033ZM630.465 391.105C628.754 391.105 627.026 390.995 625.283 390.773C623.572 390.551 621.924 390.202 620.339 389.727C618.786 389.22 617.328 388.57 615.965 387.778C614.603 386.985 613.414 386.003 612.4 384.83C611.417 383.658 610.641 382.279 610.07 380.694C609.5 379.11 609.215 377.287 609.215 375.227C609.215 372.47 609.738 370.109 610.784 368.144C611.829 366.179 613.224 364.547 614.967 363.247C616.742 361.948 618.77 360.95 621.052 360.252C623.334 359.555 625.695 359.111 628.135 358.921V355.641C628.135 354.405 627.977 353.422 627.66 352.694C627.343 351.965 626.931 351.426 626.424 351.077C625.949 350.697 625.41 350.459 624.808 350.364C624.237 350.237 623.683 350.174 623.144 350.174C622.51 350.174 621.829 350.269 621.1 350.459C620.402 350.649 619.721 350.887 619.055 351.172C618.39 351.426 617.756 351.711 617.154 352.028C616.552 352.345 616.045 352.63 615.633 352.884C615.442 353.01 615.268 353.121 615.11 353.216C614.951 353.312 614.793 353.359 614.634 353.359C614.349 353.359 614.08 353.153 613.826 352.741L612.21 350.174C612.051 349.952 611.972 349.714 611.972 349.461C611.972 349.207 612.067 348.985 612.257 348.795C612.479 348.605 612.685 348.447 612.875 348.32C613.921 347.591 615.252 346.846 616.869 346.086C618.485 345.325 620.291 344.643 622.288 344.041C624.316 343.439 626.503 342.948 628.849 342.568C631.194 342.187 633.618 341.997 636.122 341.997C638.499 341.997 640.813 342.076 643.063 342.235C645.345 342.393 647.484 342.742 649.481 343.281C651.509 343.788 653.347 344.533 654.995 345.515C656.675 346.466 658.117 347.734 659.321 349.318C660.557 350.903 661.508 352.852 662.174 355.166C662.839 357.479 663.172 360.252 663.172 363.485V384.688C663.172 385.733 663.077 386.668 662.887 387.492C662.697 388.285 662.332 388.95 661.793 389.489C661.255 390.028 660.51 390.44 659.559 390.725C658.608 390.979 657.372 391.105 655.851 391.105H630.465ZM628.135 364.959C625.854 364.959 623.936 365.244 622.383 365.814C620.83 366.385 619.578 367.146 618.628 368.096C617.677 369.047 616.995 370.156 616.583 371.424C616.171 372.66 615.965 373.944 615.965 375.275C615.965 376.606 616.171 377.874 616.583 379.078C616.995 380.251 617.677 381.281 618.628 382.168C619.578 383.055 620.83 383.753 622.383 384.26C623.936 384.767 625.854 385.02 628.135 385.02V364.959Z" fill="#FABDDD"/>
</svg>
