<svg width="585" height="547" viewBox="0 0 585 547" fill="none" xmlns="http://www.w3.org/2000/svg">
<path d="M4.37364 457.494C4.37364 456.385 4.46872 455.418 4.65888 454.594C4.84903 453.77 5.2135 453.089 5.75229 452.55C6.29107 451.98 7.03585 451.552 7.98664 451.267C8.93743 450.981 10.1735 450.839 11.6947 450.839H34.5613C36.9382 450.839 39.2994 451.013 41.6446 451.362C43.9899 451.679 46.2243 452.265 48.3477 453.121C50.4712 453.976 52.4361 455.165 54.2426 456.686C56.0808 458.176 57.6655 460.109 58.9966 462.486C60.3277 464.863 61.3736 467.715 62.1342 471.043C62.8948 474.371 63.2751 478.285 63.2751 482.785C63.2751 488.078 62.8631 492.658 62.0391 496.524C61.2468 500.359 60.1534 503.623 58.7589 506.317C57.3961 509.011 55.7639 511.198 53.8623 512.878C51.9924 514.526 49.9641 515.825 47.7772 516.776C45.6221 517.695 43.3719 518.313 41.0266 518.63C38.713 518.947 36.3994 519.105 34.0859 519.105H11.6947C10.1735 519.105 8.93743 518.963 7.98664 518.678C7.03585 518.392 6.29107 517.98 5.75229 517.442C5.2135 516.903 4.84903 516.221 4.65888 515.397C4.46872 514.573 4.37364 513.607 4.37364 512.497V457.494ZM56.5721 483.784C56.5721 479.854 56.2551 476.272 55.6213 473.04C54.9874 469.807 53.9891 467.05 52.6263 464.768C51.2635 462.486 49.5204 460.711 47.3969 459.443C45.3052 458.176 42.7856 457.526 39.8381 457.494V512.497C42.7856 512.466 45.321 511.705 47.4445 510.216C49.5679 508.694 51.2952 506.634 52.6263 504.035C53.9891 501.437 54.9874 498.41 55.6213 494.955C56.2551 491.469 56.5721 487.745 56.5721 483.784ZM98.1216 520.769C95.7446 520.769 93.3677 520.579 90.9907 520.199C88.6137 519.819 86.3318 519.216 84.145 518.392C81.9899 517.568 79.9774 516.491 78.1075 515.16C76.2376 513.829 74.6054 512.196 73.2109 510.263C71.8481 508.33 70.7705 506.095 69.9782 503.56C69.1859 500.993 68.7897 498.061 68.7897 494.765C68.7897 491.533 69.1859 488.648 69.9782 486.113C70.7705 483.546 71.8481 481.296 73.2109 479.362C74.6054 477.429 76.2376 475.797 78.1075 474.466C79.9774 473.103 81.9899 472.01 84.145 471.186C86.3318 470.33 88.6137 469.712 90.9907 469.332C93.3677 468.951 95.7446 468.761 98.1216 468.761C100.308 468.761 102.543 468.904 104.825 469.189C107.138 469.442 109.373 469.934 111.528 470.663C113.715 471.36 115.759 472.327 117.66 473.563C119.594 474.767 121.273 476.32 122.7 478.221C124.157 480.123 125.298 482.405 126.122 485.067C126.978 487.698 127.406 490.804 127.406 494.385C127.406 498.061 126.994 501.278 126.17 504.035C125.346 506.761 124.205 509.106 122.747 511.071C121.321 513.005 119.657 514.605 117.755 515.873C115.854 517.141 113.81 518.139 111.623 518.868C109.468 519.565 107.233 520.056 104.92 520.341C102.606 520.627 100.34 520.769 98.1216 520.769ZM112.716 509.36C113.699 509.36 114.665 509.154 115.616 508.742C116.599 508.298 117.454 507.522 118.183 506.412C118.944 505.303 119.546 503.782 119.99 501.849C120.465 499.884 120.703 497.396 120.703 494.385C120.703 491.533 120.465 489.187 119.99 487.349C119.546 485.511 118.944 484.069 118.183 483.023C117.423 481.945 116.567 481.201 115.616 480.789C114.665 480.377 113.699 480.171 112.716 480.171C111.956 480.171 111.1 480.329 110.149 480.646C109.23 480.963 108.358 481.644 107.534 482.69C106.742 483.704 106.077 485.178 105.538 487.111C104.999 489.013 104.73 491.564 104.73 494.765C104.73 497.966 104.951 500.533 105.395 502.467C105.839 504.4 106.425 505.874 107.154 506.888C107.883 507.902 108.723 508.568 109.674 508.884C110.656 509.201 111.67 509.36 112.716 509.36ZM167.054 495.05C167.054 498.251 167.387 500.914 168.052 503.037C168.75 505.161 169.621 506.856 170.667 508.124C171.713 509.36 172.838 510.231 174.042 510.739C175.247 511.246 176.372 511.499 177.418 511.499C178.21 511.499 178.939 511.404 179.604 511.214C180.27 510.992 180.856 510.754 181.363 510.501C181.87 510.216 182.298 509.978 182.647 509.788C182.996 509.566 183.265 509.455 183.455 509.455C183.74 509.455 183.93 509.502 184.026 509.598C184.152 509.693 184.295 509.867 184.453 510.12L186.117 512.688C186.276 512.941 186.355 513.163 186.355 513.353C186.355 513.575 186.292 513.749 186.165 513.876C186.038 514.003 185.911 514.114 185.785 514.209C184.739 514.938 183.455 515.714 181.934 516.538C180.413 517.331 178.638 518.06 176.609 518.725C174.613 519.391 172.378 519.945 169.906 520.389C167.434 520.833 164.74 521.055 161.825 521.055C159.448 521.055 157.071 520.864 154.694 520.484C152.317 520.104 150.035 519.486 147.848 518.63C145.693 517.774 143.68 516.681 141.81 515.35C139.941 513.987 138.308 512.355 136.914 510.453C135.551 508.52 134.474 506.286 133.681 503.75C132.889 501.183 132.493 498.283 132.493 495.05C132.493 491.818 132.889 488.934 133.681 486.398C134.474 483.831 135.551 481.597 136.914 479.695C138.308 477.762 139.941 476.13 141.81 474.799C143.68 473.436 145.693 472.327 147.848 471.471C150.035 470.615 152.317 469.997 154.694 469.617C157.071 469.236 159.448 469.046 161.825 469.046C164.423 469.046 166.927 469.252 169.336 469.664C171.745 470.045 173.963 470.568 175.991 471.233C178.051 471.867 179.89 472.58 181.506 473.372C183.154 474.133 184.485 474.894 185.499 475.654C185.626 475.749 185.753 475.86 185.88 475.987C186.006 476.114 186.07 476.288 186.07 476.51C186.07 476.732 185.991 476.954 185.832 477.176L184.168 479.743C184.01 479.996 183.867 480.171 183.74 480.266C183.645 480.361 183.455 480.408 183.17 480.408C182.98 480.408 182.726 480.313 182.409 480.123C182.092 479.933 181.696 479.727 181.221 479.505C180.745 479.251 180.191 479.03 179.557 478.839C178.923 478.618 178.21 478.507 177.418 478.507C176.372 478.507 175.247 478.776 174.042 479.315C172.838 479.822 171.713 480.709 170.667 481.977C169.621 483.245 168.75 484.94 168.052 487.064C167.387 489.187 167.054 491.849 167.054 495.05ZM234.75 511.214C235.606 511.214 236.382 511.103 237.08 510.881C237.777 510.628 238.395 510.358 238.934 510.073C239.504 509.788 239.964 509.534 240.312 509.312C240.693 509.059 240.978 508.932 241.168 508.932C241.453 508.932 241.644 508.98 241.739 509.075C241.865 509.17 242.008 509.344 242.166 509.598L243.83 512.165C243.989 512.418 244.068 512.64 244.068 512.83C244.068 513.052 244.005 513.226 243.878 513.353C243.751 513.48 243.624 513.591 243.498 513.686C242.452 514.415 241.168 515.207 239.647 516.063C238.126 516.887 236.351 517.648 234.322 518.345C232.326 519.042 230.06 519.613 227.524 520.056C224.989 520.532 222.2 520.769 219.157 520.769C216.78 520.769 214.403 520.579 212.026 520.199C209.649 519.819 207.368 519.216 205.181 518.392C203.026 517.568 201.013 516.491 199.143 515.16C197.273 513.829 195.641 512.196 194.247 510.263C192.884 508.33 191.806 506.095 191.014 503.56C190.222 500.993 189.825 498.061 189.825 494.765C189.825 491.533 190.222 488.648 191.014 486.113C191.806 483.546 192.884 481.296 194.247 479.362C195.641 477.429 197.273 475.797 199.143 474.466C201.013 473.103 203.026 472.01 205.181 471.186C207.368 470.33 209.649 469.712 212.026 469.332C214.403 468.951 216.78 468.761 219.157 468.761C223.119 468.761 226.795 469.205 230.186 470.092C233.609 470.98 236.573 472.437 239.076 474.466C241.58 476.494 243.545 479.156 244.971 482.452C246.397 485.749 247.111 489.789 247.111 494.575V497.237C247.111 497.808 246.968 498.251 246.683 498.568C246.397 498.885 245.922 499.044 245.257 499.044H225.575C225.829 501.389 226.272 503.354 226.906 504.939C227.572 506.492 228.317 507.744 229.141 508.694C229.996 509.613 230.915 510.263 231.898 510.643C232.88 511.024 233.831 511.214 234.75 511.214ZM240.36 493.196C240.36 490.661 240.154 488.569 239.742 486.921C239.362 485.241 238.839 483.91 238.173 482.928C237.508 481.914 236.715 481.201 235.796 480.789C234.909 480.377 233.974 480.171 232.991 480.171C232.262 480.171 231.47 480.313 230.614 480.598C229.759 480.884 228.95 481.486 228.19 482.405C227.461 483.324 226.827 484.639 226.288 486.351C225.781 488.062 225.48 490.344 225.385 493.196H240.36Z" fill="#FBF6D8"/>
<path d="M293.498 467.087C293.847 463.632 294.781 460.748 296.303 458.435C297.824 456.121 299.71 454.283 301.96 452.92C304.21 451.526 306.714 450.543 309.471 449.973C312.228 449.402 315.017 449.117 317.838 449.117C320.152 449.117 322.418 449.212 324.636 449.402C326.855 449.592 328.899 449.814 330.769 450.068C332.639 450.321 334.255 450.575 335.618 450.828C336.981 451.082 337.979 451.272 338.613 451.399C338.993 451.494 339.183 451.668 339.183 451.922C339.183 451.985 339.152 452.175 339.088 452.492L338.375 455.915C338.312 456.137 338.217 456.279 338.09 456.343C337.995 456.375 337.9 456.39 337.805 456.39C336.41 456.39 335.206 456.628 334.192 457.104C333.178 457.579 332.338 458.244 331.672 459.1C331.007 459.956 330.5 460.97 330.151 462.143C329.802 463.315 329.565 464.583 329.438 465.946L326.585 500.507C326.332 503.296 325.619 505.927 324.446 508.399C323.273 510.871 321.641 513.026 319.55 514.864C317.458 516.702 314.891 518.16 311.848 519.238C308.806 520.315 305.319 520.854 301.389 520.854C298.759 520.854 296.223 520.727 293.783 520.474C291.343 520.22 289.124 519.919 287.128 519.57C285.131 519.222 283.404 518.889 281.946 518.572C280.52 518.224 279.49 517.97 278.856 517.812C278.475 517.716 278.285 517.542 278.285 517.289C278.285 517.257 278.317 517.083 278.38 516.766L279.188 513.153C279.252 512.931 279.331 512.804 279.426 512.772C279.553 512.709 279.664 512.677 279.759 512.677C281.153 512.677 282.437 512.471 283.61 512.059C284.814 511.647 285.86 510.966 286.747 510.015C287.635 509.064 288.364 507.828 288.934 506.307C289.536 504.786 289.948 502.916 290.17 500.697L293.498 467.087ZM360.434 519C358.722 519 356.995 518.889 355.252 518.667C353.54 518.445 351.892 518.097 350.308 517.621C348.755 517.114 347.297 516.465 345.934 515.672C344.571 514.88 343.383 513.897 342.369 512.725C341.386 511.552 340.61 510.173 340.039 508.589C339.469 507.004 339.183 505.182 339.183 503.122C339.183 500.364 339.706 498.003 340.752 496.038C341.798 494.073 343.193 492.441 344.936 491.142C346.71 489.842 348.739 488.844 351.021 488.147C353.303 487.45 355.664 487.006 358.104 486.816V483.535C358.104 482.299 357.946 481.317 357.629 480.588C357.312 479.859 356.9 479.32 356.393 478.972C355.917 478.591 355.379 478.354 354.776 478.259C354.206 478.132 353.651 478.068 353.112 478.068C352.479 478.068 351.797 478.164 351.068 478.354C350.371 478.544 349.69 478.782 349.024 479.067C348.359 479.32 347.725 479.606 347.122 479.922C346.52 480.239 346.013 480.525 345.601 480.778C345.411 480.905 345.237 481.016 345.078 481.111C344.92 481.206 344.761 481.254 344.603 481.254C344.318 481.254 344.048 481.048 343.795 480.636L342.178 478.068C342.02 477.847 341.941 477.609 341.941 477.355C341.941 477.102 342.036 476.88 342.226 476.69C342.448 476.5 342.654 476.341 342.844 476.214C343.89 475.485 345.221 474.741 346.837 473.98C348.454 473.219 350.26 472.538 352.257 471.936C354.285 471.334 356.472 470.842 358.817 470.462C361.163 470.082 363.587 469.892 366.091 469.892C368.468 469.892 370.781 469.971 373.032 470.129C375.313 470.288 377.453 470.636 379.449 471.175C381.478 471.682 383.316 472.427 384.964 473.41C386.644 474.36 388.086 475.628 389.29 477.213C390.526 478.797 391.477 480.747 392.142 483.06C392.808 485.374 393.141 488.147 393.141 491.38V512.582C393.141 513.628 393.046 514.563 392.856 515.387C392.665 516.179 392.301 516.845 391.762 517.384C391.223 517.922 390.479 518.334 389.528 518.62C388.577 518.873 387.341 519 385.82 519H360.434ZM358.104 492.853C355.822 492.853 353.905 493.138 352.352 493.709C350.799 494.279 349.547 495.04 348.596 495.991C347.645 496.942 346.964 498.051 346.552 499.319C346.14 500.555 345.934 501.838 345.934 503.169C345.934 504.5 346.14 505.768 346.552 506.972C346.964 508.145 347.645 509.175 348.596 510.063C349.547 510.95 350.799 511.647 352.352 512.154C353.905 512.661 355.822 512.915 358.104 512.915V492.853ZM428.463 519.951C424.311 519.951 420.587 519.396 417.291 518.287C413.995 517.178 411.206 515.577 408.924 513.485C406.642 511.362 404.899 508.747 403.695 505.641C402.49 502.535 401.888 498.986 401.888 494.993V447.643C401.888 446.566 401.983 445.615 402.173 444.791C402.363 443.935 402.728 443.238 403.267 442.699C403.805 442.16 404.55 441.748 405.501 441.463C406.452 441.178 407.688 441.035 409.209 441.035H430.031C431.394 441.035 432.519 441.178 433.407 441.463C434.294 441.748 434.991 442.176 435.499 442.747C436.037 443.285 436.402 443.983 436.592 444.838C436.814 445.662 436.925 446.645 436.925 447.786V470.32C439.714 470.827 442.36 471.651 444.864 472.792C447.399 473.901 449.618 475.438 451.519 477.403C453.421 479.336 454.926 481.729 456.036 484.581C457.145 487.434 457.699 490.857 457.699 494.85C457.699 498.178 457.303 501.109 456.511 503.645C455.75 506.148 454.673 508.335 453.278 510.205C451.916 512.075 450.299 513.628 448.429 514.864C446.591 516.1 444.579 517.098 442.392 517.859C440.237 518.62 437.971 519.158 435.594 519.475C433.217 519.792 430.84 519.951 428.463 519.951ZM436.925 513.2C439.397 512.883 441.52 512.218 443.295 511.204C445.07 510.158 446.512 508.827 447.621 507.21C448.762 505.594 449.602 503.74 450.141 501.648C450.679 499.556 450.949 497.29 450.949 494.85C450.949 492.441 450.679 490.175 450.141 488.052C449.602 485.928 448.762 484.058 447.621 482.442C446.48 480.826 445.022 479.495 443.247 478.449C441.504 477.403 439.397 476.721 436.925 476.405V513.2ZM492.118 520.664C489.741 520.664 487.364 520.474 484.987 520.093C482.61 519.713 480.328 519.111 478.141 518.287C475.986 517.463 473.974 516.385 472.104 515.054C470.234 513.723 468.602 512.091 467.207 510.158C465.845 508.224 464.767 505.99 463.975 503.455C463.182 500.887 462.786 497.956 462.786 494.66C462.786 491.427 463.182 488.543 463.975 486.008C464.767 483.44 465.845 481.19 467.207 479.257C468.602 477.324 470.234 475.691 472.104 474.36C473.974 472.998 475.986 471.904 478.141 471.08C480.328 470.224 482.61 469.606 484.987 469.226C487.364 468.846 489.741 468.656 492.118 468.656C494.305 468.656 496.539 468.798 498.821 469.083C501.135 469.337 503.369 469.828 505.524 470.557C507.711 471.254 509.755 472.221 511.657 473.457C513.59 474.661 515.27 476.214 516.696 478.116C518.154 480.018 519.295 482.299 520.119 484.962C520.975 487.592 521.402 490.698 521.402 494.279C521.402 497.956 520.99 501.173 520.166 503.93C519.342 506.656 518.201 509.001 516.744 510.966C515.317 512.899 513.654 514.5 511.752 515.767C509.85 517.035 507.806 518.033 505.619 518.762C503.464 519.46 501.23 519.951 498.916 520.236C496.603 520.521 494.337 520.664 492.118 520.664ZM506.713 509.254C507.695 509.254 508.662 509.048 509.613 508.636C510.595 508.193 511.451 507.416 512.18 506.307C512.94 505.198 513.543 503.676 513.986 501.743C514.462 499.778 514.699 497.29 514.699 494.279C514.699 491.427 514.462 489.082 513.986 487.244C513.543 485.405 512.94 483.963 512.18 482.917C511.419 481.84 510.563 481.095 509.613 480.683C508.662 480.271 507.695 480.065 506.713 480.065C505.952 480.065 505.096 480.224 504.146 480.541C503.227 480.857 502.355 481.539 501.531 482.585C500.739 483.599 500.073 485.073 499.534 487.006C498.996 488.907 498.726 491.459 498.726 494.66C498.726 497.861 498.948 500.428 499.392 502.361C499.835 504.294 500.422 505.768 501.151 506.782C501.88 507.797 502.719 508.462 503.67 508.779C504.653 509.096 505.667 509.254 506.713 509.254ZM528.343 476.928C528.343 475.85 528.438 474.899 528.628 474.075C528.819 473.219 529.183 472.522 529.722 471.983C530.261 471.445 531.005 471.033 531.956 470.747C532.907 470.462 534.143 470.32 535.664 470.32H556.487C557.945 470.32 559.117 470.462 560.005 470.747C560.892 471.033 561.589 471.46 562.096 472.031C562.603 472.601 562.936 473.314 563.095 474.17C563.285 475.026 563.38 476.024 563.38 477.165V480.683L573.934 470.415C574.631 469.749 575.281 469.416 575.883 469.416C576.231 469.416 576.532 469.495 576.786 469.654C577.071 469.781 577.309 469.939 577.499 470.129L579.638 472.364C580.114 472.839 580.352 473.362 580.352 473.933C580.352 474.281 580.241 474.646 580.019 475.026C579.829 475.375 579.512 475.723 579.068 476.072L563.38 488.242V512.297C563.38 513.406 563.301 514.389 563.142 515.244C562.984 516.068 562.635 516.766 562.096 517.336C561.558 517.875 560.781 518.287 559.767 518.572C558.753 518.857 557.374 519 555.631 519H535.664C534.143 519 532.907 518.857 531.956 518.572C531.005 518.287 530.261 517.875 529.722 517.336C529.183 516.797 528.819 516.116 528.628 515.292C528.438 514.468 528.343 513.501 528.343 512.392V476.928Z" fill="#FABDDD"/>
<path fill-rule="evenodd" clip-rule="evenodd" d="M174.53 225.427C174.529 225.291 174.529 225.155 174.529 225.019C174.529 190.48 193.206 162.484 216.244 162.488C234.404 162.492 249.853 179.89 255.582 204.172H230.171C208.794 204.172 189.295 212.21 174.53 225.427Z" fill="#5C311E"/>
<path fill-rule="evenodd" clip-rule="evenodd" d="M410.276 225.42C410.276 225.284 410.277 225.147 410.277 225.011C410.277 190.472 391.6 162.476 368.561 162.48C350.402 162.484 334.953 179.882 329.223 204.164H354.634C376.011 204.164 395.511 212.202 410.276 225.42Z" fill="#5C311E"/>
<rect x="146.719" y="203.172" width="292.007" height="194.562" rx="83.4523" fill="#5C311E"/>
<path fill-rule="evenodd" clip-rule="evenodd" d="M146.719 298.646V317.755C146.719 363.845 184.082 401.208 230.171 401.208H355.273C401.363 401.208 438.726 363.845 438.726 317.755V298.646C438.726 344.736 401.363 382.099 355.273 382.099H230.171C184.082 382.099 146.719 344.736 146.719 298.646Z" fill="#441F10"/>
<ellipse cx="234.366" cy="269.184" rx="26.8124" ry="24.3203" fill="#FBF6D8"/>
<path d="M377.891 269.184C377.891 282.615 365.887 293.504 351.079 293.504C336.271 293.504 324.266 282.615 324.266 269.184C324.266 255.752 336.271 244.863 351.079 244.863C365.914 244.925 377.913 255.801 377.891 269.184Z" fill="#FABDDD"/>
<path fill-rule="evenodd" clip-rule="evenodd" d="M260.561 274.395C260.965 272.716 261.178 270.972 261.178 269.184C261.178 255.752 249.174 244.863 234.366 244.863C219.558 244.863 207.553 255.752 207.553 269.184C207.553 270.972 207.766 272.716 208.171 274.395C210.801 263.468 221.53 255.286 234.366 255.286C247.202 255.286 257.931 263.468 260.561 274.395Z" fill="#441F10"/>
<path fill-rule="evenodd" clip-rule="evenodd" d="M377.271 274.395C377.677 272.716 377.891 270.972 377.891 269.184C377.891 255.752 365.829 244.863 350.95 244.863C336.071 244.863 324.009 255.752 324.009 269.184C324.009 270.972 324.223 272.716 324.629 274.395C327.272 263.468 338.052 255.286 350.95 255.286C363.847 255.286 374.628 263.468 377.271 274.395Z" fill="#441F10"/>
<path d="M293.664 183.398C290.458 172.544 300.208 147.086 305.483 135.713L285.71 118.671C281.457 114.883 274.852 101.506 282.454 78.3026C290.056 55.0991 314.557 48.2507 325.857 47.7269C328.518 38.3152 342.506 20.387 377.169 23.9677C411.832 27.5484 421.076 58.4967 421.365 73.5233C429.156 67.2857 442.457 67.1915 448.133 67.9241C460.887 70.2714 487.157 84.7663 490.204 123.968C493.25 163.169 459.059 175.604 441.582 176.922C438.268 190.909 428.85 219.913 417.695 224.034C403.752 229.186 297.671 196.966 293.664 183.398Z" fill="#FABDDD"/>
<path d="M305.483 135.713C300.208 147.086 290.458 172.544 293.664 183.398C297.671 196.966 403.752 229.186 417.695 224.034C428.85 219.913 438.268 190.909 441.582 176.922M305.483 135.713L285.71 118.671C281.457 114.883 274.852 101.506 282.454 78.3026C290.056 55.0991 314.557 48.2507 325.857 47.7269M305.483 135.713C307.862 137.479 314.453 141.611 321.78 144.012M441.582 176.922C459.059 175.604 493.25 163.169 490.204 123.968C487.157 84.7663 460.887 70.2714 448.133 67.9241C442.457 67.1915 429.156 67.2857 421.365 73.5233M441.582 176.922C433.081 178.363 411.956 179.894 395.469 174.493M441.582 176.922C434.969 175.178 420.738 168.826 416.716 157.366M421.365 73.5233C421.076 58.4967 411.832 27.5484 377.169 23.9677C342.506 20.387 328.518 38.3152 325.857 47.7269M421.365 73.5233C423.462 77.8728 426.877 88.4301 423.766 95.8628M325.857 47.7269C332.292 47.863 347.794 51.1951 358.322 63.4343" stroke="#F09EC9" stroke-width="8.03193" stroke-linecap="round" stroke-linejoin="round"/>
<path d="M443.585 255.317C445.123 252.382 448.749 251.249 451.685 252.787L455.619 254.849C458.554 256.387 459.686 260.013 458.148 262.948L380.175 411.757C378.637 414.692 375.011 415.825 372.076 414.287L368.142 412.226C365.207 410.688 364.074 407.061 365.612 404.126L443.585 255.317Z" fill="#FBF6D8"/>
<path d="M496.052 235.77C480.418 270.064 448.942 269.383 449.466 259.498C435.501 251.655 433.717 228.316 445.481 207.369C458.539 190.739 478.103 175.799 492.067 183.642C504.245 194.774 507.816 214.823 496.052 235.77Z" fill="#FBF6D8"/>
<g filter="url(#filter0_i_600_113)">
<path d="M485.947 232.269C474.892 256.519 462.88 254.593 453.005 249.047C443.13 243.501 441.869 226.998 450.187 212.185C459.421 200.426 473.405 186.479 483.28 192.025C491.89 199.897 494.266 217.456 485.947 232.269Z" fill="#FBF6D8"/>
</g>
<defs>
<filter id="filter0_i_600_113" x="444.688" y="190.771" width="46.4131" height="61.8047" filterUnits="userSpaceOnUse" color-interpolation-filters="sRGB">
<feFlood flood-opacity="0" result="BackgroundImageFix"/>
<feBlend mode="normal" in="SourceGraphic" in2="BackgroundImageFix" result="shape"/>
<feColorMatrix in="SourceAlpha" type="matrix" values="0 0 0 0 0 0 0 0 0 0 0 0 0 0 0 0 0 0 127 0" result="hardAlpha"/>
<feOffset dx="7" dy="-4"/>
<feComposite in2="hardAlpha" operator="arithmetic" k2="-1" k3="1"/>
<feColorMatrix type="matrix" values="0 0 0 0 0.91 0 0 0 0 0.884 0 0 0 0 0.728 0 0 0 1 0"/>
<feBlend mode="normal" in2="shape" result="effect1_innerShadow_600_113"/>
</filter>
</defs>
</svg>
