<svg width="670" height="428" viewBox="0 0 670 428" fill="none" xmlns="http://www.w3.org/2000/svg">
<path fill-rule="evenodd" clip-rule="evenodd" d="M216.809 109.982C216.808 109.828 216.808 109.673 216.808 109.519C216.808 75.0684 235.484 47.1443 258.522 47.1484C276.681 47.1517 292.129 64.5046 297.859 88.7246H272.452C251.075 88.7246 231.574 96.7629 216.809 109.982Z" fill="#5C311E"/>
<path fill-rule="evenodd" clip-rule="evenodd" d="M452.552 109.974C452.553 109.82 452.553 109.665 452.553 109.511C452.553 75.0606 433.877 47.1365 410.839 47.1406C392.681 47.1439 377.232 64.4968 371.502 88.7168H396.909C418.287 88.7168 437.787 96.755 452.552 109.974Z" fill="#5C311E"/>
<rect x="189" y="87.7285" width="292" height="194.064" rx="83.4523" fill="#5C311E"/>
<path fill-rule="evenodd" clip-rule="evenodd" d="M189 182.744V201.805C189 247.895 226.363 285.258 272.452 285.258H397.548C443.637 285.258 481 247.895 481 201.805V182.744C481 228.834 443.637 266.196 397.548 266.196H272.452C226.363 266.196 189 228.834 189 182.744Z" fill="#441F10"/>
<ellipse cx="276.646" cy="153.571" rx="26.8117" ry="24.258" fill="#FBF6D8"/>
<path d="M420.168 153.571C420.168 166.968 408.164 177.829 393.357 177.829C378.549 177.829 366.545 166.968 366.545 153.571C366.545 140.173 378.549 129.312 393.357 129.312C408.191 129.374 420.19 140.223 420.168 153.571Z" fill="#FABDDD"/>
<path fill-rule="evenodd" clip-rule="evenodd" d="M302.84 158.769C303.244 157.094 303.457 155.355 303.457 153.571C303.457 140.173 291.453 129.312 276.646 129.312C261.838 129.312 249.834 140.173 249.834 153.571C249.834 155.355 250.047 157.094 250.451 158.769C253.081 147.87 263.81 139.71 276.646 139.71C289.481 139.71 300.21 147.87 302.84 158.769Z" fill="#441F10"/>
<path fill-rule="evenodd" clip-rule="evenodd" d="M419.546 158.769C419.952 157.094 420.166 155.355 420.166 153.571C420.166 140.173 408.105 129.312 393.226 129.312C378.347 129.312 366.285 140.173 366.285 153.571C366.285 155.355 366.499 157.094 366.905 158.769C369.548 147.87 380.329 139.71 393.226 139.71C406.123 139.71 416.903 147.87 419.546 158.769Z" fill="#441F10"/>
<path d="M4.37364 338.727C4.37364 337.617 4.46872 336.651 4.65888 335.827C4.84903 335.003 5.2135 334.321 5.75229 333.783C6.29107 333.212 7.03585 332.784 7.98664 332.499C8.93743 332.214 10.1735 332.071 11.6947 332.071H34.5613C36.9382 332.071 39.2994 332.245 41.6446 332.594C43.9899 332.911 46.2243 333.497 48.3477 334.353C50.4712 335.209 52.4361 336.397 54.2426 337.918C56.0808 339.408 57.6655 341.341 58.9966 343.718C60.3277 346.095 61.3736 348.948 62.1342 352.275C62.8948 355.603 63.2751 359.517 63.2751 364.018C63.2751 369.31 62.8631 373.89 62.0391 377.757C61.2468 381.591 60.1534 384.856 58.7589 387.55C57.3961 390.244 55.7639 392.43 53.8623 394.11C51.9924 395.758 49.9641 397.058 47.7772 398.008C45.6221 398.928 43.3719 399.546 41.0266 399.862C38.713 400.179 36.3994 400.338 34.0859 400.338H11.6947C10.1735 400.338 8.93743 400.195 7.98664 399.91C7.03585 399.625 6.29107 399.213 5.75229 398.674C5.2135 398.135 4.84903 397.454 4.65888 396.63C4.46872 395.806 4.37364 394.839 4.37364 393.73V338.727ZM56.5721 365.016C56.5721 361.086 56.2551 357.505 55.6213 354.272C54.9874 351.039 53.9891 348.282 52.6263 346C51.2635 343.718 49.5204 341.943 47.3969 340.676C45.3052 339.408 42.7856 338.758 39.8381 338.727V393.73C42.7856 393.698 45.321 392.938 47.4445 391.448C49.5679 389.927 51.2952 387.867 52.6263 385.268C53.9891 382.669 54.9874 379.642 55.6213 376.188C56.2551 372.702 56.5721 368.978 56.5721 365.016ZM98.1216 402.002C95.7446 402.002 93.3677 401.812 90.9907 401.431C88.6137 401.051 86.3318 400.449 84.145 399.625C81.9899 398.801 79.9774 397.723 78.1075 396.392C76.2376 395.061 74.6054 393.429 73.2109 391.496C71.8481 389.562 70.7705 387.328 69.9782 384.792C69.1859 382.225 68.7897 379.294 68.7897 375.998C68.7897 372.765 69.1859 369.881 69.9782 367.345C70.7705 364.778 71.8481 362.528 73.2109 360.595C74.6054 358.662 76.2376 357.029 78.1075 355.698C79.9774 354.335 81.9899 353.242 84.145 352.418C86.3318 351.562 88.6137 350.944 90.9907 350.564C93.3677 350.184 95.7446 349.994 98.1216 349.994C100.308 349.994 102.543 350.136 104.825 350.421C107.138 350.675 109.373 351.166 111.528 351.895C113.715 352.592 115.759 353.559 117.66 354.795C119.594 355.999 121.273 357.552 122.7 359.454C124.157 361.355 125.298 363.637 126.122 366.3C126.978 368.93 127.406 372.036 127.406 375.617C127.406 379.294 126.994 382.511 126.17 385.268C125.346 387.993 124.205 390.339 122.747 392.304C121.321 394.237 119.657 395.837 117.755 397.105C115.854 398.373 113.81 399.371 111.623 400.1C109.468 400.797 107.233 401.289 104.92 401.574C102.606 401.859 100.34 402.002 98.1216 402.002ZM112.716 390.592C113.699 390.592 114.665 390.386 115.616 389.974C116.599 389.531 117.454 388.754 118.183 387.645C118.944 386.536 119.546 385.014 119.99 383.081C120.465 381.116 120.703 378.628 120.703 375.617C120.703 372.765 120.465 370.42 119.99 368.581C119.546 366.743 118.944 365.301 118.183 364.255C117.423 363.178 116.567 362.433 115.616 362.021C114.665 361.609 113.699 361.403 112.716 361.403C111.956 361.403 111.1 361.561 110.149 361.878C109.23 362.195 108.358 362.877 107.534 363.923C106.742 364.937 106.077 366.411 105.538 368.344C104.999 370.245 104.73 372.797 104.73 375.998C104.73 379.199 104.951 381.766 105.395 383.699C105.839 385.632 106.425 387.106 107.154 388.12C107.883 389.134 108.723 389.8 109.674 390.117C110.656 390.434 111.67 390.592 112.716 390.592ZM167.054 376.283C167.054 379.484 167.387 382.146 168.052 384.27C168.75 386.393 169.621 388.089 170.667 389.356C171.713 390.592 172.838 391.464 174.042 391.971C175.247 392.478 176.372 392.732 177.418 392.732C178.21 392.732 178.939 392.636 179.604 392.446C180.27 392.224 180.856 391.987 181.363 391.733C181.87 391.448 182.298 391.21 182.647 391.02C182.996 390.798 183.265 390.687 183.455 390.687C183.74 390.687 183.93 390.735 184.026 390.83C184.152 390.925 184.295 391.099 184.453 391.353L186.117 393.92C186.276 394.174 186.355 394.395 186.355 394.586C186.355 394.807 186.292 394.982 186.165 395.109C186.038 395.235 185.911 395.346 185.785 395.441C184.739 396.17 183.455 396.947 181.934 397.771C180.413 398.563 178.638 399.292 176.609 399.958C174.613 400.623 172.378 401.178 169.906 401.621C167.434 402.065 164.74 402.287 161.825 402.287C159.448 402.287 157.071 402.097 154.694 401.717C152.317 401.336 150.035 400.718 147.848 399.862C145.693 399.007 143.68 397.913 141.81 396.582C139.941 395.219 138.308 393.587 136.914 391.686C135.551 389.752 134.474 387.518 133.681 384.983C132.889 382.415 132.493 379.516 132.493 376.283C132.493 373.05 132.889 370.166 133.681 367.631C134.474 365.064 135.551 362.829 136.914 360.928C138.308 358.994 139.941 357.362 141.81 356.031C143.68 354.668 145.693 353.559 147.848 352.703C150.035 351.848 152.317 351.23 154.694 350.849C157.071 350.469 159.448 350.279 161.825 350.279C164.423 350.279 166.927 350.485 169.336 350.897C171.745 351.277 173.963 351.8 175.991 352.466C178.051 353.099 179.89 353.813 181.506 354.605C183.154 355.365 184.485 356.126 185.499 356.887C185.626 356.982 185.753 357.093 185.88 357.22C186.006 357.346 186.07 357.521 186.07 357.742C186.07 357.964 185.991 358.186 185.832 358.408L184.168 360.975C184.01 361.229 183.867 361.403 183.74 361.498C183.645 361.593 183.455 361.641 183.17 361.641C182.98 361.641 182.726 361.546 182.409 361.355C182.092 361.165 181.696 360.959 181.221 360.737C180.745 360.484 180.191 360.262 179.557 360.072C178.923 359.85 178.21 359.739 177.418 359.739C176.372 359.739 175.247 360.009 174.042 360.547C172.838 361.054 171.713 361.942 170.667 363.21C169.621 364.477 168.75 366.173 168.052 368.296C167.387 370.42 167.054 373.082 167.054 376.283ZM234.75 392.446C235.606 392.446 236.382 392.335 237.08 392.114C237.777 391.86 238.395 391.591 238.934 391.305C239.504 391.02 239.964 390.767 240.312 390.545C240.693 390.291 240.978 390.164 241.168 390.164C241.453 390.164 241.644 390.212 241.739 390.307C241.865 390.402 242.008 390.576 242.166 390.83L243.83 393.397C243.989 393.651 244.068 393.873 244.068 394.063C244.068 394.285 244.005 394.459 243.878 394.586C243.751 394.712 243.624 394.823 243.498 394.918C242.452 395.647 241.168 396.44 239.647 397.295C238.126 398.119 236.351 398.88 234.322 399.577C232.326 400.275 230.06 400.845 227.524 401.289C224.989 401.764 222.2 402.002 219.157 402.002C216.78 402.002 214.403 401.812 212.026 401.431C209.649 401.051 207.368 400.449 205.181 399.625C203.026 398.801 201.013 397.723 199.143 396.392C197.273 395.061 195.641 393.429 194.247 391.496C192.884 389.562 191.806 387.328 191.014 384.792C190.222 382.225 189.825 379.294 189.825 375.998C189.825 372.765 190.222 369.881 191.014 367.345C191.806 364.778 192.884 362.528 194.247 360.595C195.641 358.662 197.273 357.029 199.143 355.698C201.013 354.335 203.026 353.242 205.181 352.418C207.368 351.562 209.649 350.944 212.026 350.564C214.403 350.184 216.78 349.994 219.157 349.994C223.119 349.994 226.795 350.437 230.186 351.325C233.609 352.212 236.573 353.67 239.076 355.698C241.58 357.727 243.545 360.389 244.971 363.685C246.397 366.981 247.111 371.022 247.111 375.807V378.47C247.111 379.04 246.968 379.484 246.683 379.801C246.397 380.118 245.922 380.276 245.257 380.276H225.575C225.829 382.621 226.272 384.586 226.906 386.171C227.572 387.724 228.317 388.976 229.141 389.927C229.996 390.846 230.915 391.496 231.898 391.876C232.88 392.256 233.831 392.446 234.75 392.446ZM240.36 374.429C240.36 371.893 240.154 369.802 239.742 368.154C239.362 366.474 238.839 365.143 238.173 364.16C237.508 363.146 236.715 362.433 235.796 362.021C234.909 361.609 233.974 361.403 232.991 361.403C232.262 361.403 231.47 361.546 230.614 361.831C229.759 362.116 228.95 362.718 228.19 363.637C227.461 364.556 226.827 365.872 226.288 367.583C225.781 369.295 225.48 371.576 225.385 374.429H240.36Z" fill="#FBF6D8"/>
<path d="M282.374 338.621C282.374 337.512 282.469 336.545 282.659 335.721C282.849 334.897 283.214 334.216 283.752 333.677C284.291 333.107 285.036 332.679 285.987 332.393C286.937 332.108 288.173 331.966 289.695 331.966H310.897C313.084 331.966 315.255 332.108 317.41 332.393C319.565 332.647 321.625 333.091 323.59 333.725C325.587 334.358 327.425 335.182 329.105 336.197C330.816 337.211 332.29 338.479 333.526 340C334.794 341.489 335.776 343.248 336.474 345.277C337.203 347.273 337.567 349.587 337.567 352.217C337.567 356.116 337.028 359.412 335.951 362.106C334.905 364.768 333.479 366.971 331.672 368.714C329.866 370.457 327.758 371.788 325.349 372.707C322.972 373.626 320.469 374.292 317.838 374.704V392.531C317.838 393.26 317.775 394.068 317.648 394.956C317.521 395.843 317.204 396.683 316.697 397.475C316.19 398.236 315.414 398.885 314.368 399.424C313.322 399.963 311.88 400.232 310.042 400.232H289.695C288.173 400.232 286.937 400.09 285.987 399.805C285.036 399.519 284.291 399.107 283.752 398.569C283.214 398.03 282.849 397.348 282.659 396.524C282.469 395.7 282.374 394.734 282.374 393.624V338.621ZM330.864 352.931C330.864 351.029 330.61 349.286 330.103 347.701C329.596 346.085 328.82 344.675 327.774 343.47C326.728 342.266 325.381 341.268 323.733 340.475C322.085 339.683 320.12 339.144 317.838 338.859V368.381C320.12 368.032 322.085 367.398 323.733 366.479C325.381 365.56 326.728 364.419 327.774 363.056C328.82 361.694 329.596 360.157 330.103 358.445C330.61 356.702 330.864 354.864 330.864 352.931ZM343.89 358.16C343.89 357.082 343.985 356.132 344.175 355.308C344.365 354.452 344.73 353.755 345.268 353.216C345.807 352.677 346.552 352.265 347.503 351.98C348.454 351.695 349.69 351.552 351.211 351.552H372.033C373.491 351.552 374.664 351.695 375.551 351.98C376.47 352.233 377.183 352.629 377.69 353.168C378.198 353.707 378.53 354.388 378.689 355.212C378.847 356.036 378.926 357.019 378.926 358.16V393.72C378.926 394.797 378.847 395.748 378.689 396.572C378.53 397.364 378.198 398.046 377.69 398.616C377.183 399.155 376.47 399.567 375.551 399.852C374.664 400.106 373.491 400.232 372.033 400.232H351.211C349.69 400.232 348.454 400.09 347.503 399.805C346.552 399.519 345.807 399.107 345.268 398.569C344.73 398.03 344.365 397.348 344.175 396.524C343.985 395.7 343.89 394.734 343.89 393.624V358.16ZM345.649 331.205C345.649 329.018 346.061 326.958 346.885 325.025C347.741 323.092 348.881 321.412 350.308 319.986C351.734 318.559 353.414 317.434 355.347 316.61C357.28 315.755 359.34 315.327 361.527 315.327C363.682 315.327 365.71 315.755 367.612 316.61C369.545 317.434 371.225 318.559 372.651 319.986C374.077 321.412 375.203 323.092 376.027 325.025C376.882 326.958 377.31 329.018 377.31 331.205C377.31 333.36 376.882 335.404 376.027 337.338C375.203 339.239 374.077 340.903 372.651 342.329C371.225 343.755 369.545 344.896 367.612 345.752C365.71 346.576 363.682 346.988 361.527 346.988C359.34 346.988 357.28 346.576 355.347 345.752C353.414 344.896 351.734 343.755 350.308 342.329C348.881 340.903 347.741 339.239 346.885 337.338C346.061 335.404 345.649 333.36 345.649 331.205ZM387.721 358.16C387.721 357.082 387.816 356.132 388.007 355.308C388.197 354.452 388.561 353.755 389.1 353.216C389.639 352.677 390.383 352.265 391.334 351.98C392.285 351.695 393.521 351.552 395.042 351.552H414.486C415.912 351.552 417.132 351.695 418.147 351.98C419.192 352.265 419.937 352.756 420.381 353.454C420.793 353.168 421.284 352.867 421.855 352.55C422.457 352.202 423.107 351.885 423.804 351.599C424.501 351.314 425.246 351.077 426.038 350.886C426.83 350.696 427.654 350.601 428.51 350.601C431.553 350.601 433.914 351.647 435.594 353.739C437.305 355.83 438.161 358.905 438.161 362.961V397.998C438.161 398.537 438.082 398.965 437.923 399.282C437.796 399.567 437.622 399.789 437.4 399.947C437.21 400.074 436.972 400.153 436.687 400.185C436.402 400.217 436.117 400.232 435.831 400.232H432.789C431.965 400.232 431.426 399.995 431.172 399.519C430.951 399.044 430.84 398.537 430.84 397.998V362.486C430.84 360.68 430.507 359.301 429.841 358.35C429.207 357.399 428.177 356.924 426.751 356.924C426.022 356.924 425.278 357.13 424.517 357.542C423.788 357.922 423.202 358.334 422.758 358.778V393.577C422.758 394.686 422.663 395.653 422.473 396.477C422.283 397.301 421.918 397.998 421.379 398.569C420.84 399.107 420.096 399.519 419.145 399.805C418.194 400.09 416.958 400.232 415.437 400.232H395.042C393.521 400.232 392.285 400.09 391.334 399.805C390.383 399.519 389.639 399.107 389.1 398.569C388.561 398.03 388.197 397.348 388.007 396.524C387.816 395.7 387.721 394.734 387.721 393.624V358.16ZM443.58 367.145C442.915 367.145 442.582 366.796 442.582 366.099V362.296C442.582 361.63 442.915 361.298 443.58 361.298H448.524V350.506C448.524 350.031 448.588 349.555 448.715 349.08C448.873 348.604 449.269 348.24 449.903 347.986L476.145 338.288C477.349 337.845 478.347 337.512 479.14 337.29C479.932 337.068 480.629 336.957 481.232 336.957C481.453 336.957 481.691 337.005 481.945 337.1C482.23 337.163 482.483 337.29 482.705 337.48C482.959 337.67 483.165 337.94 483.323 338.288C483.482 338.605 483.561 339.001 483.561 339.477V361.298H492.118C492.784 361.298 493.116 361.63 493.116 362.296V366.099C493.116 366.796 492.784 367.145 492.118 367.145H483.561V386.303C483.561 388.554 483.925 390.138 484.654 391.057C485.415 391.976 486.572 392.436 488.125 392.436C488.473 392.436 488.838 392.404 489.218 392.341C489.599 392.246 489.947 392.167 490.264 392.103C490.613 392.008 490.93 391.929 491.215 391.865C491.5 391.77 491.738 391.723 491.928 391.723C492.277 391.723 492.451 391.929 492.451 392.341V396.001C492.451 396.635 492.324 397.063 492.071 397.285C491.817 397.507 491.595 397.649 491.405 397.713C490.201 398.22 488.775 398.727 487.126 399.234C485.51 399.741 483.751 400.185 481.85 400.565C479.98 400.977 477.999 401.294 475.907 401.516C473.815 401.77 471.724 401.896 469.632 401.896C466.621 401.896 463.816 401.738 461.217 401.421C458.65 401.136 456.416 400.454 454.514 399.377C452.644 398.299 451.171 396.699 450.093 394.575C449.047 392.452 448.524 389.568 448.524 385.923V367.145H443.58ZM535.427 388.633C535.427 390.439 535.712 391.77 536.282 392.626C536.885 393.482 537.899 393.91 539.325 393.91C540.054 393.91 540.814 393.751 541.607 393.434C542.431 393.117 543.065 392.816 543.508 392.531V353.786C543.508 353.248 543.619 352.74 543.841 352.265C544.095 351.79 544.633 351.552 545.457 351.552H548.5C548.785 351.552 549.07 351.568 549.356 351.599C549.641 351.631 549.879 351.726 550.069 351.885C550.291 352.011 550.465 352.233 550.592 352.55C550.75 352.835 550.829 353.248 550.829 353.786V397.998C550.829 398.537 550.75 398.965 550.592 399.282C550.465 399.567 550.291 399.789 550.069 399.947C549.879 400.074 549.641 400.153 549.356 400.185C549.07 400.217 548.785 400.232 548.5 400.232H545.457C544.633 400.232 544.095 399.995 543.841 399.519C543.619 399.044 543.508 398.283 543.508 397.237C542.811 397.491 541.829 397.84 540.561 398.283C539.325 398.727 537.756 399.171 535.854 399.614C533.953 400.026 531.703 400.391 529.104 400.708C526.537 401.025 523.589 401.183 520.262 401.183C516.839 401.183 513.875 400.898 511.372 400.328C508.9 399.757 506.84 398.838 505.191 397.57C503.575 396.271 502.371 394.591 501.578 392.531C500.786 390.471 500.39 387.936 500.39 384.925V358.16C500.39 357.082 500.485 356.132 500.675 355.308C500.865 354.452 501.23 353.755 501.769 353.216C502.307 352.677 503.052 352.265 504.003 351.98C504.954 351.695 506.19 351.552 507.711 351.552H528.533C530.372 351.552 531.766 351.821 532.717 352.36C533.668 352.899 534.349 353.564 534.761 354.357C535.173 355.149 535.379 356.005 535.379 356.924C535.411 357.843 535.427 358.683 535.427 359.443V388.633ZM559.624 358.16C559.624 357.082 559.719 356.132 559.91 355.308C560.1 354.452 560.464 353.755 561.003 353.216C561.542 352.677 562.286 352.265 563.237 351.98C564.188 351.695 565.424 351.552 566.945 351.552H587.768C589.226 351.552 590.398 351.695 591.286 351.98C592.173 352.265 592.87 352.693 593.377 353.263C593.884 353.834 594.217 354.547 594.376 355.403C594.566 356.258 594.661 357.257 594.661 358.398V361.916L605.215 351.647C605.912 350.981 606.562 350.649 607.164 350.649C607.512 350.649 607.814 350.728 608.067 350.886C608.352 351.013 608.59 351.172 608.78 351.362L610.919 353.596C611.395 354.072 611.633 354.594 611.633 355.165C611.633 355.514 611.522 355.878 611.3 356.258C611.11 356.607 610.793 356.956 610.349 357.304L594.661 369.474V393.529C594.661 394.639 594.582 395.621 594.423 396.477C594.265 397.301 593.916 397.998 593.377 398.569C592.839 399.107 592.062 399.519 591.048 399.805C590.034 400.09 588.655 400.232 586.912 400.232H566.945C565.424 400.232 564.188 400.09 563.237 399.805C562.286 399.519 561.542 399.107 561.003 398.569C560.464 398.03 560.1 397.348 559.91 396.524C559.719 395.7 559.624 394.734 559.624 393.624V358.16ZM632.36 400.232C630.648 400.232 628.921 400.121 627.178 399.9C625.467 399.678 623.819 399.329 622.234 398.854C620.681 398.347 619.223 397.697 617.86 396.905C616.497 396.112 615.309 395.13 614.295 393.957C613.312 392.785 612.536 391.406 611.965 389.821C611.395 388.237 611.11 386.414 611.11 384.354C611.11 381.597 611.633 379.236 612.678 377.271C613.724 375.306 615.119 373.674 616.862 372.374C618.637 371.075 620.665 370.077 622.947 369.379C625.229 368.682 627.59 368.238 630.03 368.048V364.768C630.03 363.532 629.872 362.549 629.555 361.82C629.238 361.092 628.826 360.553 628.319 360.204C627.844 359.824 627.305 359.586 626.703 359.491C626.132 359.364 625.577 359.301 625.039 359.301C624.405 359.301 623.723 359.396 622.995 359.586C622.297 359.776 621.616 360.014 620.95 360.299C620.285 360.553 619.651 360.838 619.049 361.155C618.447 361.472 617.939 361.757 617.527 362.011C617.337 362.137 617.163 362.248 617.005 362.343C616.846 362.438 616.688 362.486 616.529 362.486C616.244 362.486 615.974 362.28 615.721 361.868L614.105 359.301C613.946 359.079 613.867 358.841 613.867 358.588C613.867 358.334 613.962 358.112 614.152 357.922C614.374 357.732 614.58 357.574 614.77 357.447C615.816 356.718 617.147 355.973 618.763 355.212C620.38 354.452 622.186 353.77 624.183 353.168C626.211 352.566 628.398 352.075 630.743 351.695C633.089 351.314 635.513 351.124 638.017 351.124C640.394 351.124 642.708 351.203 644.958 351.362C647.24 351.52 649.379 351.869 651.376 352.408C653.404 352.915 655.242 353.66 656.89 354.642C658.57 355.593 660.012 356.861 661.216 358.445C662.452 360.03 663.403 361.979 664.069 364.293C664.734 366.606 665.067 369.379 665.067 372.612V393.815C665.067 394.86 664.972 395.795 664.782 396.619C664.592 397.412 664.227 398.077 663.688 398.616C663.15 399.155 662.405 399.567 661.454 399.852C660.503 400.106 659.267 400.232 657.746 400.232H632.36ZM630.03 374.086C627.748 374.086 625.831 374.371 624.278 374.941C622.725 375.512 621.473 376.272 620.522 377.223C619.572 378.174 618.89 379.283 618.478 380.551C618.066 381.787 617.86 383.071 617.86 384.402C617.86 385.733 618.066 387.001 618.478 388.205C618.89 389.378 619.572 390.408 620.522 391.295C621.473 392.182 622.725 392.88 624.278 393.387C625.831 393.894 627.748 394.147 630.03 394.147V374.086Z" fill="#FABDDD"/>
<path d="M157.785 116.908L157.79 116.898C161.469 108.803 174.057 86.7841 194.697 64.2246L196.937 61.7751L193.616 61.7128L175.234 61.3682C175.006 61.3304 174.665 61.195 174.424 60.9298C174.223 60.7074 173.943 60.2354 174.121 59.1863C174.199 58.7251 174.473 57.9248 174.955 56.8234C175.423 55.7558 176.039 54.5092 176.729 53.1964C178.109 50.5727 179.751 47.7477 181.005 45.6777C181.244 45.2822 181.585 45.058 181.921 45.0015C186.107 44.2999 195.402 44.3548 206.266 49.4411L207.355 49.9513L208.09 48.9997C211.05 45.164 216.4 39.0227 222.777 33.1391C229.175 27.2363 236.494 21.6987 243.393 18.9418C257.559 13.2814 267.875 12.3541 271.075 12.5549L271.106 12.5569L271.138 12.5575C280.391 12.754 301.057 18.4614 309.484 39.58C313.672 50.0735 312.259 60.2897 309.318 68.7288C306.973 75.457 303.719 80.915 301.588 84.4885C301.186 85.1642 300.823 85.7726 300.514 86.3094C297.102 87.132 293.235 88.1323 289.087 89.3152C257.224 98.4022 223.815 110.646 201.285 135.522C200.633 136.242 199.981 136.981 199.327 137.742C194.343 143.542 190.959 150.443 188.456 157.521L188.035 158.711C184.139 157.706 177.83 155.504 171.813 152.55C168.453 150.9 165.227 149.036 162.583 147.045C159.917 145.037 157.959 142.986 156.981 140.995C154.891 136.74 154.548 131.866 155.024 127.415C155.499 122.968 156.779 119.08 157.785 116.908Z" fill="#FABDDD" stroke="#F09EC9" stroke-width="3"/>
<path d="M450.288 242.747C431.018 279.562 412.33 307.808 407.461 305.268C402.592 302.729 415.589 271.515 434.86 234.7C454.13 197.885 472.377 169.41 477.246 171.949C482.115 174.489 469.559 205.932 450.288 242.747Z" fill="#441F10" stroke="#754029" stroke-width="0.5"/>
<path d="M489.675 173.958C487.048 177.343 483.947 179.813 480.887 181.104C477.828 182.395 474.848 182.494 472.395 181.215C468.206 179.03 466.434 173.241 467.635 166.417C468.684 160.458 472.156 155.106 476.724 151.054C486.839 142.082 497.896 141.628 501.303 141.488C501.546 141.478 501.751 141.47 501.913 141.46C504.254 141.319 505.99 141.256 507.232 141.29C507.853 141.307 508.336 141.349 508.701 141.413C509.076 141.479 509.282 141.561 509.386 141.631C509.456 141.678 509.454 141.699 509.453 141.709C509.453 141.71 509.453 141.71 509.453 141.711C509.454 141.763 509.429 141.891 509.29 142.126C509.012 142.592 508.445 143.222 507.621 144.073C507.37 144.332 507.099 144.608 506.811 144.902C503.374 148.403 497.51 154.375 494.145 163.955C493.955 164.493 493.772 165.032 493.59 165.568C492.564 168.584 491.562 171.526 489.675 173.958Z" fill="#FBF6D8" stroke="#E6D6AE"/>
<path d="M501.858 140.948C500.043 141.057 492.741 140.963 484.613 145.01C486.815 144.66 490.894 144.577 489.6 147.049C488.306 149.521 487.044 152.647 486.575 153.901C486.245 155.602 486.494 158.129 490.122 154.627C493.751 151.125 496.59 150.133 497.556 150.075C497.402 150.369 495.729 152.493 495.035 153.818C493.728 156.315 493.705 157.432 494.068 157.809C494.456 157.824 496.021 157.358 498.89 155.257C506.986 142.471 517.502 140.006 501.858 140.948Z" fill="#5C311E"/>
</svg>
