<svg width="97" height="56" viewBox="0 0 97 56" fill="none" xmlns="http://www.w3.org/2000/svg">
<path d="M1.07984 43.6228C1.07984 43.4757 1.09245 43.3476 1.11766 43.2383C1.14287 43.1291 1.19119 43.0387 1.26262 42.9673C1.33405 42.8917 1.43279 42.835 1.55884 42.7971C1.6849 42.7593 1.84877 42.7404 2.05045 42.7404H5.08203C5.39716 42.7404 5.71019 42.7635 6.02112 42.8097C6.33205 42.8518 6.62828 42.9295 6.90979 43.0429C7.19131 43.1564 7.45182 43.314 7.69132 43.5156C7.93502 43.7131 8.14511 43.9694 8.32159 44.2846C8.49806 44.5997 8.63672 44.9779 8.73756 45.419C8.8384 45.8602 8.88883 46.3791 8.88883 46.9758C8.88883 47.6775 8.8342 48.2846 8.72496 48.7973C8.61991 49.3057 8.47495 49.7385 8.29007 50.0956C8.1094 50.4528 7.89301 50.7427 7.6409 50.9654C7.393 51.1839 7.12408 51.3561 6.83416 51.4822C6.54844 51.604 6.25012 51.686 5.93919 51.728C5.63246 51.77 5.32573 51.791 5.019 51.791H2.05045C1.84877 51.791 1.6849 51.7721 1.55884 51.7343C1.43279 51.6965 1.33405 51.6419 1.26262 51.5704C1.19119 51.499 1.14287 51.4087 1.11766 51.2994C1.09245 51.1902 1.07984 51.062 1.07984 50.9149V43.6228ZM8.00015 47.1081C8.00015 46.5871 7.95813 46.1123 7.8741 45.6837C7.79006 45.2552 7.65771 44.8896 7.47703 44.5871C7.29636 44.2846 7.06526 44.0493 6.78374 43.8812C6.50642 43.7131 6.17238 43.627 5.78162 43.6228V50.9149C6.17238 50.9107 6.50853 50.8099 6.79004 50.6124C7.07156 50.4107 7.30056 50.1376 7.47703 49.7931C7.65771 49.4485 7.79006 49.0473 7.8741 48.5893C7.95813 48.1271 8.00015 47.6334 8.00015 47.1081ZM13.5087 52.0116C13.1935 52.0116 12.8784 51.9864 12.5633 51.936C12.2481 51.8856 11.9456 51.8057 11.6557 51.6965C11.37 51.5872 11.1032 51.4444 10.8553 51.2679C10.6073 51.0914 10.391 50.875 10.2061 50.6187C10.0254 50.3624 9.88254 50.0662 9.7775 49.73C9.67245 49.3897 9.61993 49.001 9.61993 48.5641C9.61993 48.1355 9.67245 47.7531 9.7775 47.417C9.88254 47.0766 10.0254 46.7783 10.2061 46.522C10.391 46.2657 10.6073 46.0493 10.8553 45.8728C11.1032 45.6922 11.37 45.5472 11.6557 45.4379C11.9456 45.3245 12.2481 45.2426 12.5633 45.1921C12.8784 45.1417 13.1935 45.1165 13.5087 45.1165C13.7986 45.1165 14.0948 45.1354 14.3973 45.1732C14.7041 45.2068 15.0003 45.272 15.286 45.3686C15.5759 45.4611 15.8469 45.5892 16.0991 45.7531C16.3554 45.9127 16.5781 46.1186 16.7671 46.3707C16.9604 46.6228 17.1117 46.9254 17.2209 47.2783C17.3344 47.6271 17.3911 48.0388 17.3911 48.5136C17.3911 49.001 17.3365 49.4275 17.2272 49.7931C17.118 50.1544 16.9667 50.4654 16.7734 50.7259C16.5844 50.9822 16.3638 51.1944 16.1117 51.3624C15.8596 51.5305 15.5885 51.6629 15.2986 51.7595C15.0129 51.8519 14.7167 51.9171 14.4099 51.9549C14.1032 51.9927 13.8028 52.0116 13.5087 52.0116ZM15.4436 50.499C15.5738 50.499 15.702 50.4717 15.828 50.417C15.9583 50.3582 16.0717 50.2553 16.1684 50.1082C16.2692 49.9611 16.3491 49.7595 16.4079 49.5032C16.4709 49.2426 16.5024 48.9128 16.5024 48.5136C16.5024 48.1355 16.4709 47.8245 16.4079 47.5808C16.3491 47.3371 16.2692 47.146 16.1684 47.0073C16.0675 46.8644 15.9541 46.7657 15.828 46.7111C15.702 46.6565 15.5738 46.6291 15.4436 46.6291C15.3427 46.6291 15.2293 46.6502 15.1032 46.6922C14.9814 46.7342 14.8658 46.8245 14.7566 46.9632C14.6515 47.0976 14.5633 47.293 14.4919 47.5493C14.4205 47.8014 14.3847 48.1397 14.3847 48.5641C14.3847 48.9884 14.4141 49.3288 14.473 49.5851C14.5318 49.8414 14.6095 50.0368 14.7062 50.1712C14.8028 50.3057 14.9142 50.3939 15.0402 50.4359C15.1705 50.478 15.3049 50.499 15.4436 50.499ZM22.6475 48.6019C22.6475 49.0263 22.6916 49.3792 22.7799 49.6607C22.8723 49.9422 22.9879 50.167 23.1265 50.3351C23.2652 50.499 23.4143 50.6145 23.574 50.6817C23.7337 50.749 23.8828 50.7826 24.0215 50.7826C24.1265 50.7826 24.2232 50.77 24.3114 50.7448C24.3996 50.7154 24.4774 50.6839 24.5446 50.6502C24.6118 50.6124 24.6686 50.5809 24.7148 50.5557C24.761 50.5263 24.7967 50.5116 24.8219 50.5116C24.8597 50.5116 24.8849 50.5179 24.8976 50.5305C24.9144 50.5431 24.9333 50.5662 24.9543 50.5998L25.1749 50.9402C25.1959 50.9738 25.2064 51.0032 25.2064 51.0284C25.2064 51.0578 25.198 51.0809 25.1812 51.0977C25.1644 51.1145 25.1476 51.1292 25.1308 51.1418C24.9921 51.2385 24.8219 51.3414 24.6202 51.4507C24.4186 51.5557 24.1833 51.6524 23.9143 51.7406C23.6496 51.8288 23.3534 51.9024 23.0257 51.9612C22.6979 52.02 22.3408 52.0494 21.9542 52.0494C21.6391 52.0494 21.324 52.0242 21.0088 51.9738C20.6937 51.9234 20.3912 51.8414 20.1012 51.728C19.8155 51.6145 19.5487 51.4696 19.3008 51.2931C19.0529 51.1124 18.8365 50.896 18.6516 50.6439C18.471 50.3876 18.3281 50.0914 18.223 49.7553C18.118 49.4149 18.0655 49.0305 18.0655 48.6019C18.0655 48.1733 18.118 47.7909 18.223 47.4548C18.3281 47.1145 18.471 46.8182 18.6516 46.5661C18.8365 46.3098 19.0529 46.0934 19.3008 45.9169C19.5487 45.7363 19.8155 45.5892 20.1012 45.4758C20.3912 45.3623 20.6937 45.2804 21.0088 45.23C21.324 45.1795 21.6391 45.1543 21.9542 45.1543C22.2988 45.1543 22.6307 45.1816 22.95 45.2363C23.2694 45.2867 23.5635 45.356 23.8324 45.4442C24.1055 45.5283 24.3492 45.6228 24.5635 45.7279C24.782 45.8287 24.9585 45.9296 25.0929 46.0304C25.1097 46.043 25.1265 46.0577 25.1434 46.0745C25.1602 46.0913 25.1686 46.1144 25.1686 46.1438C25.1686 46.1733 25.1581 46.2027 25.1371 46.2321L24.9165 46.5724C24.8955 46.606 24.8765 46.6291 24.8597 46.6418C24.8471 46.6544 24.8219 46.6607 24.7841 46.6607C24.7589 46.6607 24.7253 46.6481 24.6833 46.6228C24.6412 46.5976 24.5887 46.5703 24.5257 46.5409C24.4627 46.5073 24.3891 46.4779 24.3051 46.4527C24.2211 46.4233 24.1265 46.4086 24.0215 46.4086C23.8828 46.4086 23.7337 46.4443 23.574 46.5157C23.4143 46.5829 23.2652 46.7006 23.1265 46.8686C22.9879 47.0367 22.8723 47.2615 22.7799 47.543C22.6916 47.8245 22.6475 48.1775 22.6475 48.6019ZM31.6225 50.7448C31.7359 50.7448 31.8389 50.7301 31.9313 50.7007C32.0237 50.667 32.1057 50.6313 32.1771 50.5935C32.2527 50.5557 32.3137 50.5221 32.3599 50.4927C32.4103 50.4591 32.4481 50.4422 32.4733 50.4422C32.5112 50.4422 32.5364 50.4486 32.549 50.4612C32.5658 50.4738 32.5847 50.4969 32.6057 50.5305L32.8263 50.8708C32.8473 50.9044 32.8578 50.9339 32.8578 50.9591C32.8578 50.9885 32.8494 51.0116 32.8326 51.0284C32.8158 51.0452 32.799 51.0599 32.7822 51.0725C32.6435 51.1692 32.4733 51.2742 32.2717 51.3876C32.07 51.4969 31.8347 51.5977 31.5658 51.6902C31.301 51.7826 31.0006 51.8582 30.6645 51.9171C30.3283 51.9801 29.9586 52.0116 29.5552 52.0116C29.2401 52.0116 28.9249 51.9864 28.6098 51.936C28.2947 51.8856 27.9922 51.8057 27.7022 51.6965C27.4165 51.5872 27.1497 51.4444 26.9018 51.2679C26.6539 51.0914 26.4375 50.875 26.2526 50.6187C26.0719 50.3624 25.9291 50.0662 25.824 49.73C25.719 49.3897 25.6665 49.001 25.6665 48.5641C25.6665 48.1355 25.719 47.7531 25.824 47.417C25.9291 47.0766 26.0719 46.7783 26.2526 46.522C26.4375 46.2657 26.6539 46.0493 26.9018 45.8728C27.1497 45.6922 27.4165 45.5472 27.7022 45.4379C27.9922 45.3245 28.2947 45.2426 28.6098 45.1921C28.9249 45.1417 29.2401 45.1165 29.5552 45.1165C30.0804 45.1165 30.5678 45.1753 31.0174 45.293C31.4712 45.4106 31.8641 45.6039 32.196 45.8728C32.528 46.1417 32.7885 46.4947 32.9775 46.9317C33.1666 47.3687 33.2612 47.9044 33.2612 48.5388V48.8918C33.2612 48.9674 33.2423 49.0263 33.2044 49.0683C33.1666 49.1103 33.1036 49.1313 33.0154 49.1313H30.4061C30.4397 49.4422 30.4985 49.7027 30.5825 49.9128C30.6708 50.1187 30.7695 50.2847 30.8788 50.4107C30.9922 50.5326 31.1141 50.6187 31.2443 50.6691C31.3746 50.7196 31.5006 50.7448 31.6225 50.7448ZM32.3662 48.3561C32.3662 48.0199 32.3389 47.7426 32.2843 47.5241C32.2338 47.3014 32.1645 47.125 32.0763 46.9947C31.988 46.8602 31.883 46.7657 31.7611 46.7111C31.6435 46.6565 31.5195 46.6291 31.3893 46.6291C31.2926 46.6291 31.1876 46.6481 31.0741 46.6859C30.9607 46.7237 30.8536 46.8035 30.7527 46.9254C30.6561 47.0472 30.572 47.2216 30.5006 47.4485C30.4334 47.6754 30.3935 47.9779 30.3809 48.3561H32.3662Z" fill="#FBF6D8"/>
<path d="M46.518 42.8049C46.5978 42.8049 46.6692 42.8301 46.7323 42.8805C46.7953 42.9309 46.8268 43.0276 46.8268 43.1704V51.3891C46.8268 51.7 46.6797 51.8555 46.3856 51.8555H44.1986C44.0599 51.8555 43.9444 51.8282 43.8519 51.7735C43.7637 51.7189 43.6839 51.6559 43.6124 51.5845L40.3855 48.2125C40.4233 48.7588 40.4611 49.2609 40.4989 49.7189C40.5115 49.9164 40.5262 50.1117 40.5431 50.305C40.5599 50.4983 40.5746 50.679 40.5872 50.847C40.5998 51.0151 40.6103 51.1622 40.6187 51.2882C40.6313 51.4143 40.6397 51.5046 40.6439 51.5592C40.6523 51.6307 40.6397 51.6979 40.6061 51.7609C40.5767 51.824 40.5052 51.8555 40.3918 51.8555H39.5977C39.522 51.8555 39.4506 51.8324 39.3834 51.7861C39.3203 51.7357 39.2888 51.6391 39.2888 51.4962V43.2713C39.2888 42.9603 39.4611 42.8049 39.8056 42.8049H41.9359C42.0956 42.8049 42.228 42.8385 42.333 42.9057C42.4423 42.9729 42.5515 43.0612 42.6607 43.1704L45.7301 46.2146C45.6881 45.7146 45.6503 45.2524 45.6167 44.828C45.5999 44.6473 45.5831 44.4667 45.5663 44.286C45.5537 44.1053 45.5411 43.9372 45.5285 43.7818C45.5158 43.6221 45.5032 43.4835 45.4906 43.3658C45.4822 43.2482 45.4759 43.1599 45.4717 43.1011C45.4633 43.0339 45.4759 42.9687 45.5095 42.9057C45.5474 42.8385 45.6314 42.8049 45.7616 42.8049H46.518ZM53.6967 50.8092C53.8101 50.8092 53.9131 50.7945 54.0055 50.7651C54.098 50.7315 54.1799 50.6958 54.2513 50.658C54.3269 50.6201 54.3879 50.5865 54.4341 50.5571C54.4845 50.5235 54.5223 50.5067 54.5475 50.5067C54.5854 50.5067 54.6106 50.513 54.6232 50.5256C54.64 50.5382 54.6589 50.5613 54.6799 50.5949L54.9005 50.9353C54.9215 50.9689 54.932 50.9983 54.932 51.0235C54.932 51.0529 54.9236 51.076 54.9068 51.0928C54.89 51.1097 54.8732 51.1244 54.8564 51.137C54.7177 51.2336 54.5475 51.3387 54.3459 51.4521C54.1442 51.5613 53.9089 51.6622 53.64 51.7546C53.3752 51.8471 53.0748 51.9227 52.7387 51.9815C52.4025 52.0445 52.0328 52.0761 51.6294 52.0761C51.3143 52.0761 50.9991 52.0509 50.684 52.0004C50.3689 51.95 50.0664 51.8702 49.7764 51.7609C49.4907 51.6517 49.2239 51.5088 48.976 51.3323C48.7281 51.1559 48.5117 50.9395 48.3268 50.6832C48.1461 50.4269 48.0033 50.1306 47.8982 49.7945C47.7932 49.4542 47.7407 49.0655 47.7407 48.6285C47.7407 48.1999 47.7932 47.8176 47.8982 47.4814C48.0033 47.1411 48.1461 46.8428 48.3268 46.5865C48.5117 46.3301 48.7281 46.1138 48.976 45.9373C49.2239 45.7566 49.4907 45.6116 49.7764 45.5024C50.0664 45.389 50.3689 45.307 50.684 45.2566C50.9991 45.2062 51.3143 45.181 51.6294 45.181C52.1546 45.181 52.642 45.2398 53.0916 45.3574C53.5454 45.4751 53.9383 45.6684 54.2702 45.9373C54.6022 46.2062 54.8627 46.5591 55.0518 46.9961C55.2408 47.4331 55.3354 47.9688 55.3354 48.6033V48.9563C55.3354 49.0319 55.3165 49.0907 55.2786 49.1327C55.2408 49.1747 55.1778 49.1958 55.0896 49.1958H52.4803C52.5139 49.5067 52.5727 49.7672 52.6567 49.9773C52.745 50.1832 52.8437 50.3491 52.953 50.4752C53.0664 50.597 53.1883 50.6832 53.3185 50.7336C53.4488 50.784 53.5748 50.8092 53.6967 50.8092ZM54.4404 48.4205C54.4404 48.0844 54.4131 47.8071 54.3585 47.5886C54.308 47.3659 54.2387 47.1894 54.1505 47.0592C54.0622 46.9247 53.9572 46.8302 53.8353 46.7755C53.7177 46.7209 53.5937 46.6936 53.4635 46.6936C53.3668 46.6936 53.2618 46.7125 53.1484 46.7503C53.0349 46.7881 52.9278 46.868 52.8269 46.9898C52.7303 47.1117 52.6462 47.286 52.5748 47.5129C52.5076 47.7398 52.4677 48.0424 52.4551 48.4205H54.4404ZM59.8985 51.2252C59.5792 51.2252 59.2619 51.2042 58.9468 51.1622C58.6317 51.116 58.3291 51.0445 58.0392 50.9479C58.035 50.9689 58.0329 50.9899 58.0329 51.0109C58.0329 51.0277 58.0329 51.0466 58.0329 51.0676C58.0329 51.1937 58.0539 51.3113 58.0959 51.4206C58.1379 51.5256 58.2031 51.6181 58.2913 51.6979C58.3838 51.7777 58.5035 51.8408 58.6506 51.887C58.7976 51.9332 58.9762 51.9563 59.1863 51.9563C59.4174 51.9563 59.6317 51.9416 59.8292 51.9122C60.0266 51.887 60.2199 51.8597 60.409 51.8303C60.5981 51.7966 60.7872 51.7672 60.9762 51.742C61.1695 51.7126 61.3733 51.6979 61.5876 51.6979C61.7935 51.6979 61.9952 51.7357 62.1927 51.8114C62.3901 51.8828 62.5645 51.9878 62.7158 52.1265C62.8712 52.2693 62.9952 52.4437 63.0876 52.6496C63.1801 52.8555 63.2263 53.0908 63.2263 53.3555C63.2263 53.5908 63.2032 53.7967 63.157 53.9732C63.1149 54.1496 63.0708 54.3177 63.0246 54.4774C63.0162 54.4984 62.9994 54.5236 62.9742 54.553C62.9532 54.5824 62.9112 54.5971 62.8481 54.5971H62.3817C62.3229 54.5971 62.2851 54.5824 62.2683 54.553C62.2515 54.5278 62.2389 54.5068 62.2305 54.49C62.1506 54.2925 61.8418 54.1938 61.304 54.1938C61.0729 54.1938 60.8439 54.2064 60.617 54.2316C60.3901 54.261 60.159 54.2904 59.9237 54.3198C59.6884 54.3534 59.4426 54.3828 59.1863 54.408C58.9342 54.4375 58.6674 54.4522 58.3859 54.4522C57.9951 54.4522 57.6631 54.387 57.39 54.2568C57.1211 54.1265 56.9026 53.9606 56.7346 53.7589C56.5665 53.5614 56.4446 53.3429 56.369 53.1034C56.2934 52.8639 56.2556 52.637 56.2556 52.4227C56.2556 52.1916 56.2808 51.9815 56.3312 51.7924C56.3858 51.5992 56.4551 51.4248 56.5392 51.2693C56.6232 51.1139 56.7199 50.9752 56.8291 50.8533C56.9383 50.7273 57.0476 50.6138 57.1568 50.513C56.8123 50.2777 56.535 49.971 56.3249 49.5928C56.1148 49.2147 56.0098 48.7504 56.0098 48.1999C56.0098 47.826 56.0623 47.4919 56.1673 47.1978C56.2724 46.8995 56.4152 46.639 56.5959 46.4163C56.7808 46.1894 56.9972 45.9982 57.2451 45.8427C57.493 45.6873 57.7598 45.5612 58.0455 45.4646C58.3354 45.3637 58.638 45.2923 58.9531 45.2503C59.2682 45.2041 59.5834 45.181 59.8985 45.181C60.18 45.181 60.4678 45.1957 60.762 45.2251C61.0561 45.2545 61.3418 45.3091 61.6191 45.389C61.9006 45.4646 62.1653 45.5675 62.4132 45.6978C62.6654 45.828 62.888 45.994 63.0813 46.1957L63.7683 45.4961C63.8145 45.4499 63.8587 45.4163 63.9007 45.3953C63.9469 45.3742 63.9889 45.3637 64.0267 45.3637C64.094 45.3637 64.1549 45.3911 64.2095 45.4457L64.5183 45.7734C64.5688 45.8322 64.594 45.8932 64.594 45.9562C64.594 46.0486 64.5414 46.1327 64.4364 46.2083L63.5225 46.8512C63.6065 47.0318 63.6696 47.2293 63.7116 47.4436C63.7578 47.6579 63.7809 47.8932 63.7809 48.1495C63.7809 48.5781 63.7263 48.952 63.6171 49.2714C63.5078 49.5907 63.3565 49.8638 63.1633 50.0907C62.9742 50.3176 62.7536 50.5046 62.5015 50.6517C62.2494 50.7987 61.9784 50.9143 61.6884 50.9983C61.4027 51.0823 61.1065 51.1412 60.7998 51.1748C60.493 51.2084 60.1926 51.2252 59.8985 51.2252ZM62.0036 47.5066C61.9826 47.4856 61.9721 47.4541 61.9721 47.4121C61.9721 47.3617 61.991 47.3176 62.0288 47.2797L62.4322 46.8638C62.3481 46.8007 62.2557 46.7566 62.1548 46.7314C62.0582 46.7062 61.9595 46.6936 61.8586 46.6936C61.7578 46.6936 61.6443 46.7104 61.5183 46.744C61.3964 46.7734 61.2788 46.8407 61.1653 46.9457C61.0561 47.0507 60.9636 47.2041 60.888 47.4058C60.8124 47.6033 60.7746 47.868 60.7746 48.1999C60.7746 48.5319 60.804 48.7987 60.8628 49.0004C60.9258 49.1979 61.0078 49.3491 61.1086 49.4542C61.2094 49.5592 61.325 49.6285 61.4552 49.6621C61.5855 49.6958 61.72 49.7126 61.8586 49.7126C61.9889 49.7126 62.117 49.6916 62.2431 49.6495C62.3691 49.6033 62.4784 49.5235 62.5708 49.41C62.6675 49.2924 62.7452 49.1348 62.804 48.9373C62.8628 48.7357 62.8922 48.4772 62.8922 48.1621C62.8922 47.847 62.8565 47.5865 62.7851 47.3806L62.3628 47.6768C62.3292 47.6978 62.2956 47.7083 62.262 47.7083C62.2074 47.7083 62.1632 47.6873 62.1296 47.6453L62.0036 47.5066ZM68.5457 52.0761C68.2306 52.0761 67.9155 52.0509 67.6003 52.0004C67.2852 51.95 66.9827 51.8702 66.6927 51.7609C66.407 51.6517 66.1402 51.5088 65.8923 51.3323C65.6444 51.1559 65.428 50.9395 65.2431 50.6832C65.0625 50.4269 64.9196 50.1306 64.8146 49.7945C64.7095 49.4542 64.657 49.0655 64.657 48.6285C64.657 48.1999 64.7095 47.8176 64.8146 47.4814C64.9196 47.1411 65.0625 46.8428 65.2431 46.5865C65.428 46.3301 65.6444 46.1138 65.8923 45.9373C66.1402 45.7566 66.407 45.6116 66.6927 45.5024C66.9827 45.389 67.2852 45.307 67.6003 45.2566C67.9155 45.2062 68.2306 45.181 68.5457 45.181C68.8356 45.181 69.1319 45.1999 69.4344 45.2377C69.7411 45.2713 70.0373 45.3364 70.3231 45.4331C70.613 45.5255 70.884 45.6537 71.1361 45.8175C71.3924 45.9772 71.6151 46.1831 71.8042 46.4352C71.9975 46.6873 72.1487 46.9898 72.258 47.3428C72.3714 47.6915 72.4282 48.1033 72.4282 48.5781C72.4282 49.0655 72.3735 49.492 72.2643 49.8575C72.155 50.2189 72.0038 50.5298 71.8105 50.7903C71.6214 51.0466 71.4008 51.2588 71.1487 51.4269C70.8966 51.595 70.6256 51.7273 70.3357 51.824C70.05 51.9164 69.7537 51.9815 69.447 52.0193C69.1403 52.0572 68.8398 52.0761 68.5457 52.0761ZM70.4806 50.5634C70.6109 50.5634 70.739 50.5361 70.8651 50.4815C70.9954 50.4227 71.1088 50.3197 71.2054 50.1727C71.3063 50.0256 71.3861 49.8239 71.4449 49.5676C71.508 49.3071 71.5395 48.9773 71.5395 48.5781C71.5395 48.1999 71.508 47.889 71.4449 47.6453C71.3861 47.4016 71.3063 47.2104 71.2054 47.0718C71.1046 46.9289 70.9912 46.8302 70.8651 46.7755C70.739 46.7209 70.6109 46.6936 70.4806 46.6936C70.3798 46.6936 70.2663 46.7146 70.1403 46.7566C70.0184 46.7986 69.9029 46.889 69.7936 47.0276C69.6886 47.1621 69.6004 47.3575 69.5289 47.6138C69.4575 47.8659 69.4218 48.2041 69.4218 48.6285C69.4218 49.0529 69.4512 49.3932 69.51 49.6495C69.5689 49.9058 69.6466 50.1012 69.7432 50.2357C69.8399 50.3701 69.9512 50.4584 70.0773 50.5004C70.2075 50.5424 70.342 50.5634 70.4806 50.5634ZM67.7831 44.5129C67.7663 44.5213 67.7516 44.5297 67.739 44.5381C67.7264 44.5465 67.7138 44.5507 67.7012 44.5507C67.6549 44.5507 67.6192 44.5297 67.594 44.4877L67.1717 43.87C67.1465 43.8406 67.1339 43.8112 67.1339 43.7818C67.1339 43.7524 67.1528 43.7209 67.1907 43.6872L69.4218 41.9981C69.4512 41.9729 69.4806 41.9603 69.51 41.9603C69.5394 41.9603 69.571 41.9792 69.6046 42.017L70.1844 42.8364C70.2138 42.87 70.2285 42.9015 70.2285 42.9309C70.2285 42.9687 70.2096 43.0002 70.1718 43.0255L67.7831 44.5129ZM77.6846 48.6663C77.6846 49.0907 77.7287 49.4437 77.8169 49.7252C77.9094 50.0067 78.0249 50.2315 78.1636 50.3996C78.3022 50.5634 78.4514 50.679 78.6111 50.7462C78.7707 50.8134 78.9199 50.847 79.0585 50.847C79.1636 50.847 79.2602 50.8344 79.3485 50.8092C79.4367 50.7798 79.5144 50.7483 79.5817 50.7147C79.6489 50.6769 79.7056 50.6454 79.7518 50.6201C79.7981 50.5907 79.8338 50.576 79.859 50.576C79.8968 50.576 79.922 50.5823 79.9346 50.5949C79.9514 50.6075 79.9703 50.6307 79.9913 50.6643L80.2119 51.0046C80.2329 51.0382 80.2434 51.0676 80.2434 51.0928C80.2434 51.1223 80.235 51.1454 80.2182 51.1622C80.2014 51.179 80.1846 51.1937 80.1678 51.2063C80.0291 51.3029 79.859 51.4059 79.6573 51.5151C79.4556 51.6202 79.2203 51.7168 78.9514 51.805C78.6867 51.8933 78.3905 51.9668 78.0627 52.0256C77.735 52.0845 77.3778 52.1139 76.9913 52.1139C76.6761 52.1139 76.361 52.0887 76.0459 52.0382C75.7307 51.9878 75.4282 51.9059 75.1383 51.7924C74.8526 51.679 74.5858 51.534 74.3379 51.3576C74.09 51.1769 73.8736 50.9605 73.6887 50.7084C73.508 50.4521 73.3651 50.1559 73.2601 49.8197C73.1551 49.4794 73.1025 49.0949 73.1025 48.6663C73.1025 48.2377 73.1551 47.8554 73.2601 47.5192C73.3651 47.1789 73.508 46.8827 73.6887 46.6306C73.8736 46.3743 74.09 46.1579 74.3379 45.9814C74.5858 45.8007 74.8526 45.6537 75.1383 45.5402C75.4282 45.4268 75.7307 45.3448 76.0459 45.2944C76.361 45.244 76.6761 45.2188 76.9913 45.2188C77.3358 45.2188 77.6678 45.2461 77.9871 45.3007C78.3064 45.3511 78.6005 45.4205 78.8695 45.5087C79.1426 45.5927 79.3863 45.6873 79.6006 45.7923C79.8191 45.8932 79.9955 45.994 80.13 46.0948C80.1468 46.1075 80.1636 46.1222 80.1804 46.139C80.1972 46.1558 80.2056 46.1789 80.2056 46.2083C80.2056 46.2377 80.1951 46.2671 80.1741 46.2965L79.9535 46.6369C79.9325 46.6705 79.9136 46.6936 79.8968 46.7062C79.8842 46.7188 79.859 46.7251 79.8212 46.7251C79.796 46.7251 79.7623 46.7125 79.7203 46.6873C79.6783 46.6621 79.6258 46.6348 79.5628 46.6054C79.4997 46.5717 79.4262 46.5423 79.3422 46.5171C79.2581 46.4877 79.1636 46.473 79.0585 46.473C78.9199 46.473 78.7707 46.5087 78.6111 46.5802C78.4514 46.6474 78.3022 46.765 78.1636 46.9331C78.0249 47.1012 77.9094 47.326 77.8169 47.6075C77.7287 47.889 77.6846 48.242 77.6846 48.6663ZM80.9493 46.2776C80.9493 46.1348 80.9619 46.0087 80.9872 45.8995C81.0124 45.786 81.0607 45.6936 81.1321 45.6221C81.2035 45.5507 81.3023 45.4961 81.4283 45.4583C81.5544 45.4205 81.7183 45.4016 81.9199 45.4016H84.6805C84.8738 45.4016 85.0292 45.4205 85.1469 45.4583C85.2688 45.4919 85.3633 45.5444 85.4305 45.6158C85.4977 45.6873 85.5419 45.7776 85.5629 45.8869C85.5839 45.9961 85.5944 46.1264 85.5944 46.2776V50.992C85.5944 51.1349 85.5839 51.2609 85.5629 51.3702C85.5419 51.4752 85.4977 51.5655 85.4305 51.6412C85.3633 51.7126 85.2688 51.7672 85.1469 51.805C85.0292 51.8387 84.8738 51.8555 84.6805 51.8555H81.9199C81.7183 51.8555 81.5544 51.8366 81.4283 51.7987C81.3023 51.7609 81.2035 51.7063 81.1321 51.6349C81.0607 51.5634 81.0124 51.4731 80.9872 51.3639C80.9619 51.2546 80.9493 51.1265 80.9493 50.9794V46.2776ZM81.1825 42.704C81.1825 42.4141 81.2372 42.141 81.3464 41.8847C81.4598 41.6284 81.6111 41.4057 81.8002 41.2166C81.9893 41.0275 82.212 40.8784 82.4683 40.7691C82.7246 40.6557 82.9977 40.5989 83.2876 40.5989C83.5733 40.5989 83.8423 40.6557 84.0944 40.7691C84.3507 40.8784 84.5734 41.0275 84.7624 41.2166C84.9515 41.4057 85.1007 41.6284 85.2099 41.8847C85.3234 42.141 85.3801 42.4141 85.3801 42.704C85.3801 42.9897 85.3234 43.2608 85.2099 43.5171C85.1007 43.7692 84.9515 43.9898 84.7624 44.1788C84.5734 44.3679 84.3507 44.5192 84.0944 44.6326C83.8423 44.7419 83.5733 44.7965 83.2876 44.7965C82.9977 44.7965 82.7246 44.7419 82.4683 44.6326C82.212 44.5192 81.9893 44.3679 81.8002 44.1788C81.6111 43.9898 81.4598 43.7692 81.3464 43.5171C81.2372 43.2608 81.1825 42.9897 81.1825 42.704ZM90.4033 52.0761C90.0882 52.0761 89.773 52.0509 89.4579 52.0004C89.1428 51.95 88.8403 51.8702 88.5503 51.7609C88.2646 51.6517 87.9978 51.5088 87.7499 51.3323C87.502 51.1559 87.2856 50.9395 87.1007 50.6832C86.92 50.4269 86.7772 50.1306 86.6721 49.7945C86.5671 49.4542 86.5146 49.0655 86.5146 48.6285C86.5146 48.1999 86.5671 47.8176 86.6721 47.4814C86.7772 47.1411 86.92 46.8428 87.1007 46.5865C87.2856 46.3301 87.502 46.1138 87.7499 45.9373C87.9978 45.7566 88.2646 45.6116 88.5503 45.5024C88.8403 45.389 89.1428 45.307 89.4579 45.2566C89.773 45.2062 90.0882 45.181 90.4033 45.181C90.6932 45.181 90.9895 45.1999 91.292 45.2377C91.5987 45.2713 91.8949 45.3364 92.1807 45.4331C92.4706 45.5255 92.7416 45.6537 92.9937 45.8175C93.25 45.9772 93.4727 46.1831 93.6618 46.4352C93.8551 46.6873 94.0063 46.9898 94.1156 47.3428C94.229 47.6915 94.2857 48.1033 94.2857 48.5781C94.2857 49.0655 94.2311 49.492 94.1219 49.8575C94.0126 50.2189 93.8614 50.5298 93.6681 50.7903C93.479 51.0466 93.2584 51.2588 93.0063 51.4269C92.7542 51.595 92.4832 51.7273 92.1933 51.824C91.9075 51.9164 91.6113 51.9815 91.3046 52.0193C90.9979 52.0572 90.6974 52.0761 90.4033 52.0761ZM92.3382 50.5634C92.4685 50.5634 92.5966 50.5361 92.7227 50.4815C92.8529 50.4227 92.9664 50.3197 93.063 50.1727C93.1639 50.0256 93.2437 49.8239 93.3025 49.5676C93.3656 49.3071 93.3971 48.9773 93.3971 48.5781C93.3971 48.1999 93.3656 47.889 93.3025 47.6453C93.2437 47.4016 93.1639 47.2104 93.063 47.0718C92.9622 46.9289 92.8487 46.8302 92.7227 46.7755C92.5966 46.7209 92.4685 46.6936 92.3382 46.6936C92.2374 46.6936 92.1239 46.7146 91.9979 46.7566C91.876 46.7986 91.7605 46.889 91.6512 47.0276C91.5462 47.1621 91.458 47.3575 91.3865 47.6138C91.3151 47.8659 91.2794 48.2041 91.2794 48.6285C91.2794 49.0529 91.3088 49.3932 91.3676 49.6495C91.4264 49.9058 91.5042 50.1012 91.6008 50.2357C91.6975 50.3701 91.8088 50.4584 91.9349 50.5004C92.0651 50.5424 92.1996 50.5634 92.3382 50.5634Z" fill="#FABDDD"/>
<path fill-rule="evenodd" clip-rule="evenodd" d="M32.6065 13.1246C32.6065 13.1157 32.6064 13.1068 32.6064 13.0979C32.6064 8.57537 35.129 4.90961 38.2408 4.91016C40.6933 4.91059 42.7798 7.18818 43.5539 10.3672H39.915C37.1137 10.3672 34.5556 11.4083 32.6065 13.1246Z" fill="#5C311E"/>
<path fill-rule="evenodd" clip-rule="evenodd" d="M64.4492 13.1223C64.4492 13.1129 64.4492 13.1034 64.4492 13.094C64.4492 8.57147 61.9266 4.9057 58.8148 4.90625C56.3618 4.90668 54.275 7.18524 53.5013 10.3653H57.1411C59.9422 10.3653 62.5001 11.4062 64.4492 13.1223Z" fill="#5C311E"/>
<rect x="28.8516" y="10.2363" width="39.4407" height="25.476" rx="11.0638" fill="#5C311E"/>
<path fill-rule="evenodd" clip-rule="evenodd" d="M28.8525 22.5977V25.1014C28.8525 31.2118 33.806 36.1653 39.9164 36.1653H57.2294C63.3398 36.1653 68.2932 31.2118 68.2932 25.1014V22.5977C68.2932 28.7081 63.3398 33.6615 57.2294 33.6615H39.9164C33.806 33.6615 28.8525 28.7081 28.8525 22.5977Z" fill="#441F10"/>
<ellipse cx="40.6898" cy="18.8798" rx="3.62148" ry="3.18449" fill="#FBF6D8"/>
<path d="M60.076 18.8798C60.076 20.6386 58.4546 22.0643 56.4545 22.0643C54.4544 22.0643 52.833 20.6386 52.833 18.8798C52.833 17.1211 54.4544 15.6953 56.4545 15.6953C58.4582 15.7033 60.079 17.1276 60.076 18.8798Z" fill="#FABDDD"/>
<path fill-rule="evenodd" clip-rule="evenodd" d="M44.2279 19.5624C44.2825 19.3425 44.3113 19.1141 44.3113 18.8798C44.3113 17.1211 42.6899 15.6953 40.6898 15.6953C38.6898 15.6953 37.0684 17.1211 37.0684 18.8798C37.0684 19.1141 37.0971 19.3425 37.1517 19.5624C37.5071 18.1316 38.9562 17.0604 40.6898 17.0604C42.4235 17.0604 43.8726 18.1316 44.2279 19.5624Z" fill="#441F10"/>
<path fill-rule="evenodd" clip-rule="evenodd" d="M59.9928 19.5643C60.0477 19.3444 60.0766 19.1161 60.0766 18.8818C60.0766 17.123 58.4474 15.6973 56.4377 15.6973C54.428 15.6973 52.7988 17.123 52.7988 18.8818C52.7988 19.1161 52.8277 19.3444 52.8826 19.5643C53.2396 18.1336 54.6957 17.0624 56.4377 17.0624C58.1797 17.0624 59.6358 18.1336 59.9928 19.5643Z" fill="#441F10"/>
<path fill-rule="evenodd" clip-rule="evenodd" d="M32.0938 17.0544C32.3576 17.0758 32.9116 17.3113 33.0171 18.082C33.023 18.1248 33.0294 18.1721 33.0363 18.2237C33.1858 19.333 33.5976 22.389 34.732 23.8618C35.2377 24.1829 36.6843 24.8636 38.4256 25.0178C40.1669 25.1719 42.0092 24.8251 42.7128 24.6325C43.5702 24.2899 45.5093 23.104 46.4064 21.1003C46.6702 20.5651 47.2902 19.2251 47.6595 18.1462C47.9673 17.8037 48.8072 17.3241 49.7042 18.1462C49.99 19.0024 50.6144 20.7921 50.8255 21.1003C50.8534 21.1411 50.8924 21.2107 50.9443 21.3032C51.382 22.0839 52.7336 24.4942 56.036 24.9536C58.9909 25.3646 61.4445 24.4826 62.3019 23.9902C62.5438 23.7548 63.0934 23.0398 63.3572 22.0636C63.6211 21.0875 63.8629 19.7303 63.9508 19.1737C63.9728 18.5101 64.2147 17.1572 65.0061 17.0544L65.1381 14.9994C64.6544 14.9351 63.5815 14.781 63.1594 14.6783C61.0927 14.1217 55.6271 13.4452 50.2978 15.192H47.0659C44.7355 14.5498 39.006 13.5222 34.732 14.5497C33.8526 14.7424 32.0938 15.1149 32.0938 15.0635V17.0544ZM52.0137 15.8672C50.8924 16.5522 49.5733 18.9369 53.2669 22.9956C54.3881 23.9376 57.6068 25.3718 61.5115 23.5736C62.171 23.1883 63.411 21.4672 63.0944 17.6653C62.7778 13.8635 56.6746 14.4544 53.6626 15.2251L52.0137 15.8672ZM46.1435 17.5369C46.2315 19.7846 45.1014 24.3185 39.8777 24.4727C38.1408 24.6012 34.5879 24.203 34.2713 21.5828C33.9548 18.9626 33.9635 17.965 34.0075 17.7938C34.0295 16.8519 34.8386 14.9295 37.899 14.7754C41.7245 14.5828 45.8138 15.2892 46.1435 17.5369ZM63.4902 15.9962C63.4902 15.7394 63.798 15.6323 63.9519 15.6109C64.0838 15.5795 64.6774 15.7394 64.5455 15.932C64.4399 16.0862 64.1937 16.2103 64.0838 16.2531C63.8859 16.2745 63.4902 16.2531 63.4902 15.9962ZM32.7543 15.9962C32.8203 15.9106 33.0182 15.7265 33.282 15.6751C33.5458 15.6238 33.7437 15.8678 33.8096 15.9962C33.8096 16.1033 33.7041 16.3173 33.282 16.3173C32.8599 16.3173 32.7543 16.1033 32.7543 15.9962Z" fill="#441F10"/>
<path fill-rule="evenodd" clip-rule="evenodd" d="M46.7228 31.8478C46.5515 31.6885 46.3538 31.5476 46.1297 31.4308L42.4531 29.5149C42.2658 29.4173 42.0676 29.3424 41.8625 29.2919L41.7246 29.2579C40.1184 28.8618 38.5457 30.0171 38.4434 31.6683L38.3037 33.9213L38.4283 35.8096C38.538 37.4732 40.1375 38.6239 41.7497 38.1991L42.4386 38.0176C42.6365 37.9654 42.8278 37.8905 43.0085 37.7944L46.1497 36.1231C46.3784 36.0014 46.5791 35.8547 46.7519 35.6891C46.919 35.7989 47.1189 35.8628 47.3338 35.8628H49.5348C49.8193 35.8628 50.0776 35.7508 50.2681 35.5684C50.4655 35.7839 50.7055 35.9727 50.9882 36.1231L54.1295 37.7944C54.3102 37.8905 54.5014 37.9654 54.6994 38.0176L55.3883 38.1991C57.0005 38.6239 58.6 37.4732 58.7097 35.8096L58.8343 33.9213L58.6946 31.6683C58.5923 30.0172 57.0196 28.8618 55.4134 29.2579L55.2755 29.2919C55.0704 29.3424 54.8721 29.4173 54.6849 29.5149L51.0083 31.4308C50.7279 31.577 50.4888 31.7608 50.291 31.9712C50.0986 31.7756 49.8309 31.6543 49.5348 31.6543H47.3338C47.1063 31.6543 46.8955 31.7259 46.7228 31.8478Z" fill="#441F10"/>
</svg>
