<svg width="941" height="130" viewBox="0 0 941 130" fill="none" xmlns="http://www.w3.org/2000/svg">
<path d="M672.448 63.32C672.245 62.9467 671.952 62.664 671.568 62.472C671.195 62.2693 670.752 62.168 670.24 62.168C669.355 62.168 668.645 62.4613 668.112 63.048C667.579 63.624 667.312 64.3973 667.312 65.368C667.312 66.4027 667.589 67.2133 668.144 67.8C668.709 68.376 669.483 68.664 670.464 68.664C671.136 68.664 671.701 68.4933 672.16 68.152C672.629 67.8107 672.971 67.32 673.184 66.68H669.712V64.664H675.664V67.208C675.461 67.8907 675.115 68.5253 674.624 69.112C674.144 69.6987 673.531 70.1733 672.784 70.536C672.037 70.8987 671.195 71.08 670.256 71.08C669.147 71.08 668.155 70.84 667.28 70.36C666.416 69.8693 665.739 69.192 665.248 68.328C664.768 67.464 664.528 66.4773 664.528 65.368C664.528 64.2587 664.768 63.272 665.248 62.408C665.739 61.5333 666.416 60.856 667.28 60.376C668.144 59.8853 669.131 59.64 670.24 59.64C671.584 59.64 672.715 59.9653 673.632 60.616C674.56 61.2667 675.173 62.168 675.472 63.32H672.448ZM676.636 66.52C676.636 65.6027 676.806 64.7973 677.148 64.104C677.5 63.4107 677.974 62.8773 678.572 62.504C679.169 62.1307 679.836 61.944 680.572 61.944C681.201 61.944 681.75 62.072 682.22 62.328C682.7 62.584 683.068 62.92 683.324 63.336V62.072H686.06V71H683.324V69.736C683.057 70.152 682.684 70.488 682.204 70.744C681.734 71 681.185 71.128 680.556 71.128C679.83 71.128 679.169 70.9413 678.572 70.568C677.974 70.184 677.5 69.6453 677.148 68.952C676.806 68.248 676.636 67.4373 676.636 66.52ZM683.324 66.536C683.324 65.8533 683.132 65.3147 682.748 64.92C682.374 64.5253 681.916 64.328 681.372 64.328C680.828 64.328 680.364 64.5253 679.98 64.92C679.606 65.304 679.42 65.8373 679.42 66.52C679.42 67.2027 679.606 67.7467 679.98 68.152C680.364 68.5467 680.828 68.744 681.372 68.744C681.916 68.744 682.374 68.5467 682.748 68.152C683.132 67.7573 683.324 67.2187 683.324 66.536ZM690.775 63.56C691.095 63.0693 691.495 62.6853 691.975 62.408C692.455 62.12 692.988 61.976 693.575 61.976V64.872H692.823C692.14 64.872 691.628 65.0213 691.287 65.32C690.946 65.608 690.775 66.12 690.775 66.856V71H688.039V62.072H690.775V63.56ZM694.339 66.52C694.339 65.6027 694.509 64.7973 694.851 64.104C695.203 63.4107 695.677 62.8773 696.275 62.504C696.872 62.1307 697.539 61.944 698.275 61.944C698.904 61.944 699.453 62.072 699.923 62.328C700.403 62.584 700.771 62.92 701.027 63.336V62.072H703.763V71H701.027V69.736C700.76 70.152 700.387 70.488 699.907 70.744C699.437 71 698.888 71.128 698.259 71.128C697.533 71.128 696.872 70.9413 696.275 70.568C695.677 70.184 695.203 69.6453 694.851 68.952C694.509 68.248 694.339 67.4373 694.339 66.52ZM701.027 66.536C701.027 65.8533 700.835 65.3147 700.451 64.92C700.077 64.5253 699.619 64.328 699.075 64.328C698.531 64.328 698.067 64.5253 697.683 64.92C697.309 65.304 697.123 65.8373 697.123 66.52C697.123 67.2027 697.309 67.7467 697.683 68.152C698.067 68.5467 698.531 68.744 699.075 68.744C699.619 68.744 700.077 68.5467 700.451 68.152C700.835 67.7573 701.027 67.2187 701.027 66.536ZM711.182 61.976C712.227 61.976 713.059 62.3173 713.678 63C714.307 63.672 714.622 64.6 714.622 65.784V71H711.902V66.152C711.902 65.5547 711.747 65.0907 711.438 64.76C711.129 64.4293 710.713 64.264 710.19 64.264C709.667 64.264 709.251 64.4293 708.942 64.76C708.633 65.0907 708.478 65.5547 708.478 66.152V71H705.742V62.072H708.478V63.256C708.755 62.8613 709.129 62.552 709.598 62.328C710.067 62.0933 710.595 61.976 711.182 61.976ZM721.499 68.68V71H720.107C719.115 71 718.342 70.76 717.787 70.28C717.233 69.7893 716.955 68.9947 716.955 67.896V64.344H715.867V62.072H716.955V59.896H719.691V62.072H721.483V64.344H719.691V67.928C719.691 68.1947 719.755 68.3867 719.883 68.504C720.011 68.6213 720.225 68.68 720.523 68.68H721.499ZM724.399 61.144C723.919 61.144 723.525 61.0053 723.215 60.728C722.917 60.44 722.767 60.088 722.767 59.672C722.767 59.2453 722.917 58.8933 723.215 58.616C723.525 58.328 723.919 58.184 724.399 58.184C724.869 58.184 725.253 58.328 725.551 58.616C725.861 58.8933 726.015 59.2453 726.015 59.672C726.015 60.088 725.861 60.44 725.551 60.728C725.253 61.0053 724.869 61.144 724.399 61.144ZM725.759 62.072V71H723.023V62.072H725.759ZM739.134 61.976C740.243 61.976 741.123 62.312 741.774 62.984C742.435 63.656 742.766 64.5893 742.766 65.784V71H740.046V66.152C740.046 65.576 739.891 65.1333 739.582 64.824C739.283 64.504 738.867 64.344 738.334 64.344C737.801 64.344 737.379 64.504 737.07 64.824C736.771 65.1333 736.622 65.576 736.622 66.152V71H733.902V66.152C733.902 65.576 733.747 65.1333 733.438 64.824C733.139 64.504 732.723 64.344 732.19 64.344C731.657 64.344 731.235 64.504 730.926 64.824C730.627 65.1333 730.478 65.576 730.478 66.152V71H727.742V62.072H730.478V63.192C730.755 62.8187 731.118 62.5253 731.566 62.312C732.014 62.088 732.521 61.976 733.086 61.976C733.758 61.976 734.355 62.12 734.878 62.408C735.411 62.696 735.827 63.1067 736.126 63.64C736.435 63.1493 736.857 62.7493 737.39 62.44C737.923 62.1307 738.505 61.976 739.134 61.976ZM748.744 71.128C747.869 71.128 747.08 70.9413 746.376 70.568C745.682 70.1947 745.133 69.6613 744.728 68.968C744.333 68.2747 744.136 67.464 744.136 66.536C744.136 65.6187 744.338 64.8133 744.743 64.12C745.149 63.416 745.704 62.8773 746.408 62.504C747.112 62.1307 747.901 61.944 748.776 61.944C749.65 61.944 750.44 62.1307 751.144 62.504C751.848 62.8773 752.402 63.416 752.808 64.12C753.213 64.8133 753.416 65.6187 753.416 66.536C753.416 67.4533 753.208 68.264 752.792 68.968C752.386 69.6613 751.826 70.1947 751.112 70.568C750.408 70.9413 749.618 71.128 748.744 71.128ZM748.744 68.76C749.266 68.76 749.709 68.568 750.072 68.184C750.445 67.8 750.632 67.2507 750.632 66.536C750.632 65.8213 750.45 65.272 750.088 64.888C749.736 64.504 749.298 64.312 748.776 64.312C748.242 64.312 747.8 64.504 747.448 64.888C747.096 65.2613 746.92 65.8107 746.92 66.536C746.92 67.2507 747.09 67.8 747.432 68.184C747.784 68.568 748.221 68.76 748.744 68.76ZM758.499 71.128C757.72 71.128 757.027 70.9947 756.419 70.728C755.811 70.4613 755.331 70.0987 754.979 69.64C754.627 69.1707 754.43 68.648 754.387 68.072H757.091C757.123 68.3813 757.267 68.632 757.523 68.824C757.779 69.016 758.094 69.112 758.467 69.112C758.808 69.112 759.07 69.048 759.251 68.92C759.443 68.7813 759.539 68.6053 759.539 68.392C759.539 68.136 759.406 67.9493 759.139 67.832C758.872 67.704 758.44 67.5653 757.843 67.416C757.203 67.2667 756.67 67.112 756.243 66.952C755.816 66.7813 755.448 66.52 755.139 66.168C754.83 65.8053 754.675 65.32 754.675 64.712C754.675 64.2 754.814 63.736 755.091 63.32C755.379 62.8933 755.795 62.5573 756.339 62.312C756.894 62.0667 757.55 61.944 758.307 61.944C759.427 61.944 760.307 62.2213 760.947 62.776C761.598 63.3307 761.971 64.0667 762.067 64.984H759.539C759.496 64.6747 759.358 64.4293 759.123 64.248C758.899 64.0667 758.6 63.976 758.227 63.976C757.907 63.976 757.662 64.04 757.491 64.168C757.32 64.2853 757.235 64.4507 757.235 64.664C757.235 64.92 757.368 65.112 757.635 65.24C757.912 65.368 758.339 65.496 758.915 65.624C759.576 65.7947 760.115 65.9653 760.531 66.136C760.947 66.296 761.31 66.5627 761.619 66.936C761.939 67.2987 762.104 67.7893 762.115 68.408C762.115 68.9307 761.966 69.4 761.667 69.816C761.379 70.2213 760.958 70.5413 760.403 70.776C759.859 71.0107 759.224 71.128 758.499 71.128ZM766.636 66.52C766.636 65.6027 766.806 64.7973 767.148 64.104C767.5 63.4107 767.974 62.8773 768.572 62.504C769.169 62.1307 769.836 61.944 770.572 61.944C771.201 61.944 771.75 62.072 772.22 62.328C772.7 62.584 773.068 62.92 773.324 63.336V62.072H776.06V71H773.324V69.736C773.057 70.152 772.684 70.488 772.204 70.744C771.734 71 771.185 71.128 770.556 71.128C769.83 71.128 769.169 70.9413 768.572 70.568C767.974 70.184 767.5 69.6453 767.148 68.952C766.806 68.248 766.636 67.4373 766.636 66.52ZM773.324 66.536C773.324 65.8533 773.132 65.3147 772.748 64.92C772.374 64.5253 771.916 64.328 771.372 64.328C770.828 64.328 770.364 64.5253 769.98 64.92C769.606 65.304 769.42 65.8373 769.42 66.52C769.42 67.2027 769.606 67.7467 769.98 68.152C770.364 68.5467 770.828 68.744 771.372 68.744C771.916 68.744 772.374 68.5467 772.748 68.152C773.132 67.7573 773.324 67.2187 773.324 66.536ZM792.822 61.976C793.931 61.976 794.811 62.312 795.462 62.984C796.123 63.656 796.454 64.5893 796.454 65.784V71H793.734V66.152C793.734 65.576 793.579 65.1333 793.27 64.824C792.971 64.504 792.555 64.344 792.022 64.344C791.488 64.344 791.067 64.504 790.758 64.824C790.459 65.1333 790.31 65.576 790.31 66.152V71H787.59V66.152C787.59 65.576 787.435 65.1333 787.126 64.824C786.827 64.504 786.411 64.344 785.878 64.344C785.344 64.344 784.923 64.504 784.614 64.824C784.315 65.1333 784.166 65.576 784.166 66.152V71H781.43V62.072H784.166V63.192C784.443 62.8187 784.806 62.5253 785.254 62.312C785.702 62.088 786.208 61.976 786.774 61.976C787.446 61.976 788.043 62.12 788.566 62.408C789.099 62.696 789.515 63.1067 789.814 63.64C790.123 63.1493 790.544 62.7493 791.078 62.44C791.611 62.1307 792.192 61.976 792.822 61.976ZM806.783 66.392C806.783 66.648 806.767 66.9147 806.735 67.192H800.543C800.586 67.7467 800.762 68.1733 801.071 68.472C801.391 68.76 801.78 68.904 802.239 68.904C802.922 68.904 803.396 68.616 803.663 68.04H806.575C806.426 68.6267 806.154 69.1547 805.759 69.624C805.375 70.0933 804.89 70.4613 804.303 70.728C803.716 70.9947 803.06 71.128 802.335 71.128C801.46 71.128 800.682 70.9413 799.999 70.568C799.316 70.1947 798.783 69.6613 798.399 68.968C798.015 68.2747 797.823 67.464 797.823 66.536C797.823 65.608 798.01 64.7973 798.383 64.104C798.767 63.4107 799.3 62.8773 799.983 62.504C800.666 62.1307 801.45 61.944 802.335 61.944C803.199 61.944 803.967 62.1253 804.639 62.488C805.311 62.8507 805.834 63.368 806.207 64.04C806.591 64.712 806.783 65.496 806.783 66.392ZM803.983 65.672C803.983 65.2027 803.823 64.8293 803.503 64.552C803.183 64.2747 802.783 64.136 802.303 64.136C801.844 64.136 801.455 64.2693 801.135 64.536C800.826 64.8027 800.634 65.1813 800.559 65.672H803.983ZM810.962 59.16V71H808.226V59.16H810.962ZM818.433 61.976C819.457 61.976 820.278 62.3173 820.897 63C821.516 63.672 821.825 64.6 821.825 65.784V71H819.105V66.152C819.105 65.5547 818.95 65.0907 818.641 64.76C818.332 64.4293 817.916 64.264 817.393 64.264C816.87 64.264 816.454 64.4293 816.145 64.76C815.836 65.0907 815.681 65.5547 815.681 66.152V71H812.945V59.16H815.681V63.272C815.958 62.8773 816.337 62.5627 816.817 62.328C817.297 62.0933 817.836 61.976 818.433 61.976ZM827.79 71.128C826.916 71.128 826.126 70.9413 825.422 70.568C824.729 70.1947 824.18 69.6613 823.774 68.968C823.38 68.2747 823.182 67.464 823.182 66.536C823.182 65.6187 823.385 64.8133 823.79 64.12C824.196 63.416 824.75 62.8773 825.454 62.504C826.158 62.1307 826.948 61.944 827.822 61.944C828.697 61.944 829.486 62.1307 830.19 62.504C830.894 62.8773 831.449 63.416 831.854 64.12C832.26 64.8133 832.462 65.6187 832.462 66.536C832.462 67.4533 832.254 68.264 831.838 68.968C831.433 69.6613 830.873 70.1947 830.158 70.568C829.454 70.9413 828.665 71.128 827.79 71.128ZM827.79 68.76C828.313 68.76 828.756 68.568 829.118 68.184C829.492 67.8 829.678 67.2507 829.678 66.536C829.678 65.8213 829.497 65.272 829.134 64.888C828.782 64.504 828.345 64.312 827.822 64.312C827.289 64.312 826.846 64.504 826.494 64.888C826.142 65.2613 825.966 65.8107 825.966 66.536C825.966 67.2507 826.137 67.8 826.478 68.184C826.83 68.568 827.268 68.76 827.79 68.76ZM836.65 63.56C836.97 63.0693 837.37 62.6853 837.85 62.408C838.33 62.12 838.863 61.976 839.45 61.976V64.872H838.698C838.015 64.872 837.503 65.0213 837.162 65.32C836.821 65.608 836.65 66.12 836.65 66.856V71H833.914V62.072H836.65V63.56ZM852.564 66.392C852.564 66.648 852.548 66.9147 852.516 67.192H846.324C846.367 67.7467 846.543 68.1733 846.852 68.472C847.172 68.76 847.562 68.904 848.02 68.904C848.703 68.904 849.178 68.616 849.444 68.04H852.356C852.207 68.6267 851.935 69.1547 851.54 69.624C851.156 70.0933 850.671 70.4613 850.084 70.728C849.498 70.9947 848.842 71.128 848.116 71.128C847.242 71.128 846.463 70.9413 845.78 70.568C845.098 70.1947 844.564 69.6613 844.18 68.968C843.796 68.2747 843.604 67.464 843.604 66.536C843.604 65.608 843.791 64.7973 844.164 64.104C844.548 63.4107 845.082 62.8773 845.764 62.504C846.447 62.1307 847.231 61.944 848.116 61.944C848.98 61.944 849.748 62.1253 850.42 62.488C851.092 62.8507 851.615 63.368 851.988 64.04C852.372 64.712 852.564 65.496 852.564 66.392ZM849.764 65.672C849.764 65.2027 849.604 64.8293 849.284 64.552C848.964 64.2747 848.564 64.136 848.084 64.136C847.626 64.136 847.236 64.2693 846.916 64.536C846.607 64.8027 846.415 65.1813 846.34 65.672H849.764ZM859.288 71L857.576 68.52L856.136 71H853.176L856.12 66.44L853.096 62.072H856.168L857.88 64.536L859.32 62.072H862.28L859.288 66.568L862.36 71H859.288ZM866.15 63.336C866.417 62.92 866.785 62.584 867.254 62.328C867.723 62.072 868.273 61.944 868.902 61.944C869.638 61.944 870.305 62.1307 870.902 62.504C871.499 62.8773 871.969 63.4107 872.31 64.104C872.662 64.7973 872.838 65.6027 872.838 66.52C872.838 67.4373 872.662 68.248 872.31 68.952C871.969 69.6453 871.499 70.184 870.902 70.568C870.305 70.9413 869.638 71.128 868.902 71.128C868.283 71.128 867.734 71 867.254 70.744C866.785 70.488 866.417 70.1573 866.15 69.752V75.256H863.414V62.072H866.15V63.336ZM870.054 66.52C870.054 65.8373 869.862 65.304 869.478 64.92C869.105 64.5253 868.641 64.328 868.086 64.328C867.542 64.328 867.078 64.5253 866.694 64.92C866.321 65.3147 866.134 65.8533 866.134 66.536C866.134 67.2187 866.321 67.7573 866.694 68.152C867.078 68.5467 867.542 68.744 868.086 68.744C868.63 68.744 869.094 68.5467 869.478 68.152C869.862 67.7467 870.054 67.2027 870.054 66.52ZM882.689 66.392C882.689 66.648 882.673 66.9147 882.641 67.192H876.449C876.492 67.7467 876.668 68.1733 876.977 68.472C877.297 68.76 877.687 68.904 878.145 68.904C878.828 68.904 879.303 68.616 879.569 68.04H882.481C882.332 68.6267 882.06 69.1547 881.665 69.624C881.281 70.0933 880.796 70.4613 880.209 70.728C879.623 70.9947 878.967 71.128 878.241 71.128C877.367 71.128 876.588 70.9413 875.905 70.568C875.223 70.1947 874.689 69.6613 874.305 68.968C873.921 68.2747 873.729 67.464 873.729 66.536C873.729 65.608 873.916 64.7973 874.289 64.104C874.673 63.4107 875.207 62.8773 875.889 62.504C876.572 62.1307 877.356 61.944 878.241 61.944C879.105 61.944 879.873 62.1253 880.545 62.488C881.217 62.8507 881.74 63.368 882.113 64.04C882.497 64.712 882.689 65.496 882.689 66.392ZM879.889 65.672C879.889 65.2027 879.729 64.8293 879.409 64.552C879.089 64.2747 878.689 64.136 878.209 64.136C877.751 64.136 877.361 64.2693 877.041 64.536C876.732 64.8027 876.54 65.1813 876.465 65.672H879.889ZM886.869 63.56C887.189 63.0693 887.589 62.6853 888.069 62.408C888.549 62.12 889.082 61.976 889.669 61.976V64.872H888.917C888.234 64.872 887.722 65.0213 887.381 65.32C887.039 65.608 886.869 66.12 886.869 66.856V71H884.133V62.072H886.869V63.56ZM892.352 61.144C891.872 61.144 891.478 61.0053 891.168 60.728C890.87 60.44 890.72 60.088 890.72 59.672C890.72 59.2453 890.87 58.8933 891.168 58.616C891.478 58.328 891.872 58.184 892.352 58.184C892.822 58.184 893.206 58.328 893.504 58.616C893.814 58.8933 893.968 59.2453 893.968 59.672C893.968 60.088 893.814 60.44 893.504 60.728C893.206 61.0053 892.822 61.144 892.352 61.144ZM893.712 62.072V71H890.976V62.072H893.712ZM904.111 66.392C904.111 66.648 904.095 66.9147 904.063 67.192H897.871C897.914 67.7467 898.09 68.1733 898.399 68.472C898.719 68.76 899.108 68.904 899.567 68.904C900.25 68.904 900.724 68.616 900.991 68.04H903.903C903.754 68.6267 903.482 69.1547 903.087 69.624C902.703 70.0933 902.218 70.4613 901.631 70.728C901.044 70.9947 900.388 71.128 899.663 71.128C898.788 71.128 898.01 70.9413 897.327 70.568C896.644 70.1947 896.111 69.6613 895.727 68.968C895.343 68.2747 895.151 67.464 895.151 66.536C895.151 65.608 895.338 64.7973 895.711 64.104C896.095 63.4107 896.628 62.8773 897.311 62.504C897.994 62.1307 898.778 61.944 899.663 61.944C900.527 61.944 901.295 62.1253 901.967 62.488C902.639 62.8507 903.162 63.368 903.535 64.04C903.919 64.712 904.111 65.496 904.111 66.392ZM901.311 65.672C901.311 65.2027 901.151 64.8293 900.831 64.552C900.511 64.2747 900.111 64.136 899.631 64.136C899.172 64.136 898.783 64.2693 898.463 64.536C898.154 64.8027 897.962 65.1813 897.887 65.672H901.311ZM910.995 61.976C912.04 61.976 912.872 62.3173 913.491 63C914.12 63.672 914.435 64.6 914.435 65.784V71H911.715V66.152C911.715 65.5547 911.56 65.0907 911.251 64.76C910.941 64.4293 910.525 64.264 910.003 64.264C909.48 64.264 909.064 64.4293 908.755 64.76C908.445 65.0907 908.291 65.5547 908.291 66.152V71H905.555V62.072H908.291V63.256C908.568 62.8613 908.941 62.552 909.411 62.328C909.88 62.0933 910.408 61.976 910.995 61.976ZM915.792 66.536C915.792 65.608 915.978 64.7973 916.352 64.104C916.736 63.4107 917.264 62.8773 917.936 62.504C918.618 62.1307 919.397 61.944 920.272 61.944C921.392 61.944 922.325 62.2373 923.072 62.824C923.829 63.4107 924.325 64.2373 924.56 65.304H921.648C921.402 64.6213 920.928 64.28 920.224 64.28C919.722 64.28 919.322 64.4773 919.024 64.872C918.725 65.256 918.576 65.8107 918.576 66.536C918.576 67.2613 918.725 67.8213 919.024 68.216C919.322 68.6 919.722 68.792 920.224 68.792C920.928 68.792 921.402 68.4507 921.648 67.768H924.56C924.325 68.8133 923.829 69.6347 923.072 70.232C922.314 70.8293 921.381 71.128 920.272 71.128C919.397 71.128 918.618 70.9413 917.936 70.568C917.264 70.1947 916.736 69.6613 916.352 68.968C915.978 68.2747 915.792 67.464 915.792 66.536ZM927.399 61.144C926.919 61.144 926.525 61.0053 926.215 60.728C925.917 60.44 925.767 60.088 925.767 59.672C925.767 59.2453 925.917 58.8933 926.215 58.616C926.525 58.328 926.919 58.184 927.399 58.184C927.869 58.184 928.253 58.328 928.551 58.616C928.861 58.8933 929.015 59.2453 929.015 59.672C929.015 60.088 928.861 60.44 928.551 60.728C928.253 61.0053 927.869 61.144 927.399 61.144ZM928.759 62.072V71H926.023V62.072H928.759ZM930.198 66.52C930.198 65.6027 930.369 64.7973 930.71 64.104C931.062 63.4107 931.537 62.8773 932.134 62.504C932.731 62.1307 933.398 61.944 934.134 61.944C934.763 61.944 935.313 62.072 935.782 62.328C936.262 62.584 936.63 62.92 936.886 63.336V62.072H939.622V71H936.886V69.736C936.619 70.152 936.246 70.488 935.766 70.744C935.297 71 934.747 71.128 934.118 71.128C933.393 71.128 932.731 70.9413 932.134 70.568C931.537 70.184 931.062 69.6453 930.71 68.952C930.369 68.248 930.198 67.4373 930.198 66.52ZM936.886 66.536C936.886 65.8533 936.694 65.3147 936.31 64.92C935.937 64.5253 935.478 64.328 934.934 64.328C934.39 64.328 933.926 64.5253 933.542 64.92C933.169 65.304 932.982 65.8373 932.982 66.52C932.982 67.2027 933.169 67.7467 933.542 68.152C933.926 68.5467 934.39 68.744 934.934 68.744C935.478 68.744 935.937 68.5467 936.31 68.152C936.694 67.7573 936.886 67.2187 936.886 66.536Z" fill="#FABDDD"/>
<path d="M24.84 58H18.684L8.388 42.412V58H2.232V32.728H8.388L18.684 48.388V32.728H24.84V58ZM38.4463 58.288C36.4783 58.288 34.7023 57.868 33.1183 57.028C31.5583 56.188 30.3223 54.988 29.4103 53.428C28.5223 51.868 28.0783 50.044 28.0783 47.956C28.0783 45.892 28.5343 44.08 29.4463 42.52C30.3583 40.936 31.6063 39.724 33.1903 38.884C34.7743 38.044 36.5503 37.624 38.5183 37.624C40.4863 37.624 42.2623 38.044 43.8463 38.884C45.4303 39.724 46.6783 40.936 47.5903 42.52C48.5023 44.08 48.9583 45.892 48.9583 47.956C48.9583 50.02 48.4903 51.844 47.5543 53.428C46.6423 54.988 45.3823 56.188 43.7743 57.028C42.1903 57.868 40.4143 58.288 38.4463 58.288ZM38.4463 52.96C39.6223 52.96 40.6183 52.528 41.4343 51.664C42.2743 50.8 42.6943 49.564 42.6943 47.956C42.6943 46.348 42.2863 45.112 41.4703 44.248C40.6783 43.384 39.6943 42.952 38.5183 42.952C37.3183 42.952 36.3223 43.384 35.5303 44.248C34.7383 45.088 34.3423 46.324 34.3423 47.956C34.3423 49.564 34.7263 50.8 35.4943 51.664C36.2863 52.528 37.2703 52.96 38.4463 52.96ZM43.1983 32.764L34.5223 36.4V32.152L43.1983 27.976V32.764ZM60.3962 58.288C58.6442 58.288 57.0842 57.988 55.7162 57.388C54.3482 56.788 53.2682 55.972 52.4762 54.94C51.6842 53.884 51.2402 52.708 51.1442 51.412H57.2282C57.3002 52.108 57.6242 52.672 58.2002 53.104C58.7762 53.536 59.4842 53.752 60.3242 53.752C61.0922 53.752 61.6802 53.608 62.0882 53.32C62.5202 53.008 62.7362 52.612 62.7362 52.132C62.7362 51.556 62.4362 51.136 61.8362 50.872C61.2362 50.584 60.2642 50.272 58.9202 49.936C57.4802 49.6 56.2802 49.252 55.3202 48.892C54.3602 48.508 53.5322 47.92 52.8362 47.128C52.1402 46.312 51.7922 45.22 51.7922 43.852C51.7922 42.7 52.1042 41.656 52.7282 40.72C53.3762 39.76 54.3122 39.004 55.5362 38.452C56.7842 37.9 58.2602 37.624 59.9642 37.624C62.4842 37.624 64.4642 38.248 65.9042 39.496C67.3682 40.744 68.2082 42.4 68.4242 44.464H62.7362C62.6402 43.768 62.3282 43.216 61.8002 42.808C61.2962 42.4 60.6242 42.196 59.7842 42.196C59.0642 42.196 58.5122 42.34 58.1282 42.628C57.7442 42.892 57.5522 43.264 57.5522 43.744C57.5522 44.32 57.8522 44.752 58.4522 45.04C59.0762 45.328 60.0362 45.616 61.3322 45.904C62.8202 46.288 64.0322 46.672 64.9682 47.056C65.9042 47.416 66.7202 48.016 67.4162 48.856C68.1362 49.672 68.5082 50.776 68.5322 52.168C68.5322 53.344 68.1962 54.4 67.5242 55.336C66.8762 56.248 65.9282 56.968 64.6802 57.496C63.4562 58.024 62.0282 58.288 60.3962 58.288ZM86.0833 40.756C86.6833 39.82 87.5113 39.064 88.5673 38.488C89.6233 37.912 90.8593 37.624 92.2753 37.624C93.9313 37.624 95.4313 38.044 96.7753 38.884C98.1193 39.724 99.1753 40.924 99.9433 42.484C100.735 44.044 101.131 45.856 101.131 47.92C101.131 49.984 100.735 51.808 99.9433 53.392C99.1753 54.952 98.1193 56.164 96.7753 57.028C95.4313 57.868 93.9313 58.288 92.2753 58.288C90.8833 58.288 89.6473 58 88.5673 57.424C87.5113 56.848 86.6833 56.104 86.0833 55.192V67.576H79.9273V37.912H86.0833V40.756ZM94.8673 47.92C94.8673 46.384 94.4353 45.184 93.5713 44.32C92.7313 43.432 91.6873 42.988 90.4393 42.988C89.2153 42.988 88.1713 43.432 87.3073 44.32C86.4673 45.208 86.0473 46.42 86.0473 47.956C86.0473 49.492 86.4673 50.704 87.3073 51.592C88.1713 52.48 89.2153 52.924 90.4393 52.924C91.6633 52.924 92.7073 52.48 93.5713 51.592C94.4353 50.68 94.8673 49.456 94.8673 47.92ZM110.517 41.26C111.237 40.156 112.137 39.292 113.217 38.668C114.297 38.02 115.497 37.696 116.817 37.696V44.212H115.125C113.589 44.212 112.437 44.548 111.669 45.22C110.901 45.868 110.517 47.02 110.517 48.676V58H104.361V37.912H110.517V41.26ZM128.903 58.288C126.935 58.288 125.159 57.868 123.575 57.028C122.015 56.188 120.779 54.988 119.867 53.428C118.979 51.868 118.535 50.044 118.535 47.956C118.535 45.892 118.991 44.08 119.903 42.52C120.815 40.936 122.063 39.724 123.647 38.884C125.231 38.044 127.007 37.624 128.975 37.624C130.943 37.624 132.719 38.044 134.303 38.884C135.887 39.724 137.135 40.936 138.047 42.52C138.959 44.08 139.415 45.892 139.415 47.956C139.415 50.02 138.947 51.844 138.011 53.428C137.099 54.988 135.839 56.188 134.231 57.028C132.647 57.868 130.871 58.288 128.903 58.288ZM128.903 52.96C130.079 52.96 131.075 52.528 131.891 51.664C132.731 50.8 133.151 49.564 133.151 47.956C133.151 46.348 132.743 45.112 131.927 44.248C131.135 43.384 130.151 42.952 128.975 42.952C127.775 42.952 126.779 43.384 125.987 44.248C125.195 45.088 124.799 46.324 124.799 47.956C124.799 49.564 125.183 50.8 125.951 51.664C126.743 52.528 127.727 52.96 128.903 52.96ZM151.717 52.24L156.073 37.912H162.625L155.497 58H147.901L140.773 37.912H147.361L151.717 52.24ZM168.312 35.824C167.232 35.824 166.344 35.512 165.648 34.888C164.976 34.24 164.64 33.448 164.64 32.512C164.64 31.552 164.976 30.76 165.648 30.136C166.344 29.488 167.232 29.164 168.312 29.164C169.368 29.164 170.232 29.488 170.904 30.136C171.6 30.76 171.948 31.552 171.948 32.512C171.948 33.448 171.6 34.24 170.904 34.888C170.232 35.512 169.368 35.824 168.312 35.824ZM171.372 37.912V58H165.216V37.912H171.372ZM174.61 47.92C174.61 45.856 174.994 44.044 175.762 42.484C176.554 40.924 177.622 39.724 178.966 38.884C180.31 38.044 181.81 37.624 183.466 37.624C184.786 37.624 185.986 37.9 187.066 38.452C188.17 39.004 189.034 39.748 189.658 40.684V31.36H195.814V58H189.658V55.12C189.082 56.08 188.254 56.848 187.174 57.424C186.118 58 184.882 58.288 183.466 58.288C181.81 58.288 180.31 57.868 178.966 57.028C177.622 56.164 176.554 54.952 175.762 53.392C174.994 51.808 174.61 49.984 174.61 47.92ZM189.658 47.956C189.658 46.42 189.226 45.208 188.362 44.32C187.522 43.432 186.49 42.988 185.266 42.988C184.042 42.988 182.998 43.432 182.134 44.32C181.294 45.184 180.874 46.384 180.874 47.92C180.874 49.456 181.294 50.68 182.134 51.592C182.998 52.48 184.042 52.924 185.266 52.924C186.49 52.924 187.522 52.48 188.362 51.592C189.226 50.704 189.658 49.492 189.658 47.956ZM219.203 47.632C219.203 48.208 219.167 48.808 219.095 49.432H205.163C205.259 50.68 205.655 51.64 206.351 52.312C207.071 52.96 207.947 53.284 208.979 53.284C210.515 53.284 211.583 52.636 212.183 51.34H218.735C218.399 52.66 217.787 53.848 216.899 54.904C216.035 55.96 214.943 56.788 213.623 57.388C212.303 57.988 210.827 58.288 209.195 58.288C207.227 58.288 205.475 57.868 203.939 57.028C202.403 56.188 201.203 54.988 200.339 53.428C199.475 51.868 199.043 50.044 199.043 47.956C199.043 45.868 199.463 44.044 200.303 42.484C201.167 40.924 202.367 39.724 203.903 38.884C205.439 38.044 207.203 37.624 209.195 37.624C211.139 37.624 212.867 38.032 214.379 38.848C215.891 39.664 217.067 40.828 217.907 42.34C218.771 43.852 219.203 45.616 219.203 47.632ZM212.903 46.012C212.903 44.956 212.543 44.116 211.823 43.492C211.103 42.868 210.203 42.556 209.123 42.556C208.091 42.556 207.215 42.856 206.495 43.456C205.799 44.056 205.367 44.908 205.199 46.012H212.903ZM234.691 37.696C237.043 37.696 238.915 38.464 240.307 40C241.723 41.512 242.431 43.6 242.431 46.264V58H236.311V47.092C236.311 45.748 235.963 44.704 235.267 43.96C234.571 43.216 233.635 42.844 232.459 42.844C231.283 42.844 230.347 43.216 229.651 43.96C228.955 44.704 228.607 45.748 228.607 47.092V58H222.451V37.912H228.607V40.576C229.231 39.688 230.071 38.992 231.127 38.488C232.183 37.96 233.371 37.696 234.691 37.696ZM245.485 47.956C245.485 45.868 245.905 44.044 246.745 42.484C247.609 40.924 248.797 39.724 250.309 38.884C251.845 38.044 253.597 37.624 255.565 37.624C258.085 37.624 260.185 38.284 261.865 39.604C263.569 40.924 264.685 42.784 265.213 45.184H258.661C258.109 43.648 257.041 42.88 255.457 42.88C254.329 42.88 253.429 43.324 252.757 44.212C252.085 45.076 251.749 46.324 251.749 47.956C251.749 49.588 252.085 50.848 252.757 51.736C253.429 52.6 254.329 53.032 255.457 53.032C257.041 53.032 258.109 52.264 258.661 50.728H265.213C264.685 53.08 263.569 54.928 261.865 56.272C260.161 57.616 258.061 58.288 255.565 58.288C253.597 58.288 251.845 57.868 250.309 57.028C248.797 56.188 247.609 54.988 246.745 53.428C245.905 51.868 245.485 50.044 245.485 47.956ZM271.601 35.824C270.521 35.824 269.633 35.512 268.937 34.888C268.265 34.24 267.929 33.448 267.929 32.512C267.929 31.552 268.265 30.76 268.937 30.136C269.633 29.488 270.521 29.164 271.601 29.164C272.657 29.164 273.521 29.488 274.193 30.136C274.889 30.76 275.237 31.552 275.237 32.512C275.237 33.448 274.889 34.24 274.193 34.888C273.521 35.512 272.657 35.824 271.601 35.824ZM274.661 37.912V58H268.505V37.912H274.661ZM277.899 47.92C277.899 45.856 278.283 44.044 279.051 42.484C279.843 40.924 280.911 39.724 282.255 38.884C283.599 38.044 285.099 37.624 286.755 37.624C288.171 37.624 289.407 37.912 290.463 38.488C291.543 39.064 292.371 39.82 292.947 40.756V37.912H299.103V58H292.947V55.156C292.347 56.092 291.507 56.848 290.427 57.424C289.371 58 288.135 58.288 286.719 58.288C285.087 58.288 283.599 57.868 282.255 57.028C280.911 56.164 279.843 54.952 279.051 53.392C278.283 51.808 277.899 49.984 277.899 47.92ZM292.947 47.956C292.947 46.42 292.515 45.208 291.651 44.32C290.811 43.432 289.779 42.988 288.555 42.988C287.331 42.988 286.287 43.432 285.423 44.32C284.583 45.184 284.163 46.384 284.163 47.92C284.163 49.456 284.583 50.68 285.423 51.592C286.287 52.48 287.331 52.924 288.555 52.924C289.779 52.924 290.811 52.48 291.651 51.592C292.515 50.704 292.947 49.492 292.947 47.956ZM329.188 37.696C331.684 37.696 333.664 38.452 335.128 39.964C336.616 41.476 337.36 43.576 337.36 46.264V58H331.24V47.092C331.24 45.796 330.892 44.8 330.196 44.104C329.524 43.384 328.588 43.024 327.388 43.024C326.188 43.024 325.24 43.384 324.544 44.104C323.872 44.8 323.536 45.796 323.536 47.092V58H317.416V47.092C317.416 45.796 317.068 44.8 316.372 44.104C315.7 43.384 314.764 43.024 313.564 43.024C312.364 43.024 311.416 43.384 310.72 44.104C310.048 44.8 309.712 45.796 309.712 47.092V58H303.556V37.912H309.712V40.432C310.336 39.592 311.152 38.932 312.16 38.452C313.168 37.948 314.308 37.696 315.58 37.696C317.092 37.696 318.436 38.02 319.612 38.668C320.812 39.316 321.748 40.24 322.42 41.44C323.116 40.336 324.064 39.436 325.264 38.74C326.464 38.044 327.772 37.696 329.188 37.696ZM350.81 58.288C348.842 58.288 347.066 57.868 345.482 57.028C343.922 56.188 342.686 54.988 341.774 53.428C340.886 51.868 340.442 50.044 340.442 47.956C340.442 45.892 340.898 44.08 341.81 42.52C342.722 40.936 343.97 39.724 345.554 38.884C347.138 38.044 348.914 37.624 350.882 37.624C352.85 37.624 354.626 38.044 356.21 38.884C357.794 39.724 359.042 40.936 359.954 42.52C360.866 44.08 361.322 45.892 361.322 47.956C361.322 50.02 360.854 51.844 359.918 53.428C359.006 54.988 357.746 56.188 356.138 57.028C354.554 57.868 352.778 58.288 350.81 58.288ZM350.81 52.96C351.986 52.96 352.982 52.528 353.798 51.664C354.638 50.8 355.058 49.564 355.058 47.956C355.058 46.348 354.65 45.112 353.834 44.248C353.042 43.384 352.058 42.952 350.882 42.952C349.682 42.952 348.686 43.384 347.894 44.248C347.102 45.088 346.706 46.324 346.706 47.956C346.706 49.564 347.09 50.8 347.858 51.664C348.65 52.528 349.634 52.96 350.81 52.96ZM372.759 58.288C371.007 58.288 369.447 57.988 368.079 57.388C366.711 56.788 365.631 55.972 364.839 54.94C364.047 53.884 363.603 52.708 363.507 51.412H369.591C369.663 52.108 369.987 52.672 370.563 53.104C371.139 53.536 371.847 53.752 372.687 53.752C373.455 53.752 374.043 53.608 374.451 53.32C374.883 53.008 375.099 52.612 375.099 52.132C375.099 51.556 374.799 51.136 374.199 50.872C373.599 50.584 372.627 50.272 371.283 49.936C369.843 49.6 368.643 49.252 367.683 48.892C366.723 48.508 365.895 47.92 365.199 47.128C364.503 46.312 364.155 45.22 364.155 43.852C364.155 42.7 364.467 41.656 365.091 40.72C365.739 39.76 366.675 39.004 367.899 38.452C369.147 37.9 370.623 37.624 372.327 37.624C374.847 37.624 376.827 38.248 378.267 39.496C379.731 40.744 380.571 42.4 380.787 44.464H375.099C375.003 43.768 374.691 43.216 374.163 42.808C373.659 42.4 372.987 42.196 372.147 42.196C371.427 42.196 370.875 42.34 370.491 42.628C370.107 42.892 369.915 43.264 369.915 43.744C369.915 44.32 370.215 44.752 370.815 45.04C371.439 45.328 372.399 45.616 373.695 45.904C375.183 46.288 376.395 46.672 377.331 47.056C378.267 47.416 379.083 48.016 379.779 48.856C380.499 49.672 380.871 50.776 380.895 52.168C380.895 53.344 380.559 54.4 379.887 55.336C379.239 56.248 378.291 56.968 377.043 57.496C375.819 58.024 374.391 58.288 372.759 58.288ZM391.067 47.92C391.067 45.856 391.451 44.044 392.219 42.484C393.011 40.924 394.079 39.724 395.423 38.884C396.767 38.044 398.267 37.624 399.923 37.624C401.339 37.624 402.575 37.912 403.631 38.488C404.711 39.064 405.539 39.82 406.115 40.756V37.912H412.271V58H406.115V55.156C405.515 56.092 404.675 56.848 403.595 57.424C402.539 58 401.303 58.288 399.887 58.288C398.255 58.288 396.767 57.868 395.423 57.028C394.079 56.164 393.011 54.952 392.219 53.392C391.451 51.808 391.067 49.984 391.067 47.92ZM406.115 47.956C406.115 46.42 405.683 45.208 404.819 44.32C403.979 43.432 402.947 42.988 401.723 42.988C400.499 42.988 399.455 43.432 398.591 44.32C397.751 45.184 397.331 46.384 397.331 47.92C397.331 49.456 397.751 50.68 398.591 51.592C399.455 52.48 400.499 52.924 401.723 52.924C402.947 52.924 403.979 52.48 404.819 51.592C405.683 50.704 406.115 49.492 406.115 47.956ZM449.985 37.696C452.481 37.696 454.461 38.452 455.925 39.964C457.413 41.476 458.157 43.576 458.157 46.264V58H452.037V47.092C452.037 45.796 451.689 44.8 450.993 44.104C450.321 43.384 449.385 43.024 448.185 43.024C446.985 43.024 446.037 43.384 445.341 44.104C444.669 44.8 444.333 45.796 444.333 47.092V58H438.213V47.092C438.213 45.796 437.865 44.8 437.169 44.104C436.497 43.384 435.561 43.024 434.361 43.024C433.161 43.024 432.213 43.384 431.517 44.104C430.845 44.8 430.509 45.796 430.509 47.092V58H424.353V37.912H430.509V40.432C431.133 39.592 431.949 38.932 432.957 38.452C433.965 37.948 435.105 37.696 436.377 37.696C437.889 37.696 439.233 38.02 440.409 38.668C441.609 39.316 442.545 40.24 443.217 41.44C443.913 40.336 444.861 39.436 446.061 38.74C447.261 38.044 448.569 37.696 449.985 37.696ZM481.398 47.632C481.398 48.208 481.362 48.808 481.29 49.432H467.358C467.454 50.68 467.85 51.64 468.546 52.312C469.266 52.96 470.142 53.284 471.174 53.284C472.71 53.284 473.778 52.636 474.378 51.34H480.93C480.594 52.66 479.982 53.848 479.094 54.904C478.23 55.96 477.138 56.788 475.818 57.388C474.498 57.988 473.022 58.288 471.39 58.288C469.422 58.288 467.67 57.868 466.134 57.028C464.598 56.188 463.398 54.988 462.534 53.428C461.67 51.868 461.238 50.044 461.238 47.956C461.238 45.868 461.658 44.044 462.498 42.484C463.362 40.924 464.562 39.724 466.098 38.884C467.634 38.044 469.398 37.624 471.39 37.624C473.334 37.624 475.062 38.032 476.574 38.848C478.086 39.664 479.262 40.828 480.102 42.34C480.966 43.852 481.398 45.616 481.398 47.632ZM475.098 46.012C475.098 44.956 474.738 44.116 474.018 43.492C473.298 42.868 472.398 42.556 471.318 42.556C470.286 42.556 469.41 42.856 468.69 43.456C467.994 44.056 467.562 44.908 467.394 46.012H475.098ZM490.802 31.36V58H484.646V31.36H490.802ZM507.611 37.696C509.915 37.696 511.763 38.464 513.155 40C514.547 41.512 515.243 43.6 515.243 46.264V58H509.123V47.092C509.123 45.748 508.775 44.704 508.079 43.96C507.383 43.216 506.447 42.844 505.271 42.844C504.095 42.844 503.159 43.216 502.463 43.96C501.767 44.704 501.419 45.748 501.419 47.092V58H495.263V31.36H501.419V40.612C502.043 39.724 502.895 39.016 503.975 38.488C505.055 37.96 506.267 37.696 507.611 37.696ZM528.665 58.288C526.697 58.288 524.921 57.868 523.337 57.028C521.777 56.188 520.541 54.988 519.629 53.428C518.741 51.868 518.297 50.044 518.297 47.956C518.297 45.892 518.753 44.08 519.665 42.52C520.577 40.936 521.825 39.724 523.409 38.884C524.993 38.044 526.769 37.624 528.737 37.624C530.705 37.624 532.481 38.044 534.065 38.884C535.649 39.724 536.897 40.936 537.809 42.52C538.721 44.08 539.177 45.892 539.177 47.956C539.177 50.02 538.709 51.844 537.773 53.428C536.861 54.988 535.601 56.188 533.993 57.028C532.409 57.868 530.633 58.288 528.665 58.288ZM528.665 52.96C529.841 52.96 530.837 52.528 531.653 51.664C532.493 50.8 532.913 49.564 532.913 47.956C532.913 46.348 532.505 45.112 531.689 44.248C530.897 43.384 529.913 42.952 528.737 42.952C527.537 42.952 526.541 43.384 525.749 44.248C524.957 45.088 524.561 46.324 524.561 47.956C524.561 49.564 524.945 50.8 525.713 51.664C526.505 52.528 527.489 52.96 528.665 52.96ZM548.599 41.26C549.319 40.156 550.219 39.292 551.299 38.668C552.379 38.02 553.579 37.696 554.899 37.696V44.212H553.207C551.671 44.212 550.519 44.548 549.751 45.22C548.983 45.868 548.599 47.02 548.599 48.676V58H542.443V37.912H548.599V41.26ZM21.168 87.632C21.168 88.208 21.132 88.808 21.06 89.432H7.128C7.224 90.68 7.62 91.64 8.316 92.312C9.036 92.96 9.912 93.284 10.944 93.284C12.48 93.284 13.548 92.636 14.148 91.34H20.7C20.364 92.66 19.752 93.848 18.864 94.904C18 95.96 16.908 96.788 15.588 97.388C14.268 97.988 12.792 98.288 11.16 98.288C9.192 98.288 7.44 97.868 5.904 97.028C4.368 96.188 3.168 94.988 2.304 93.428C1.44 91.868 1.008 90.044 1.008 87.956C1.008 85.868 1.428 84.044 2.268 82.484C3.132 80.924 4.332 79.724 5.868 78.884C7.404 78.044 9.168 77.624 11.16 77.624C13.104 77.624 14.832 78.032 16.344 78.848C17.856 79.664 19.032 80.828 19.872 82.34C20.736 83.852 21.168 85.616 21.168 87.632ZM14.868 86.012C14.868 84.956 14.508 84.116 13.788 83.492C13.068 82.868 12.168 82.556 11.088 82.556C10.056 82.556 9.18 82.856 8.46 83.456C7.764 84.056 7.332 84.908 7.164 86.012H14.868ZM36.2956 98L32.4436 92.42L29.2036 98H22.5436L29.1676 87.74L22.3636 77.912H29.2756L33.1276 83.456L36.3676 77.912H43.0276L36.2956 88.028L43.2076 98H36.2956ZM51.7357 80.756C52.3357 79.82 53.1637 79.064 54.2197 78.488C55.2757 77.912 56.5117 77.624 57.9277 77.624C59.5837 77.624 61.0837 78.044 62.4277 78.884C63.7717 79.724 64.8277 80.924 65.5957 82.484C66.3877 84.044 66.7837 85.856 66.7837 87.92C66.7837 89.984 66.3877 91.808 65.5957 93.392C64.8277 94.952 63.7717 96.164 62.4277 97.028C61.0837 97.868 59.5837 98.288 57.9277 98.288C56.5357 98.288 55.2997 98 54.2197 97.424C53.1637 96.848 52.3357 96.104 51.7357 95.192V107.576H45.5797V77.912H51.7357V80.756ZM60.5197 87.92C60.5197 86.384 60.0877 85.184 59.2237 84.32C58.3837 83.432 57.3397 82.988 56.0917 82.988C54.8677 82.988 53.8237 83.432 52.9597 84.32C52.1197 85.208 51.6997 86.42 51.6997 87.956C51.6997 89.492 52.1197 90.704 52.9597 91.592C53.8237 92.48 54.8677 92.924 56.0917 92.924C57.3157 92.924 58.3597 92.48 59.2237 91.592C60.0877 90.68 60.5197 89.456 60.5197 87.92ZM88.9492 87.632C88.9492 88.208 88.9133 88.808 88.8413 89.432H74.9093C75.0053 90.68 75.4013 91.64 76.0973 92.312C76.8173 92.96 77.6933 93.284 78.7253 93.284C80.2613 93.284 81.3293 92.636 81.9293 91.34H88.4813C88.1453 92.66 87.5333 93.848 86.6453 94.904C85.7813 95.96 84.6893 96.788 83.3693 97.388C82.0493 97.988 80.5733 98.288 78.9413 98.288C76.9733 98.288 75.2213 97.868 73.6853 97.028C72.1493 96.188 70.9493 94.988 70.0853 93.428C69.2213 91.868 68.7893 90.044 68.7893 87.956C68.7893 85.868 69.2093 84.044 70.0493 82.484C70.9133 80.924 72.1133 79.724 73.6493 78.884C75.1853 78.044 76.9493 77.624 78.9413 77.624C80.8853 77.624 82.6133 78.032 84.1253 78.848C85.6373 79.664 86.8133 80.828 87.6533 82.34C88.5173 83.852 88.9492 85.616 88.9492 87.632ZM82.6493 86.012C82.6493 84.956 82.2893 84.116 81.5693 83.492C80.8493 82.868 79.9493 82.556 78.8693 82.556C77.8373 82.556 76.9613 82.856 76.2413 83.456C75.5453 84.056 75.1133 84.908 74.9453 86.012H82.6493ZM98.3528 81.26C99.0728 80.156 99.9728 79.292 101.053 78.668C102.133 78.02 103.333 77.696 104.653 77.696V84.212H102.961C101.425 84.212 100.273 84.548 99.5048 85.22C98.7368 85.868 98.3528 87.02 98.3528 88.676V98H92.1968V77.912H98.3528V81.26ZM110.691 75.824C109.611 75.824 108.723 75.512 108.027 74.888C107.355 74.24 107.019 73.448 107.019 72.512C107.019 71.552 107.355 70.76 108.027 70.136C108.723 69.488 109.611 69.164 110.691 69.164C111.747 69.164 112.611 69.488 113.283 70.136C113.979 70.76 114.327 71.552 114.327 72.512C114.327 73.448 113.979 74.24 113.283 74.888C112.611 75.512 111.747 75.824 110.691 75.824ZM113.751 77.912V98H107.595V77.912H113.751ZM137.148 87.632C137.148 88.208 137.112 88.808 137.04 89.432H123.108C123.204 90.68 123.6 91.64 124.296 92.312C125.016 92.96 125.892 93.284 126.924 93.284C128.46 93.284 129.528 92.636 130.128 91.34H136.68C136.344 92.66 135.732 93.848 134.844 94.904C133.98 95.96 132.888 96.788 131.568 97.388C130.248 97.988 128.772 98.288 127.14 98.288C125.172 98.288 123.42 97.868 121.884 97.028C120.348 96.188 119.148 94.988 118.284 93.428C117.42 91.868 116.988 90.044 116.988 87.956C116.988 85.868 117.408 84.044 118.248 82.484C119.112 80.924 120.312 79.724 121.848 78.884C123.384 78.044 125.148 77.624 127.14 77.624C129.084 77.624 130.812 78.032 132.324 78.848C133.836 79.664 135.012 80.828 135.852 82.34C136.716 83.852 137.148 85.616 137.148 87.632ZM130.848 86.012C130.848 84.956 130.488 84.116 129.768 83.492C129.048 82.868 128.148 82.556 127.068 82.556C126.036 82.556 125.16 82.856 124.44 83.456C123.744 84.056 123.312 84.908 123.144 86.012H130.848ZM152.636 77.696C154.988 77.696 156.86 78.464 158.252 80C159.668 81.512 160.376 83.6 160.376 86.264V98H154.256V87.092C154.256 85.748 153.908 84.704 153.212 83.96C152.516 83.216 151.58 82.844 150.404 82.844C149.228 82.844 148.292 83.216 147.596 83.96C146.9 84.704 146.552 85.748 146.552 87.092V98H140.396V77.912H146.552V80.576C147.176 79.688 148.016 78.992 149.072 78.488C150.128 77.96 151.316 77.696 152.636 77.696ZM163.43 87.956C163.43 85.868 163.85 84.044 164.69 82.484C165.554 80.924 166.742 79.724 168.254 78.884C169.79 78.044 171.542 77.624 173.51 77.624C176.03 77.624 178.13 78.284 179.81 79.604C181.514 80.924 182.63 82.784 183.158 85.184H176.606C176.054 83.648 174.986 82.88 173.402 82.88C172.274 82.88 171.374 83.324 170.702 84.212C170.03 85.076 169.694 86.324 169.694 87.956C169.694 89.588 170.03 90.848 170.702 91.736C171.374 92.6 172.274 93.032 173.402 93.032C174.986 93.032 176.054 92.264 176.606 90.728H183.158C182.63 93.08 181.514 94.928 179.81 96.272C178.106 97.616 176.006 98.288 173.51 98.288C171.542 98.288 169.79 97.868 168.254 97.028C166.742 96.188 165.554 94.988 164.69 93.428C163.85 91.868 163.43 90.044 163.43 87.956ZM189.547 75.824C188.467 75.824 187.579 75.512 186.883 74.888C186.211 74.24 185.875 73.448 185.875 72.512C185.875 71.552 186.211 70.76 186.883 70.136C187.579 69.488 188.467 69.164 189.547 69.164C190.603 69.164 191.467 69.488 192.139 70.136C192.835 70.76 193.183 71.552 193.183 72.512C193.183 73.448 192.835 74.24 192.139 74.888C191.467 75.512 190.603 75.824 189.547 75.824ZM192.607 77.912V98H186.451V77.912H192.607ZM195.844 87.92C195.844 85.856 196.228 84.044 196.996 82.484C197.788 80.924 198.856 79.724 200.2 78.884C201.544 78.044 203.044 77.624 204.7 77.624C206.116 77.624 207.352 77.912 208.408 78.488C209.488 79.064 210.316 79.82 210.892 80.756V77.912H217.048V98H210.892V95.156C210.292 96.092 209.452 96.848 208.372 97.424C207.316 98 206.08 98.288 204.664 98.288C203.032 98.288 201.544 97.868 200.2 97.028C198.856 96.164 197.788 94.952 196.996 93.392C196.228 91.808 195.844 89.984 195.844 87.92ZM210.892 87.956C210.892 86.42 210.46 85.208 209.596 84.32C208.756 83.432 207.724 82.988 206.5 82.988C205.276 82.988 204.232 83.432 203.368 84.32C202.528 85.184 202.108 86.384 202.108 87.92C202.108 89.456 202.528 90.68 203.368 91.592C204.232 92.48 205.276 92.924 206.5 92.924C207.724 92.924 208.756 92.48 209.596 91.592C210.46 90.704 210.892 89.492 210.892 87.956Z" fill="#FABDDD"/>
<line x1="636.519" y1="0.000427135" x2="636.482" y2="130" stroke="#FBF6D8" stroke-width="3"/>
</svg>
